<svg xmlns="http://www.w3.org/2000/svg" xmlns:xlink="http://www.w3.org/1999/xlink" viewBox="0 0 3432 2000"><defs><style>.cls-1{fill:#e0dcca;}.cls-2{fill:#ccb29e;}.cls-14,.cls-22,.cls-23,.cls-3,.cls-5{fill:none;}.cls-3{stroke:#a08c7d;}.cls-12,.cls-13,.cls-14,.cls-15,.cls-16,.cls-20,.cls-22,.cls-23,.cls-3,.cls-5{stroke-miterlimit:10;}.cls-12,.cls-13,.cls-14,.cls-3{stroke-width:0.5px;}.cls-4{fill:#efd9ce;}.cls-5{stroke:#eacec1;}.cls-6{fill:#efe39c;}.cls-7{fill:#fff;}.cls-8{fill:#f7b0c3;}.cls-9{fill:#bbeacb;}.cls-10{fill:#c98d61;}.cls-11{fill:#71b1d8;}.cls-12{fill:#b29e8e;stroke:#8e684c;}.cls-13{fill:#aa8e77;stroke:#9b6842;}.cls-14{stroke:#875d3d;}.cls-15,.cls-16{stroke:#bdccd4;stroke-width:8px;}.cls-15{fill:url(#Небо_2);}.cls-16{fill:url(#Небо_2-2);}.cls-17{fill:#cc1b1b;}.cls-18{fill:#8db1c9;}.cls-19{fill:#b8ced3;}.cls-20{fill:#cbeaef;stroke:#aa8768;stroke-width:5px;}.cls-21{fill:#ebf1f2;}.cls-22{stroke:#b29377;}.cls-22,.cls-23{stroke-width:2px;}.cls-23{stroke:#937763;}.cls-24{fill:#b4d3b4;}</style><linearGradient id="Небо_2" x1="2376.25" y1="1065.34" x2="2421.44" y2="1065.34" gradientUnits="userSpaceOnUse"><stop offset="0" stop-color="#d0def2"/><stop offset="0.09" stop-color="#c7d9f0"/><stop offset="0.23" stop-color="#adcae9"/><stop offset="0.41" stop-color="#84b2de"/><stop offset="0.57" stop-color="#5b9ad3"/><stop offset="0.87" stop-color="#4274b9"/><stop offset="0.99" stop-color="#345b93"/></linearGradient><linearGradient id="Небо_2-2" x1="2516.94" y1="1059.72" x2="2562.13" y2="1059.72" xlink:href="#Небо_2"/></defs><title>RoomIgrovaya</title><g id="ковер"><rect class="cls-1" x="1017.52" y="325" width="1879.69" height="912.2"/><g id="пол"><polygon class="cls-2" points="3050 1567 874 1567 1017.52 1237.2 2897.22 1237.2 3050 1567"/><line class="cls-3" x1="943.45" y1="1416.14" x2="2975.92" y2="1416.14"/><line class="cls-3" x1="975.86" y1="1338.95" x2="2952.77" y2="1338.95"/><line class="cls-3" x1="901.78" y1="1507.36" x2="3022.22" y2="1507.36"/><line class="cls-3" x1="1003.63" y1="1268.78" x2="2915.74" y2="1268.78"/></g><polygon class="cls-4" points="1017.52 1237.2 874 1567 874 325 1017.52 325 1017.52 1237.2"/><polygon class="cls-4" points="2897.22 1237.2 3050 1567 3050 325 2897.22 325 2897.22 1237.2"/><line class="cls-5" x1="1010.58" y1="325" x2="1019.84" y2="1226.68"/><line class="cls-5" x1="2894.9" y1="332.02" x2="2894.9" y2="1240.71"/><path class="cls-6" d="M1945.28,486.57c4.1,9.65-4.87,31.86-2.7,39.33,4.61,15.82,20.11,32.33,34.24,18.23,9.92-9.89,5.44-55.13-7.29-82-17-35.92-40.66-57.18-47.39-46.53-8.25,13-10.87,36.7-2.39,49.19C1925.11,472.64,1939.92,474,1945.28,486.57Z"/><path class="cls-6" d="M2005.15,426.2c4.1,9.64,21.81,5,25.44,11,7.68,12.72,10.9,41.6-4.12,56.9-10.54,10.73-36.4-12.95-47.26-41.71-14.51-38.43-17-81-7.43-86.85,11.72-7.1,27.49-2,31.38,15.16C2005.61,391.47,1999.79,413.61,2005.15,426.2Z"/><ellipse class="cls-7" cx="1973.65" cy="455.12" rx="12.49" ry="46.31" transform="translate(-31.09 743.99) rotate(-21.18)"/><line x1="1943.04" y1="399.21" x2="1955.65" y2="412.79"/><line x1="1954.74" y1="387.24" x2="1958.28" y2="410.3"/><ellipse cx="1956.8" cy="419.52" rx="1.43" ry="2.2"/><ellipse cx="1961.58" cy="414.7" rx="1.43" ry="2.2"/><ellipse class="cls-8" cx="1930.02" cy="453.21" rx="8.84" ry="5.59" transform="translate(1146.04 2274.14) rotate(-79.92)"/><ellipse class="cls-8" cx="1929.28" cy="443.44" rx="5.74" ry="8.62" transform="translate(-48.87 367.95) rotate(-10.76)"/><ellipse class="cls-8" cx="1934.06" cy="438.62" rx="5.23" ry="9.45" transform="translate(-10.86 50.99) rotate(-1.51)"/><ellipse class="cls-8" cx="1939.58" cy="443.57" rx="8.29" ry="5.97" transform="translate(1183.88 2284.13) rotate(-80.56)"/><ellipse class="cls-8" cx="1938.76" cy="449.66" rx="5.86" ry="8.44" transform="translate(-49.48 360.92) rotate(-10.5)"/><ellipse class="cls-8" cx="1956.64" cy="515.79" rx="5.86" ry="8.44" transform="translate(-61.24 365.28) rotate(-10.5)"/><ellipse class="cls-8" cx="1961.42" cy="510.97" rx="5.46" ry="9.05" transform="translate(-54.41 299.59) rotate(-8.62)"/><ellipse class="cls-8" cx="1968.59" cy="503.74" rx="9.42" ry="5.25" transform="matrix(0.05, -1, 1, 0.05, 1361.41, 2442.92)"/><ellipse class="cls-8" cx="1970.9" cy="517.19" rx="5.86" ry="8.44" transform="translate(-61.25 367.91) rotate(-10.5)"/><ellipse class="cls-8" cx="1963.73" cy="524.42" rx="9.34" ry="5.3" transform="translate(1270.35 2435.04) rotate(-85.01)"/><ellipse class="cls-8" cx="1991.44" cy="391.28" rx="8.63" ry="6.13" transform="translate(1086.91 2208.08) rotate(-74.65)"/><ellipse class="cls-8" cx="1985.75" cy="386.5" rx="5.51" ry="9.6" transform="translate(-0.43 2.22) rotate(-0.06)"/><ellipse class="cls-8" cx="1980.64" cy="391.66" rx="6.17" ry="8.58" transform="translate(-32.11 233.05) rotate(-6.68)"/><ellipse class="cls-8" cx="1981.21" cy="401.6" rx="9.19" ry="5.75" transform="translate(1116.95 2229.03) rotate(-76.15)"/><ellipse class="cls-8" cx="1985.33" cy="402.7" rx="9.66" ry="5.48" transform="translate(1515.28 2373.17) rotate(-88.05)"/><ellipse class="cls-8" cx="2018.06" cy="453.86" rx="9.66" ry="5.48" transform="translate(1495.76 2455.3) rotate(-88.05)"/><ellipse class="cls-8" cx="2012.95" cy="459.02" rx="5.68" ry="9.3" transform="translate(-29.61 158.03) rotate(-4.46)"/><ellipse class="cls-8" cx="2005.27" cy="466.75" rx="6.4" ry="8.26" transform="matrix(1, -0.01, 0.01, 1, -2.62, 11.41)"/><ellipse class="cls-8" cx="2012.53" cy="475.21" rx="9.66" ry="5.48" transform="translate(1469.08 2470.4) rotate(-88.05)"/><ellipse class="cls-8" cx="2020.2" cy="467.48" rx="8.23" ry="6.43" transform="translate(1389.53 2442.83) rotate(-85.32)"/><path class="cls-6" d="M1104.51,497.47c3.77,10.13-4.47,33.49-2.48,41.33,4.24,16.63,18.48,34,31.46,19.16,9.11-10.39,5-57.94-6.69-86.2-15.62-37.75-37.36-60.09-43.55-48.91-7.58,13.69-10,38.58-2.19,51.7C1086,482.83,1099.59,484.23,1104.51,497.47Z"/><path class="cls-6" d="M1159.52,434c3.77,10.14,20,5.21,23.37,11.53,7.06,13.37,10,43.72-3.78,59.8-9.68,11.27-33.44-13.61-43.42-43.84-13.34-40.38-15.63-85.16-6.83-91.27,10.77-7.46,25.26-2.07,28.83,15.93C1159.94,397.52,1154.6,420.79,1159.52,434Z"/><ellipse class="cls-7" cx="1130.58" cy="464.42" rx="11.66" ry="47.93" transform="translate(-88.78 380.4) rotate(-18.39)"/><line x1="1102.45" y1="405.65" x2="1114.04" y2="419.93"/><line x1="1113.21" y1="393.07" x2="1116.46" y2="417.31"/><ellipse cx="1115.1" cy="427" rx="1.31" ry="2.31"/><ellipse cx="1119.49" cy="421.93" rx="1.31" ry="2.31"/><ellipse class="cls-8" cx="1090.49" cy="462.41" rx="9.26" ry="5.15" transform="translate(487.25 1481.77) rotate(-82.36)"/><ellipse class="cls-8" cx="1089.81" cy="452.14" rx="5.29" ry="9.03" transform="translate(-52.06 155.07) rotate(-7.95)"/><ellipse class="cls-8" cx="1094.2" cy="447.07" rx="4.81" ry="9.94" transform="translate(-9.07 22.88) rotate(-1.19)"/><ellipse class="cls-8" cx="1099.28" cy="452.28" rx="8.69" ry="5.49" transform="translate(523.61 1492.26) rotate(-83.4)"/><ellipse class="cls-8" cx="1098.52" cy="458.68" rx="5.4" ry="8.84" transform="translate(-50.74 148.3) rotate(-7.55)"/><ellipse class="cls-8" cx="1114.95" cy="528.18" rx="5.4" ry="8.84" transform="translate(-59.73 151.06) rotate(-7.55)"/><ellipse class="cls-8" cx="1119.34" cy="523.11" rx="5.03" ry="9.49" transform="translate(-53.06 133.18) rotate(-6.65)"/><ellipse class="cls-8" cx="1125.93" cy="515.51" rx="9.9" ry="4.82" transform="translate(563.78 1618.89) rotate(-87.6)"/><ellipse class="cls-8" cx="1128.05" cy="529.65" rx="5.4" ry="8.84" transform="translate(-59.81 152.8) rotate(-7.55)"/><ellipse class="cls-8" cx="1121.46" cy="537.25" rx="9.81" ry="4.87" transform="translate(508.61 1619.25) rotate(-86.07)"/><ellipse class="cls-8" cx="1146.92" cy="397.32" rx="9" ry="5.67" transform="translate(540.04 1448.51) rotate(-79.11)"/><ellipse class="cls-8" cx="1141.7" cy="392.3" rx="5.06" ry="10.09"/><ellipse class="cls-8" cx="1137" cy="397.72" rx="5.67" ry="9" transform="translate(-28.6 93.85) rotate(-4.67)"/><ellipse class="cls-8" cx="1137.53" cy="408.16" rx="9.61" ry="5.32" transform="translate(527.5 1451.44) rotate(-79.42)"/><ellipse class="cls-8" cx="1141.31" cy="409.32" rx="10.15" ry="5.03" transform="translate(701.58 1539.26) rotate(-88.47)"/><ellipse class="cls-8" cx="1171.38" cy="463.09" rx="10.15" ry="5.03" transform="translate(677.09 1621.65) rotate(-88.47)"/><ellipse class="cls-8" cx="1166.68" cy="468.51" rx="5.23" ry="9.77" transform="translate(-25.9 70.51) rotate(-3.42)"/><ellipse class="cls-8" cx="1159.63" cy="476.64" rx="5.88" ry="8.68" transform="translate(-1.74 4.26) rotate(-0.21)"/><ellipse class="cls-8" cx="1166.3" cy="485.53" rx="10.15" ry="5.03" transform="translate(649.71 1638.41) rotate(-88.47)"/><ellipse class="cls-8" cx="1173.35" cy="477.4" rx="8.64" ry="5.91" transform="translate(635.42 1624.27) rotate(-87.01)"/><path class="cls-9" d="M1785.42,582.28c-2.06,8.19-14.79,8.69-16.82,14-4.3,11.32-4.15,33.77,7.59,41.86,8.24,5.68,24.3-18,29.49-42.13,6.93-32.21,5.13-64.83-2-67-8.76-2.68-19.33,4.78-20.61,18.54C1782.22,556.26,1788.11,571.59,1785.42,582.28Z"/><path class="cls-9" d="M1835.42,616.27c-2.06,8.19,7.48,23.84,6.67,30-1.74,13.06-11.84,28.55-24.44,20.09-8.84-5.94-10.63-41.77-3.89-64.83,9-30.8,24.88-51.4,31.35-44.32,7.9,8.65,12.7,26.55,7.57,37.7C1849.44,602,1838.11,605.58,1835.42,616.27Z"/><ellipse class="cls-7" cx="1810.25" cy="597.18" rx="37.22" ry="9.03" transform="translate(826.95 2230.2) rotate(-77.2)"/><line x1="1819.23" y1="542.9" x2="1819.29" y2="561.24"/><line x1="1829.07" y1="549.48" x2="1821.42" y2="562.81"/><ellipse cx="1817.11" cy="565.25" rx="1.07" ry="1.7" transform="translate(-19.17 65.79) rotate(-2.06)"/><ellipse cx="1821.1" cy="567.96" rx="1.07" ry="1.7" transform="translate(-19.27 65.93) rotate(-2.06)"/><ellipse class="cls-8" cx="1792.09" cy="552.89" rx="4.55" ry="6.32" transform="translate(-62.71 275.45) rotate(-8.64)"/><ellipse class="cls-8" cx="1795.65" cy="548" rx="3.92" ry="7.33" transform="translate(-12.3 42.04) rotate(-1.34)"/><ellipse class="cls-8" cx="1799.65" cy="550.71" rx="6.73" ry="4.27" transform="translate(1010 2259.07) rotate(-82.21)"/><ellipse class="cls-8" cx="1800.07" cy="558.32" rx="4.28" ry="6.71" transform="translate(-76.58 384.61) rotate(-11.94)"/><ellipse class="cls-8" cx="1797.29" cy="560.09" rx="3.92" ry="7.33" transform="translate(-28.49 101.33) rotate(-3.2)"/><ellipse class="cls-8" cx="1778.72" cy="606.02" rx="3.92" ry="7.33" transform="translate(-31.09 100.36) rotate(-3.2)"/><ellipse class="cls-8" cx="1782.71" cy="608.74" rx="7.21" ry="3.98" transform="translate(1079.88 2356.49) rotate(-86.95)"/><ellipse class="cls-8" cx="1788.7" cy="612.81" rx="6.41" ry="4.48" transform="translate(980.63 2322.2) rotate(-83.61)"/><ellipse class="cls-8" cx="1784.35" cy="620.83" rx="3.92" ry="7.33" transform="translate(-31.91 100.7) rotate(-3.2)"/><ellipse class="cls-8" cx="1778.36" cy="616.76" rx="6.3" ry="4.56" transform="matrix(0.07, -1, 1, 0.07, 1041.91, 2348.98)"/><ellipse class="cls-8" cx="1843.37" cy="587.76" rx="4.48" ry="6.85" transform="translate(-90.76 536.71) rotate(-16.17)"/><ellipse class="cls-8" cx="1842.81" cy="580.06" rx="6.86" ry="4.48" transform="translate(1095.4 2361.57) rotate(-84.71)"/><ellipse class="cls-8" cx="1838.54" cy="577.15" rx="4.13" ry="7.43" transform="translate(-44.36 167.26) rotate(-5.15)"/><ellipse class="cls-8" cx="1834.83" cy="581.95" rx="4.77" ry="6.44" transform="translate(-85.68 451.89) rotate(-13.72)"/><ellipse class="cls-8" cx="1836.18" cy="586.53" rx="6.72" ry="4.58" transform="translate(1074.3 2357.15) rotate(-84.43)"/><ellipse class="cls-8" cx="1830.01" cy="640.89" rx="6.72" ry="4.58" transform="translate(1014.62 2400.1) rotate(-84.43)"/><ellipse class="cls-8" cx="1825.74" cy="637.99" rx="7.18" ry="4.28" transform="translate(1112.23 2435.56) rotate(-87.61)"/><ellipse class="cls-8" cx="1819.33" cy="633.63" rx="4.17" ry="7.36" transform="translate(-80.82 316.02) rotate(-9.71)"/><ellipse class="cls-8" cx="1819.11" cy="644.46" rx="6.72" ry="4.58" transform="translate(1001.22 2392.47) rotate(-84.43)"/><ellipse class="cls-8" cx="1825.51" cy="648.82" rx="4.22" ry="7.28" transform="translate(-93.35 381.53) rotate(-11.64)"/><path class="cls-9" d="M1478.86,441.24c-4.18,6.64-15.37-3.58-18.69.17-7,7.94-13.46,31-5.63,49.18,5.5,12.74,26.35,2.06,37.88-18.2,15.4-27.07,23.36-61.92,17.78-70.19-6.81-10.12-18.16-11.41-23.29,1.57C1483.67,412,1484.31,432.59,1478.86,441.24Z"/><path class="cls-9" d="M1512.33,518.12c-4.18,6.64-.46,30.68-3,36.29-5.32,11.89-18.6,19.2-27.06-.07-5.94-13.52,3-51.65,15.53-69.52,16.79-23.89,36.58-31.55,40.13-18.87,4.33,15.51,3.27,37.84-4.43,44.91C1528.67,515.33,1517.78,509.47,1512.33,518.12Z"/><ellipse class="cls-7" cx="1496.05" cy="477.4" rx="35.3" ry="10.78" transform="translate(373.13 1575.18) rotate(-62.05)"/><line x1="1519.68" y1="429.5" x2="1514.38" y2="448.3"/><line x1="1526.3" y1="444.52" x2="1515.78" y2="451.7"/><ellipse cx="1511.32" cy="450.56" rx="1.04" ry="1.99" transform="translate(-2.69 9.12) rotate(-0.35)"/><ellipse cx="1513.99" cy="456.7" rx="1.04" ry="1.99" transform="translate(-2.72 9.13) rotate(-0.35)"/><ellipse class="cls-8" cx="1493.21" cy="416.83" rx="4.14" ry="7.87" transform="translate(-40.11 188) rotate(-7.11)"/><ellipse class="cls-8" cx="1497.74" cy="414.84" rx="8.3" ry="3.92" transform="translate(966.78 1875.45) rotate(-85.5)"/><ellipse class="cls-8" cx="1500.41" cy="420.98" rx="7.34" ry="4.43" transform="translate(994.81 1895.03) rotate(-86.74)"/><ellipse class="cls-8" cx="1498.56" cy="429.11" rx="3.9" ry="8.33" transform="translate(-31.17 129.55) rotate(-4.9)"/><ellipse class="cls-8" cx="1495.63" cy="428.57" rx="8.42" ry="3.87" transform="translate(980.4 1896.6) rotate(-86.65)"/><ellipse class="cls-8" cx="1466.12" cy="459.86" rx="8.42" ry="3.87" transform="translate(921.38 1896.6) rotate(-86.65)"/><ellipse class="cls-8" cx="1468.79" cy="466" rx="7.93" ry="4.11" transform="translate(843.87 1874.53) rotate(-83.68)"/><ellipse class="cls-8" cx="1472.8" cy="475.21" rx="4.46" ry="7.29" transform="translate(-16.82 55.71) rotate(-2.15)"/><ellipse class="cls-8" cx="1466.68" cy="479.73" rx="8.42" ry="3.87" transform="matrix(0.06, -1, 1, 0.06, 902.08, 1915.88)"/><ellipse class="cls-8" cx="1462.67" cy="470.52" rx="4.42" ry="7.36" transform="translate(-31.65 113.05) rotate(-4.38)"/><ellipse class="cls-8" cx="1527.54" cy="495.7" rx="3.99" ry="8.72" transform="translate(-50.02 195.03) rotate(-7.19)"/><ellipse class="cls-8" cx="1529.3" cy="487.35" rx="7.69" ry="4.53" transform="translate(1013.46 2007.28) rotate(-88.93)"/><ellipse class="cls-8" cx="1526.44" cy="480.79" rx="8.7" ry="4" transform="translate(1008.5 1995.03) rotate(-88.6)"/><ellipse class="cls-8" cx="1521.83" cy="482.56" rx="4.22" ry="8.24" transform="translate(-58.8 257.95) rotate(-9.51)"/><ellipse class="cls-8" cx="1521.66" cy="488.38" rx="4.57" ry="7.61" transform="translate(-7.92 25.42) rotate(-0.95)"/><ellipse class="cls-8" cx="1500.45" cy="538.72" rx="4.57" ry="7.61" transform="translate(-8.77 25.07) rotate(-0.95)"/><ellipse class="cls-8" cx="1497.59" cy="532.16" rx="8.04" ry="4.33" transform="translate(873.87 1993.99) rotate(-86.46)"/><ellipse class="cls-8" cx="1493.3" cy="522.31" rx="3.91" ry="8.9" transform="translate(-12.52 37.26) rotate(-1.42)"/><ellipse class="cls-8" cx="1489.95" cy="533.18" rx="4.57" ry="7.61" transform="translate(-8.68 24.9) rotate(-0.95)"/><ellipse class="cls-8" cx="1494.24" cy="543.03" rx="3.9" ry="8.93" transform="translate(-24.83 73.93) rotate(-2.81)"/><polygon class="cls-10" points="2526.13 1016.6 2510.79 1013.98 2531.41 612.14 2547.93 591.64 2526.13 1016.6"/><polygon class="cls-11" points="2446.23 993.56 2343.05 989.03 2344.27 896.28 2447.45 900.81 2446.23 993.56"/><polygon class="cls-12" points="2725.91 970.12 2324.79 1003.09 2323.89 966.58 2506.93 968.82 2716.43 944.45 2725.91 970.12"/><path class="cls-13" d="M2326.19,998.8c5.56,31.71,18.89,90.44,50.32,130.26,63.12,80,144.57,14.43,164.82-1.87,0,0,50.81-40.89,85.75-128.39,2.33-5.81,4.11-12.18,4.11-12.18.36-1.28,2.09-7.47,2-8.43-.17-4.26-38.95-3.92-150.52,5.73C2441.21,987.51,2389.62,992.39,2326.19,998.8Z"/><polyline class="cls-14" points="2334.4 1037.23 2476.12 1025.04 2619.89 1016.61"/><line class="cls-14" x1="2347.75" y1="1076.59" x2="2599.35" y2="1055.03"/><line class="cls-14" x1="2368.29" y1="1117.82" x2="2573.68" y2="1092.52"/><line class="cls-14" x1="2394.99" y1="1148.74" x2="2544.93" y2="1124.38"/><ellipse class="cls-15" cx="2398.84" cy="1065.34" rx="22.59" ry="41.7"/><ellipse class="cls-16" cx="2539.53" cy="1059.72" rx="22.59" ry="41.7"/><path class="cls-17" d="M2448.91,760.78c-38.74-11.57,30.81-34.93,30.81-73.1,0-30.37-86.47-56.34-48.78-72.16,11.49-4.82,119.39,18.78,120.14,37.74,1,25.52-.27,53-3.86,73.55C2543.9,745.84,2459.8,764,2448.91,760.78Z"/><path class="cls-18" d="M2892.59,1040.73l-73.33,69.17c-10.36,9.76-22.89,15-35.76,15H2735c-29.81,0-57.9-17.88-75.85-48.3l-3.78-6.4c-11.64-19.73-30.88-30.13-50-26a159.34,159.34,0,0,0-17.39,4.83l-52.64,17.88c-27.85,19.1-60.62,22.72-90.63,10l-85.5-36.22h0a168.3,168.3,0,0,1-68.2,26.2h0c-12.69,1.81-24.1,10.78-31,24.53-11.15,22.31-31.86,35.1-53.4,30.87h0c-14.65,29.19-22.43,63.14-22.43,97.81v17.06h708.36Z"/><path class="cls-19" d="M2892.59,1110.9,2819.82,1143c-10.27,4.54-22.7,7-35.47,7h-48.16c-29.58,0-57.44-8.3-75.26-22.42l-3.75-3c-11.55-9.16-30.64-14-49.56-12.07q-8.7.87-17.26,2.24l-52.23,8.3c-27.63,8.87-60.15,10.55-89.92,4.65l-84.85-16.82h0a301.71,301.71,0,0,1-67.67,12.16h0c-12.58.85-23.91,5-30.73,11.39-11.06,10.36-31.61,16.3-53,14.33h0c-14.53,13.56-22.26,29.32-22.26,45.42v7.92h702.87Z"/><path class="cls-7" d="M2892.59,1146l-72.2,14.82a179.71,179.71,0,0,1-35.2,3.23h-47.77c-29.35,0-57-3.84-74.68-10.35l-3.72-1.37c-11.47-4.23-30.4-6.46-49.18-5.58q-8.62.42-17.12,1l-51.82,3.83c-27.42,4.09-59.68,4.87-89.22,2.15L2367.5,1146h0a616.47,616.47,0,0,1-67.14,5.62h0c-12.49.39-23.73,2.31-30.5,5.25-11,4.78-31.36,7.53-52.56,6.62h0c-14.42,6.25-22.09,13.53-22.09,21v3.65h697.38Z"/><rect class="cls-20" x="1959.66" y="570.59" width="263.68" height="415.56"/><path class="cls-21" d="M2097,642.18a30.85,30.85,0,0,0-9.34-8.4c-3.51-1.93-12.42-6.84-18.11.24-4.86,6.05-3.17,15.61-7.62,19-4.21,3.2-7.17-4.26-11.88-2.07-7.34,3.41-7.07,14.34-3.66,19.69,3.09,4.84,5.29,3.28,17.54,6.43,5.35,1.37,5.55,4.49,11.61,5.4,6.36,1,6.95,7.7,11.6,5.4,9.11-4.5,11.9-4.79,16.41-3.92,6.59,1.27,11.5-2.44,14.42-4.27,3.89-2.42,6.47-22.43.82-33.72C2114.23,636.93,2105.13,634.86,2097,642.18Z"/><path class="cls-21" d="M2015.06,610.46a28.94,28.94,0,0,1,11.87-4.92c4.25-.67,15-2.35,20.21,6.52,4.41,7.56.91,16.27,5.32,21.11,4.16,4.58,8.73-1.65,13.63,2.12,7.63,5.85,5.49,16.39.78,20.4-4.28,3.65-6.48,1.36-20.71.17-6.21-.51-7,2.44-13.89,1.23-7.28-1.27-9.08,5.07-13.89,1.23-9.42-7.54-12.5-8.8-17.69-9.51-7.58-1-12.44-6.37-15.41-9.16-3.94-3.7-3.45-24,4.78-33.07C1996.64,599.36,2007.16,600.51,2015.06,610.46Z"/><path class="cls-21" d="M2143.09,697a34.5,34.5,0,0,1,14.12-5.71c5.06-.76,17.89-2.7,24.06,7.68,5.26,8.87-.05,8.81,5.2,14.48,5,5.36,4.92,3.27,10.77,7.69,9.08,6.88-.12,30.49-17.07,29.06-7.39-.63-8.27,2.83-16.53,1.39-8.66-1.52-19.84,4.71-25.57.19-11.23-8.85-4.59-6.84-10.77-7.7-9-1.24-17.87-27.88-8.1-38.4C2127,697.24,2133.67,685.32,2143.09,697Z"/><path class="cls-21" d="M2115.43,724.33a29.13,29.13,0,0,1,12.42-6.39c4.43-.94,15.68-3.32,20.93,7.41,4.49,9.16-.15,9.25,4.36,15,4.27,5.5,4.26,3.3,9.31,7.79,7.86,7-.51,32-15.31,31-6.45-.46-7.27,3.2-14.47,1.91-7.56-1.35-17.42,5.49-22.37.91-9.7-9-3.92-7.06-9.31-7.78-7.88-1.07-15.26-28.8-6.57-40.11C2101.37,725,2107.34,712.34,2115.43,724.33Z"/><line class="cls-20" x1="2091.5" y1="580.85" x2="2091.5" y2="981.02"/><line class="cls-22" x1="1966.79" y1="780.94" x2="2216.22" y2="780.94"/><line class="cls-22" x1="1966.79" y1="888.68" x2="2084.38" y2="888.68"/><line class="cls-22" x1="2100.41" y1="888.68" x2="2214.44" y2="888.68"/><line class="cls-23" x1="1972.38" y1="969.2" x2="2207.47" y2="969.2"/><line class="cls-23" x1="2080.39" y1="587.55" x2="2079.81" y2="969.98"/><rect class="cls-20" x="1165.68" y="570.59" width="263.68" height="415.56"/><path class="cls-21" d="M1303,642.18a30.73,30.73,0,0,0-9.34-8.4c-3.51-1.93-12.42-6.84-18.11.24-4.85,6.05-3.17,15.61-7.62,19-4.21,3.2-7.16-4.26-11.88-2.07-7.33,3.41-7.07,14.34-3.66,19.69,3.09,4.84,5.29,3.28,17.55,6.43,5.34,1.37,5.54,4.49,11.6,5.4,6.37,1,7,7.7,11.61,5.4,9.1-4.5,11.89-4.79,16.4-3.92,6.59,1.27,11.5-2.44,14.43-4.27,3.89-2.42,6.46-22.43.81-33.72C1320.24,636.93,1311.15,634.86,1303,642.18Z"/><path class="cls-21" d="M1221.08,610.46a28.89,28.89,0,0,1,11.86-4.92c4.25-.67,15-2.35,20.21,6.52,4.41,7.56.92,16.27,5.32,21.11,4.17,4.58,8.73-1.65,13.64,2.12,7.62,5.85,5.48,16.39.77,20.4-4.28,3.65-6.47,1.36-20.71.17-6.21-.51-7,2.44-13.89,1.23-7.28-1.27-9.08,5.07-13.89,1.23-9.42-7.54-12.49-8.8-17.68-9.51-7.59-1-12.45-6.37-15.41-9.16-4-3.7-3.45-24,4.77-33.07C1202.65,599.36,1213.17,600.51,1221.08,610.46Z"/><path class="cls-21" d="M1349.11,697a34.39,34.39,0,0,1,14.11-5.71c5.06-.76,17.9-2.7,24.06,7.68,5.26,8.87,0,8.81,5.2,14.48,5,5.36,4.93,3.27,10.77,7.69,9.09,6.88-.12,30.49-17.06,29.06-7.39-.63-8.28,2.83-16.53,1.39-8.67-1.52-19.85,4.71-25.58.19-11.22-8.85-4.59-6.84-10.77-7.7-9-1.24-17.87-27.88-8.09-38.4C1333,697.24,1339.69,685.32,1349.11,697Z"/><path class="cls-21" d="M1321.44,724.33a29.19,29.19,0,0,1,12.42-6.39c4.43-.94,15.68-3.32,20.94,7.41,4.48,9.16-.16,9.25,4.35,15,4.27,5.5,4.27,3.3,9.32,7.79,7.85,7-.52,32-15.31,31-6.46-.46-7.28,3.2-14.48,1.91-7.55-1.35-17.41,5.49-22.36.91-9.7-9-3.93-7.06-9.32-7.78-7.87-1.07-15.25-28.8-6.57-40.11C1307.38,725,1313.36,712.34,1321.44,724.33Z"/><line class="cls-20" x1="1297.52" y1="580.85" x2="1297.52" y2="981.02"/><line class="cls-22" x1="1172.8" y1="780.94" x2="1422.23" y2="780.94"/><line class="cls-22" x1="1172.8" y1="888.68" x2="1290.39" y2="888.68"/><line class="cls-22" x1="1306.43" y1="888.68" x2="1420.45" y2="888.68"/><line class="cls-23" x1="1178.39" y1="969.2" x2="1413.48" y2="969.2"/><line class="cls-23" x1="1286.4" y1="587.55" x2="1285.83" y2="969.98"/><ellipse class="cls-24" cx="2030.41" cy="1419.64" rx="232.52" ry="119.28"/><ellipse class="cls-24" cx="2384.07" cy="1402.66" rx="211.69" ry="136.83"/></g></svg>