<svg xmlns="http://www.w3.org/2000/svg" viewBox="0 0 265 274"><defs><style>.cls-1{fill:#c75461;}.cls-2{fill:#e2af78;}.cls-3{fill:#a2d18a;}.cls-4{fill:#dba046;}.cls-5{fill:#805b34;}.cls-6{fill:#deaee0;}.cls-7{fill:#94a9dc;}.cls-8{fill:#dac998;stroke:#754618;stroke-miterlimit:10;stroke-width:2px;}.cls-9{fill:#d687d0;}.cls-10{fill:#aaded8;}.cls-11{fill:#a8e06d;}.cls-12{fill:#ce3d60;}.cls-13{fill:#fff;}</style></defs><title>Игровая</title><g id="игрушки"><path class="cls-1" d="M63.18,134q-.09-16.66-.19-33.32A24.23,24.23,0,0,0,56.08,119,22.46,22.46,0,0,0,63.18,134Z"/><rect class="cls-2" x="66.57" y="60.49" width="3.55" height="40.25" rx="0.34" ry="0.34"/><rect class="cls-3" x="61.84" y="92.01" width="55.16" height="25.44"/><rect class="cls-4" x="61.84" y="117.45" width="55.16" height="25.44"/><rect class="cls-5" x="117.01" y="123.9" width="4.53" height="10.25"/><rect class="cls-6" x="121.34" y="92.01" width="55.16" height="25.44"/><rect class="cls-7" x="121.34" y="117.45" width="55.16" height="25.44"/><ellipse class="cls-8" cx="132.57" cy="143.08" rx="8.08" ry="16.52"/><ellipse class="cls-9" cx="132.57" cy="143.08" rx="1.35" ry="2.75"/><ellipse class="cls-8" cx="165.47" cy="143.08" rx="8.08" ry="16.52"/><ellipse class="cls-9" cx="165.47" cy="143.08" rx="1.35" ry="2.75"/><rect class="cls-5" x="176.5" y="124.28" width="4.53" height="10.25"/><rect class="cls-10" x="180.84" y="92.39" width="55.16" height="25.44"/><rect class="cls-11" x="180.84" y="117.83" width="55.16" height="25.44"/><ellipse class="cls-8" cx="192.07" cy="143.46" rx="8.08" ry="16.52"/><ellipse class="cls-9" cx="192.07" cy="143.46" rx="1.35" ry="2.75"/><ellipse class="cls-8" cx="224.97" cy="143.46" rx="8.08" ry="16.52"/><ellipse class="cls-9" cx="224.97" cy="143.46" rx="1.35" ry="2.75"/><ellipse class="cls-8" cx="104.79" cy="143.08" rx="8.08" ry="16.52"/><ellipse class="cls-9" cx="104.79" cy="143.08" rx="1.35" ry="2.75"/><ellipse class="cls-8" cx="73.86" cy="142.7" rx="8.08" ry="16.52"/><ellipse class="cls-9" cx="73.86" cy="142.7" rx="1.35" ry="2.75"/><rect class="cls-12" x="89.62" y="51" width="27.58" height="41.01"/><rect class="cls-13" x="95.73" y="60.49" width="18.12" height="27.34"/></g></svg>