<svg xmlns="http://www.w3.org/2000/svg" viewBox="0 0 265 465"><defs><style>.cls-1,.cls-14,.cls-15{fill:none;stroke:#ccbba6;}.cls-1,.cls-10,.cls-11,.cls-12,.cls-14,.cls-15,.cls-2,.cls-3,.cls-4,.cls-5,.cls-6,.cls-7,.cls-8,.cls-9{stroke-miterlimit:10;}.cls-1,.cls-11{stroke-width:5px;}.cls-2{fill:#99a1bf;}.cls-2,.cls-3,.cls-4,.cls-5,.cls-6,.cls-7{stroke:#6d7284;stroke-width:0.5px;}.cls-3{fill:#bc99ab;}.cls-4{fill:#99bca3;}.cls-5{fill:#adaed1;}.cls-6{fill:#d4a1bf;}.cls-7{fill:#99bbbc;}.cls-10,.cls-11,.cls-12,.cls-16,.cls-8,.cls-9{fill:#fff;}.cls-11,.cls-8{stroke:#c2a8cc;}.cls-10,.cls-12,.cls-8,.cls-9{stroke-width:4px;}.cls-9{stroke:#a7b3ce;}.cls-10{stroke:#a8ccb2;}.cls-12{stroke:#99bca3;}.cls-13{fill:#b5aa8f;}.cls-14{stroke-width:9px;}.cls-15{stroke-width:7px;}</style></defs><title>Игровая</title><g id="шкаф"><rect class="cls-1" x="62.19" y="118" width="138.99" height="323.93"/><polygon class="cls-2" points="99.19 191.07 89.37 193.8 78.24 139.9 88.05 137.17 99.19 191.07"/><polygon class="cls-3" points="142.83 191.07 133.01 193.8 122.89 144.78 132.7 142.05 142.83 191.07"/><polygon class="cls-4" points="153.69 191.07 143.88 193.8 134.12 146.54 143.93 143.81 153.69 191.07"/><polygon class="cls-5" points="78.63 193.33 68.54 193.38 68.33 139.89 78.42 139.84 78.63 193.33"/><polygon class="cls-6" points="111.54 193.16 101.44 193.21 101.25 143.07 111.34 143.02 111.54 193.16"/><polygon class="cls-7" points="121.86 193.24 111.77 193.3 111.57 141.66 121.66 141.61 121.86 193.24"/><polygon class="cls-2" points="89.84 311.15 82.89 313.23 75.01 272.08 81.96 270 89.84 311.15"/><polygon class="cls-3" points="120.72 311.15 113.78 313.23 106.61 275.81 113.56 273.73 120.72 311.15"/><polygon class="cls-4" points="128.41 311.15 121.47 313.23 114.56 277.15 121.5 275.07 128.41 311.15"/><polygon class="cls-5" points="75.29 312.87 68.15 312.91 68 272.08 75.14 272.04 75.29 312.87"/><polygon class="cls-6" points="98.58 312.74 91.44 312.78 91.3 274.5 98.44 274.46 98.58 312.74"/><polygon class="cls-7" points="105.89 312.8 98.75 312.84 98.6 273.43 105.74 273.39 105.89 312.8"/><rect class="cls-8" x="70.69" y="246.32" width="36.04" height="8.67"/><rect class="cls-9" x="70.69" y="224.36" width="36.04" height="8.67"/><rect class="cls-10" x="74.04" y="235.33" width="36.04" height="8.67"/><rect class="cls-8" x="117.68" y="246.92" width="36.04" height="8.67"/><rect class="cls-9" x="117.68" y="224.97" width="36.04" height="8.67"/><rect class="cls-10" x="121.03" y="235.94" width="36.04" height="8.67"/><rect class="cls-11" x="149.26" y="303.67" width="36.04" height="8.67"/><rect class="cls-9" x="149.26" y="281.72" width="36.04" height="8.67"/><rect class="cls-12" x="152.62" y="292.68" width="36.04" height="8.67"/><rect class="cls-13" x="63" y="319" width="70" height="121"/><rect class="cls-13" x="135" y="319" width="66" height="121"/><line class="cls-14" x1="63.1" y1="262.17" x2="202.09" y2="262.69"/><line class="cls-15" x1="64.01" y1="317.63" x2="203" y2="318.15"/><line class="cls-15" x1="62.19" y1="198.11" x2="201.18" y2="198.64"/><ellipse class="cls-16" cx="113.38" cy="376.44" rx="4.3" ry="4.99"/><ellipse class="cls-16" cx="149.72" cy="376.44" rx="4.3" ry="4.99"/></g></svg>