<svg id="Слой_1" data-name="Слой 1" xmlns="http://www.w3.org/2000/svg" viewBox="0 0 539 747"><defs><style>.cls-1{fill:#e5ba9c;}.cls-2{fill:#f7f2f9;}.cls-3{fill:#7c7c7a;}.cls-4{fill:#c2a8cc;}.cls-5{fill:#9ce2e0;}.cls-6{fill:#ccb8aa;}.cls-7{fill:#aaccae;}.cls-8{fill:#9c9ce2;}.cls-9{fill:#f2edb1;}</style></defs><title>Игровая</title><path class="cls-1" d="M334,504.36l-1.69-.37a25.59,25.59,0,0,1-19.64-30.59l63.83-277.76a26,26,0,0,1,31.1-19.31l1.69.38a25.57,25.57,0,0,1,19.63,30.59L365.06,485.05A26,26,0,0,1,334,504.36Z"/><path class="cls-2" d="M374.14,205.73l13.09-56.95c1.27-5.56,16.49-34.48,34-30.6l3.5.78c16.16,9.61,16.24,35.91,15,41.47l-13.09,57C425.28,223,372.86,211.3,374.14,205.73Z"/><path class="cls-3" d="M388.58,142.9S413.94,104,421.82,87.6a5.38,5.38,0,0,1,6-2.91h0a5.92,5.92,0,0,1,4.62,5c2.27,18.53,8.55,64.83,8.55,64.83C440.13,158.35,387.7,146.7,388.58,142.9Z"/><path class="cls-4" d="M188.19,507.35l-1.7.32a26,26,0,0,1-30.34-20.45L103,207.31a25.6,25.6,0,0,1,20.78-29.84l1.71-.32A26,26,0,0,1,155.8,197.6L209,477.51A25.6,25.6,0,0,1,188.19,507.35Z"/><path class="cls-2" d="M104.9,217.47,94,160.08c-1.06-5.61,1.27-38.09,18.88-41.33l3.52-.65c18.71,2.54,29.37,26.66,30.43,32.27l10.91,57.4C158.79,213.37,106,223.08,104.9,217.47Z"/><path class="cls-3" d="M92.87,154.15s7.65-45.56,8.27-63.72a5.29,5.29,0,0,1,4.35-5h0a6,6,0,0,1,6.26,2.82c9.55,16.13,33.95,56.2,33.95,56.2C146.43,148.27,93.6,158,92.87,154.15Z"/><path class="cls-5" d="M292.57,490.73l-18.06-.05A17.76,17.76,0,0,1,256.72,473l.89-300.56a17.77,17.77,0,0,1,17.9-17.63l18.06.05a17.76,17.76,0,0,1,17.79,17.73l-.9,300.56A17.75,17.75,0,0,1,292.57,490.73Z"/><path class="cls-2" d="M257.56,190.63l.17-58.39c0-5.7,8.48-37.19,26.39-37.13h3.58c17.9,5.92,23.8,31.57,23.78,37.27l-.17,58.4C311.29,196.49,257.54,196.33,257.56,190.63Z"/><path class="cls-3" d="M257.75,126.21S273.91,82.85,278,65.13A5.33,5.33,0,0,1,283.19,61h0a6,6,0,0,1,5.62,3.92c6.32,17.6,22.69,61.45,22.69,61.45C311.49,130.26,257.74,130.11,257.75,126.21Z"/><path class="cls-6" d="M264.48,517.58l-1.71.32a26,26,0,0,1-30.34-20.45L179.25,217.54A25.6,25.6,0,0,1,200,187.7l1.7-.32a26,26,0,0,1,30.34,20.45l53.18,279.91A25.6,25.6,0,0,1,264.48,517.58Z"/><path class="cls-2" d="M181.18,227.71l-10.9-57.4c-1.07-5.61,1.27-38.09,18.88-41.33l3.52-.64C211.39,130.87,222,155,223.11,160.6L234,218C235.08,223.6,182.25,233.31,181.18,227.71Z"/><path class="cls-3" d="M169.15,164.38s7.65-45.56,8.27-63.72a5.29,5.29,0,0,1,4.35-5h0A6,6,0,0,1,188,98.47c9.54,16.13,33.94,56.2,33.94,56.2C222.71,158.5,169.88,168.21,169.15,164.38Z"/><path class="cls-7" d="M268.48,105.65l1.63.58a25.46,25.46,0,0,1,15.74,32.69L188.38,407.06a26.12,26.12,0,0,1-33.24,15.48l-1.63-.58a25.46,25.46,0,0,1-15.74-32.69l97.47-268.14A26.13,26.13,0,0,1,268.48,105.65Z"/><path class="cls-2" d="M191.92,397.32l-20,55c-2,5.37-20.61,32.27-37.48,26.34l-3.38-1.19c-14.85-11.46-11.7-37.58-9.75-42.95l20-55C143.26,374.16,193.87,392,191.92,397.32Z"/><path class="cls-3" d="M169.87,458s-30,35.57-39.79,50.95a5.39,5.39,0,0,1-6.32,2.17h0a5.89,5.89,0,0,1-4-5.54c0-18.66-.53-65.37-.53-65.37C120.6,436.52,171.21,454.32,169.87,458Z"/><path class="cls-1" d="M249.15,600l-18.06-.34a17.75,17.75,0,0,1-17.5-18l5.86-300.51a17.76,17.76,0,0,1,18.18-17.33l18.06.34a17.76,17.76,0,0,1,17.5,18l-5.86,300.5A17.76,17.76,0,0,1,249.15,600Z"/><path class="cls-2" d="M219.1,299.35,220.23,241c.12-5.7,9.09-37.05,27-36.71l3.58.07c17.8,6.21,23.27,31.95,23.16,37.65l-1.14,58.38C272.72,306.06,219,305.05,219.1,299.35Z"/><path class="cls-3" d="M220.35,234.94s16.88-43.1,21.22-60.75a5.35,5.35,0,0,1,5.29-4.05h0a6,6,0,0,1,5.56,4c6,17.7,21.67,61.8,21.67,61.8C274,239.85,220.28,238.83,220.35,234.94Z"/><path class="cls-8" d="M361.37,196.17l1.69.39a25.58,25.58,0,0,1,19.32,30.78L315.72,504.45a26,26,0,0,1-31.3,19l-1.68-.4a25.56,25.56,0,0,1-19.32-30.78l66.65-277.11A26,26,0,0,1,361.37,196.17Z"/><path class="cls-2" d="M318.14,494.39l-13.67,56.82c-1.34,5.55-16.85,34.32-34.28,30.26l-3.49-.81c-16.06-9.77-15.87-36.07-14.53-41.62l13.67-56.82C267.17,476.67,319.47,488.84,318.14,494.39Z"/><path class="cls-3" d="M303.06,557.08s-25.76,38.61-33.81,55a5.37,5.37,0,0,1-6,2.85h0a5.89,5.89,0,0,1-4.56-5.07c-2.09-18.55-7.89-64.91-7.89-64.91C251.67,541.12,304,553.29,303.06,557.08Z"/><path class="cls-9" d="M111.58,294.61H388.75a41.93,41.93,0,0,1,41.93,41.93V622a0,0,0,0,1,0,0H77a0,0,0,0,1,0,0V329.19A34.58,34.58,0,0,1,111.58,294.61Z"/></svg>