<svg xmlns="http://www.w3.org/2000/svg" viewBox="0 0 325 253"><defs><style>.cls-1{fill:#dbdba5;}.cls-2{fill:#d1cf8f;}.cls-3{fill:#cecca7;}.cls-4{fill:#e8e695;}.cls-5{fill:#ddd87f;}.cls-6{fill:#d3cc75;}.cls-7{fill:#e58d76;}.cls-8{fill:#ed9c80;}</style></defs><title>Игровая</title><g id="стол"><path class="cls-1" d="M94.75,164.29,100.44,143c1.58-5.92,5.08-11.69,10.36-17.08l12.33-12.6c0-2-2.59-2.6-6.55-2.5h0c-4,.1-7.76,1.36-7.72,3.39l-12,12.07c-5.17,5.2-8.64,10.79-10.28,16.51l-6.22,21.83C80.42,166.67,94.8,166.31,94.75,164.29Z"/><path class="cls-2" d="M89.09,164.79l3-16.45a34,34,0,0,1,5.6-13.17l6.71-9.7c0-1.57-1.44-2-3.61-2h0c-2.18,0-4.26,1-4.23,2.58l-6.52,9.29a33.38,33.38,0,0,0-5.56,12.74L81.19,165C81.22,166.56,89.12,166.36,89.09,164.79Z"/><path class="cls-2" d="M63.39,153.94l4-16a29.83,29.83,0,0,1,7.32-12.86l8.73-9.49c0-1.53-1.84-2-4.65-1.9h0c-2.8.07-5.5,1-5.46,2.55l-8.49,9.09a29.59,29.59,0,0,0-7.27,12.44l-4.39,16.45C53.23,155.72,63.42,155.46,63.39,153.94Z"/><path class="cls-2" d="M112.24,153.67l-4.07-15.82a31.18,31.18,0,0,0-6.73-12.51l-7.77-9.08c0-1.53,1.47-2,3.84-2.1h0c2.37-.06,4.68.76,4.72,2.29l7.55,8.68a31,31,0,0,1,6.66,12.1l4.41,16.23C120.89,155,112.28,155.2,112.24,153.67Z"/><path class="cls-1" d="M136.47,162.54l-6.35-21A39.52,39.52,0,0,0,119.53,125l-12.27-12c-.05-2,2.35-2.72,6.1-2.82h0c3.75-.09,7.42,1,7.47,3l11.91,11.47a39,39,0,0,1,10.49,16l6.89,21.5C150.17,164.22,136.52,164.57,136.47,162.54Z"/><path class="cls-2" d="M136.47,162.54l-4.59-16.72a37.24,37.24,0,0,0-5.72-13.34l-6.58-9.7c0-1.63,1.22-2.17,3.21-2.22h0c2,0,3.95.84,4,2.47l6.39,9.28a36.36,36.36,0,0,1,5.67,12.9l3.79,17.29C142.66,164.12,136.51,164.17,136.47,162.54Z"/><path class="cls-2" d="M127.56,132.12h10.38c1.64,0-1.05-1.39-1.05-3.09h0a3,3,0,0,0-3-3.08h-6.36a3,3,0,0,0-3,3.08h0A3,3,0,0,0,127.56,132.12Z"/><rect class="cls-2" x="92.33" y="126.67" width="14.93" height="5.44" rx="0.68" ry="0.68" transform="translate(199.59 258.79) rotate(180)"/><path class="cls-1" d="M69.75,110.15h0c2.47,0,4.5-1.43,4.52-3.24L70.75,94.48a31.19,31.19,0,0,1,.17-17.78l3.75-12.35c0-1.81-2-3.31-4.45-3.34h0c-2.47,0-4.5,1.44-4.52,3.25L63.14,75.58A46.51,46.51,0,0,0,63,95.44l2.35,11.37C65.28,108.62,67.28,110.13,69.75,110.15Z"/><path class="cls-2" d="M65.73,115h0a1.51,1.51,0,0,0,.69-.24c1.63-1,2.4-4,1.82-6.64L65.73,96.58a5.86,5.86,0,0,1-.13-.75c-.89-6.87-1.4-18.35-.08-25.56l.85-10.21c-.05-2.17-1-3.92-2.07-3.89h0c-1.09,0-1.94,1.82-1.89,4L62,72a173.26,173.26,0,0,0,.21,25c0,.37,2.46,10.51,2.54,10.87l.51,2.37a8.6,8.6,0,0,1,.09,3.39C65.16,114.51,65.06,115,65.73,115Z"/><path class="cls-1" d="M91.38,118.75h0a4,4,0,0,0,4.42-3.52L94.11,99.89a51,51,0,0,1,2.24-21.47l4.81-14.6a4.05,4.05,0,0,0-3.59-4.42h0a4,4,0,0,0-4.42,3.52L89.53,76.38a76.14,76.14,0,0,0-2.5,24l.76,14A4.06,4.06,0,0,0,91.38,118.75Z"/><path class="cls-2" d="M87.55,118.3h0c1,.11,1.94-1.59,2.17-3.78l-.12-7.6c-1-7.5,1.05-30.51,4.18-37.35l1.3-6.45c.23-2.19-.37-4.07-1.34-4.17h0c-1-.11-1.94,1.59-2.17,3.78L89.18,76.32a172.51,172.51,0,0,0-2.5,24l-.47,13.81C86,116.32,86.59,118.19,87.55,118.3Z"/><path class="cls-1" d="M69.67,130.29h63.75c6.24,0,16.7-5,16.7-11.22h0a11.3,11.3,0,0,0-11.34-11.21H64.72a11.3,11.3,0,0,0-11.34,11.21h0C53.38,125.24,63.43,130.29,69.67,130.29Z"/><path class="cls-2" d="M61.76,107.88l21.37.19c1.49,0-2.82,5.81-3,8.67-.2,3.31-.24,2.3.83,6.26s2.8,7.16.67,7.14l-16.55,0a4.25,4.25,0,0,1-1.45-.25c-3.35-1.2-5.43-1.25-8.89-6.36a8.78,8.78,0,0,1-1.12-3.29h0a10.9,10.9,0,0,1-.18-2.74C53.91,110.7,57.14,107.84,61.76,107.88Z"/><path class="cls-3" d="M107.93,110.77l29.9,2.89c1.5,0,9.82,0,9.82-1.55a14.18,14.18,0,0,0-4.45-3.36,13.77,13.77,0,0,0-5.37-.74l-36.08-.12C100.25,107.89,106.44,110.77,107.93,110.77Z"/><rect class="cls-1" x="43.89" y="34.73" width="76.96" height="44.64" rx="5.55" ry="5.55" transform="translate(164.74 114.1) rotate(-180)"/><path class="cls-2" d="M43.89,58.84C45.2,71.91,57.7,80.15,62.74,80.15s-.62-8.18-.62-21.31,5-23.78,0-23.78S42.51,45,43.89,58.84Z"/><path class="cls-2" d="M54.27,76.14c0,.69,10.28,2.75,26.28,3,8.67.14,16.84.53,22.08-.22,5.61-.79,8-2.74,8.17-3,.63-1-2.51-.28-8.13.22a195.84,195.84,0,0,1-22.12.53C64.56,76.14,54.27,75.44,54.27,76.14Z"/><path class="cls-1" d="M232.39,175.34l-6.27-21.26c-1.75-5.91-5.61-11.68-11.43-17.07L201.07,124.4c.05-2,2.87-2.59,7.23-2.49h0c4.37.1,8.57,1.36,8.52,3.39l13.23,12.06c5.71,5.21,9.55,10.79,11.35,16.52l6.87,21.82C248.22,177.73,232.34,177.37,232.39,175.34Z"/><path class="cls-2" d="M238.65,175.85l-3.33-16.45a32.21,32.21,0,0,0-6.18-13.18l-7.4-9.69c0-1.58,1.59-2,4-2h0c2.4.06,4.7,1,4.66,2.59l7.2,9.28a31.83,31.83,0,0,1,6.14,12.74L247.37,176C247.33,177.61,238.61,177.42,238.65,175.85Z"/><path class="cls-2" d="M267,165l-4.42-16a29.48,29.48,0,0,0-8.09-12.86l-9.64-9.49c0-1.53,2-2,5.14-1.89h0c3.09.07,6.07,1,6,2.55l9.37,9.08a29.13,29.13,0,0,1,8,12.44l4.85,16.46C278.23,166.77,267,166.52,267,165Z"/><path class="cls-2" d="M213.09,164.73l4.49-15.82A30.44,30.44,0,0,1,225,136.39l8.58-9.07c0-1.53-1.63-2-4.24-2.11h0c-2.61-.06-5.17.77-5.21,2.29l-8.33,8.69a30.07,30.07,0,0,0-7.35,12.09l-4.87,16.23C203.55,166,213.05,166.26,213.09,164.73Z"/><path class="cls-1" d="M186.35,173.59l7-21c1.95-5.83,5.91-11.43,11.69-16.55l13.54-12c0-2-2.59-2.72-6.73-2.81h0c-4.14-.1-8.19,1-8.24,3l-13.15,11.46c-5.67,5-9.58,10.35-11.58,16l-7.61,21.5C171.23,175.28,186.3,175.62,186.35,173.59Z"/><path class="cls-2" d="M186.35,173.59l5.07-16.71a35.55,35.55,0,0,1,6.31-13.35l7.26-9.7c0-1.62-1.35-2.16-3.54-2.21h0c-2.2-.05-4.35.83-4.4,2.46L190,143.36a34.77,34.77,0,0,0-6.25,12.9l-4.19,17.29C179.52,175.18,186.31,175.22,186.35,173.59Z"/><path class="cls-2" d="M196.19,143.17H184.72c-1.8,0,1.16-1.39,1.16-3.08h0a3.2,3.2,0,0,1,3.29-3.09h7a3.2,3.2,0,0,1,3.28,3.09h0A3.2,3.2,0,0,1,196.19,143.17Z"/><rect class="cls-2" x="218.59" y="137.73" width="16.48" height="5.44" rx="0.68" ry="0.68"/><path class="cls-1" d="M260,121.21h0c-2.72,0-5-1.44-5-3.25l3.89-12.43a28.41,28.41,0,0,0-.19-17.77l-4.14-12.35c0-1.81,2.19-3.32,4.91-3.34h0c2.72,0,5,1.43,5,3.24l2.83,11.33a42.46,42.46,0,0,1,.21,19.86l-2.6,11.37C264.92,119.68,262.71,121.18,260,121.21Z"/><path class="cls-2" d="M264.42,126.05h0a1.7,1.7,0,0,1-.76-.24c-1.8-1-2.64-4-2-6.63l2.77-11.54c.06-.25.1-.5.14-.75,1-6.88,1.55-18.35.09-25.57l-.94-10.21c0-2.16,1.09-3.91,2.29-3.89h0c1.2,0,2.14,1.83,2.08,4l.48,11.87a156.26,156.26,0,0,1-.23,25c0,.38-2.71,10.51-2.8,10.87l-.56,2.38a7.72,7.72,0,0,0-.1,3.38C265.06,125.56,265.16,126.07,264.42,126.05Z"/><path class="cls-1" d="M236.11,129.81h0a4.33,4.33,0,0,1-4.88-3.53L233.1,111a46.32,46.32,0,0,0-2.47-21.47l-5.31-14.6a4.19,4.19,0,0,1,4-4.43h0A4.32,4.32,0,0,1,234.16,74l4,13.46a69.34,69.34,0,0,1,2.76,24l-.84,13.95A4.2,4.2,0,0,1,236.11,129.81Z"/><path class="cls-2" d="M240.34,129.36h0c-1.06.11-2.14-1.6-2.39-3.78l.13-7.6c1.16-7.51-1.15-30.52-4.61-37.36L232,74.17c-.25-2.18.42-4.06,1.48-4.17h0c1.07-.11,2.15,1.59,2.4,3.78l2.64,13.6a157.4,157.4,0,0,1,2.76,24l.51,13.81C242.07,127.37,241.41,129.25,240.34,129.36Z"/><path class="cls-1" d="M260.07,141.34H189.72c-6.88,0-18.44-5-18.44-11.21h0c0-6.17,5.64-11.22,12.52-11.22h81.74c6.88,0,12.52,5,12.52,11.22h0C278.06,136.3,267,141.34,260.07,141.34Z"/><path class="cls-2" d="M268.81,118.94l-23.59.18c-1.65,0,3.12,5.82,3.31,8.67.23,3.32.27,2.31-.91,6.26s-3.09,7.16-.75,7.14l18.27.05a5.25,5.25,0,0,0,1.61-.25c3.69-1.21,6-1.26,9.8-6.36a8.15,8.15,0,0,0,1.24-3.3h0a9.67,9.67,0,0,0,.2-2.74C277.47,121.76,273.9,118.9,268.81,118.94Z"/><path class="cls-3" d="M217.85,121.83l-33,2.88c-1.65,0-10.83,0-10.83-1.54a15.24,15.24,0,0,1,4.91-3.37,16.65,16.65,0,0,1,5.92-.74l39.82-.12C226.32,118.94,219.5,121.83,217.85,121.83Z"/><rect class="cls-1" x="203.59" y="45.79" width="84.94" height="44.64" rx="5.55" ry="5.55"/><path class="cls-2" d="M288.53,69.89c-1.45,13.07-15.24,21.32-20.8,21.32s.67-8.19.67-21.32-5.55-23.77,0-23.77S290.06,56.07,288.53,69.89Z"/><path class="cls-2" d="M277.08,87.19c0,.7-11.35,2.76-29,3-9.57.13-18.59.52-24.37-.22-6.19-.8-8.81-2.74-9-3-.69-1,2.78-.28,9,.22a237.89,237.89,0,0,0,24.41.54C265.72,87.2,277.08,86.5,277.08,87.19Z"/><g id="ножка"><path class="cls-4" d="M112.2,200.55h0c-4,0-4.94-2.8-4.94-6.71L104.86,145a7.25,7.25,0,0,1,7.34-7.11h0a7.26,7.26,0,0,1,7.35,7.11l-2.32,48.41C117.23,197.28,116.24,200.55,112.2,200.55Z"/><path class="cls-5" d="M105.73,163.43l-.87-20.08a7.34,7.34,0,0,1,7.34-7.3h0a7.35,7.35,0,0,1,7.35,7.3l-.84,19.22C118.71,166.58,106.64,165.7,105.73,163.43Z"/><path class="cls-6" d="M114.1,200.22h0c-2.27,0-1.9.75-1.9-1.45v-59.7c0-2.2-1.69-3,.59-3l3.54-1c1.86.17,3.39,3.48,3.27,4.36l-.11,1.2-2.28,53.55C117.21,196.38,116.37,200.22,114.1,200.22Z"/></g><g id="ножка-2" data-name="ножка"><path class="cls-4" d="M199.33,200.55h0c-4.09,0-5-3.11-5-7.47l-2.44-54.45a7.72,7.72,0,0,1,7.44-7.93h0a7.72,7.72,0,0,1,7.44,7.93l-2.35,53.92C204.42,196.9,203.42,200.55,199.33,200.55Z"/><path class="cls-5" d="M192.78,159.21l-.89-22.37c0-4.46,3.35-8.12,7.44-8.12h0c4.09,0,7.44,3.66,7.44,8.12l-.85,21.41C205.92,162.72,193.69,161.74,192.78,159.21Z"/><path class="cls-6" d="M201.25,200.18h0c-2.3,0-1.92.83-1.92-1.62V132.08c0-2.45-1.71-3.33.59-3.33l3.59-1.13c1.89.19,3.44,3.88,3.31,4.86l-.11,1.33-2.31,59.65C204.4,195.91,203.55,200.18,201.25,200.18Z"/></g><g id="ножка-3" data-name="ножка"><path class="cls-4" d="M225.15,181.43h0c-4,0-4.85-2.6-4.85-6.22l-2.37-45.33c0-3.63,3.25-6.6,7.22-6.6h0c4,0,7.23,3,7.23,6.6l-2.28,44.88C230.1,178.39,229.13,181.43,225.15,181.43Z"/><path class="cls-5" d="M218.79,147l-.86-18.62a7,7,0,0,1,7.22-6.76h0a7,7,0,0,1,7.23,6.76l-.82,17.82C231.56,149.93,219.68,149.12,218.79,147Z"/><path class="cls-6" d="M227,181.12h0c-2.23,0-1.87.69-1.87-1.35V124.43c0-2-1.66-2.77.58-2.77l3.49-.94c1.83.16,3.34,3.22,3.22,4l-.11,1.11-2.24,49.65C230.09,177.56,229.26,181.12,227,181.12Z"/></g><g id="ножка-4" data-name="ножка"><path class="cls-4" d="M94.41,182.16h0c-3.94,0-4.82-2.2-4.82-5.27L87.24,138.5c0-3.08,3.23-5.59,7.17-5.59h0c3.94,0,7.16,2.51,7.16,5.59l-2.26,38C99.31,179.59,98.35,182.16,94.41,182.16Z"/><path class="cls-5" d="M88.1,153l-.86-15.77c0-3.15,3.23-5.73,7.17-5.73h0c3.94,0,7.16,2.58,7.16,5.73l-.82,15.09C100.75,155.48,89,154.79,88.1,153Z"/><path class="cls-6" d="M96.26,181.9h0c-2.22,0-1.85.58-1.85-1.14V133.88c0-1.73-1.65-2.35.57-2.35l3.45-.79c1.82.13,3.31,2.73,3.19,3.42l-.11.94-2.22,42.06C99.29,178.89,98.47,181.9,96.26,181.9Z"/></g><g id="вверх_стола" data-name="вверх стола"><path class="cls-7" d="M246.31,111.76c0,22.46-38.71,41.06-87.07,41.06S72.7,134.22,72.7,111.76s37.69-36.49,86.05-36.49S246.31,89.31,246.31,111.76Z"/><ellipse class="cls-8" cx="159.24" cy="111.76" rx="83.95" ry="34.74"/></g></g></svg>