<svg xmlns="http://www.w3.org/2000/svg" viewBox="0 0 2807 2414"><defs><style>.cls-1{fill:#edd1bc;}.cls-2{fill:#bfab9d;}.cls-3{fill:#c4906c;}</style></defs><title>Игровая</title><g id="игрушки"><g id="Eggs"><path class="cls-1" d="M2328,1250c-12,60-46.11,114-103,114s-128-38-128-101,139.11-176,196-176S2340.35,1188.26,2328,1250Z"/><path class="cls-1" d="M2124.8,1384.27c3.15,63.11-30.44,156.68-120.71,179.53-58,14.68-150.09-38.13-150.09-106.63S1997.92,1208,2057.62,1208,2121.39,1315.85,2124.8,1384.27Z"/><path class="cls-2" d="M1929.85,1395H737.45a1.26,1.26,0,0,1-.8-2.22L1075,1109.31a104.17,104.17,0,0,1,66.88-24.31h1175a9.2,9.2,0,0,1,6.51,15.7L2100.7,1324.07A241.22,241.22,0,0,1,1929.85,1395Z"/><path class="cls-2" d="M2289.5,563H1183a53,53,0,0,0-53,53v469H2293a108,108,0,0,0,108-108V674.5A111.5,111.5,0,0,0,2289.5,563Z"/><path class="cls-1" d="M2276.5,584H1315a53,53,0,0,0-53,53v414H2280a108,108,0,0,0,108-108V695.5A111.5,111.5,0,0,0,2276.5,584Z"/><ellipse class="cls-3" cx="926" cy="1363" rx="152.75" ry="173.75"/><path d="M926,1189.5c40.72,0,79,18,107.81,50.79s44.69,76.35,44.69,122.71-15.87,89.93-44.69,122.71S966.72,1536.5,926,1536.5s-79-18-107.81-50.79S773.5,1409.36,773.5,1363s15.87-89.93,44.69-122.71S885.28,1189.5,926,1189.5m0-.5c-84.5,0-153,77.9-153,174s68.5,174,153,174,153-77.9,153-174-68.5-174-153-174Z"/><path class="cls-3" d="M1739.67,1363.22c-33.75,0-66.55-15.37-92.36-43.27-26-28.07-42.45-66.3-46.43-107.66-8.66-90,44.32-169.06,118.1-176.15,3.55-.34,7.15-.52,10.7-.52,33.76,0,66.56,15.37,92.37,43.28,26,28.07,42.45,66.3,46.43,107.66,4.19,43.62-5.79,86-28.1,119.24s-54.27,53.47-90,56.91C1746.83,1363.05,1743.23,1363.22,1739.67,1363.22Z"/><path d="M1729.69,1035.87c33.68,0,66.42,15.34,92.18,43.2,25.92,28,42.39,66.21,46.36,107.51,4.19,43.57-5.78,85.86-28.06,119.09s-54.16,53.36-89.82,56.79c-3.54.34-7.13.51-10.68.51-33.68,0-66.42-15.34-92.18-43.19-25.92-28-42.39-66.21-46.36-107.52-4.19-43.56,5.78-85.85,28.06-119.08s54.16-53.37,89.81-56.79c3.54-.34,7.13-.52,10.68-.52h0m0-.5q-5.33,0-10.73.52c-74,7.12-127,86.1-118.32,176.42,8.27,85.94,69.37,151.16,139,151.16q5.34,0,10.73-.51c74-7.12,127-86.11,118.32-176.43-8.26-85.93-69.36-151.16-139-151.16Z"/><path class="cls-3" d="M1448,1372.69a111.83,111.83,0,0,1-28.62-3.72c-34.7-9.18-63-34.3-79.58-70.74s-19.6-79.86-8.39-122.23c9.64-36.43,29.44-69.27,55.74-92.46,25.92-22.85,57-35.44,87.55-35.44a111.77,111.77,0,0,1,28.62,3.72c71.65,19,111.11,105.53,88,193-9.64,36.43-29.44,69.27-55.74,92.46C1509.59,1360.11,1478.49,1372.69,1448,1372.69Z"/><path d="M1474.66,1048.35a111.8,111.8,0,0,1,28.56,3.71c34.62,9.17,62.83,34.24,79.41,70.61s19.58,79.74,8.38,122.06a196.17,196.17,0,0,1-22.06,52,175.32,175.32,0,0,1-33.6,40.35c-25.88,22.82-56.92,35.38-87.39,35.38a111.86,111.86,0,0,1-28.56-3.71c-34.62-9.16-62.83-34.24-79.41-70.6s-19.58-79.75-8.38-122.06a196.1,196.1,0,0,1,22.06-52,175.32,175.32,0,0,1,33.6-40.35c25.88-22.81,56.92-35.38,87.39-35.38h0m0-.5c-62.68,0-123.39,52-143.53,128.09-23.22,87.71,16.25,174.24,88.14,193.27a111.88,111.88,0,0,0,28.69,3.73c62.68,0,123.39-52,143.53-128.09,23.22-87.71-16.25-174.24-88.14-193.27a111.88,111.88,0,0,0-28.69-3.73Z"/><path class="cls-3" d="M2038.84,1327.06a119.65,119.65,0,0,1-46.24-9.21c-68.42-28.5-97.71-115-65.29-192.81,12.28-29.5,32-54.45,56.92-72.16,24.41-17.33,52-26.49,79.7-26.49a119.58,119.58,0,0,1,46.24,9.21c33.14,13.8,58.18,41.45,70.52,77.86s10.48,77.25-5.22,115c-12.29,29.49-32,54.44-56.93,72.16C2094.13,1317.9,2066.57,1327.06,2038.84,1327.06Z"/><path d="M2063.94,1026.14v.5a119.32,119.32,0,0,1,46.14,9.19c33.07,13.77,58.06,41.37,70.37,77.71s10.47,77.12-5.21,114.77c-12.27,29.45-31.92,54.37-56.84,72-24.37,17.3-51.88,26.45-79.56,26.45a119.51,119.51,0,0,1-46.14-9.19c-33.07-13.78-58.06-41.38-70.38-77.72s-10.46-77.12,5.22-114.77c12.27-29.45,31.92-54.36,56.84-72.05,24.37-17.3,51.88-26.44,79.55-26.44v-.5m0,0c-55.84,0-111.45,37.82-136.85,98.8-32.52,78.07-3.23,164.54,65.43,193.14a120,120,0,0,0,46.33,9.23c55.85,0,111.46-37.82,136.86-98.81,32.52-78.07,3.22-164.54-65.43-193.14a120.21,120.21,0,0,0-46.34-9.22Z"/><ellipse class="cls-3" cx="1176.31" cy="1178.4" rx="134.41" ry="164.04"/><path d="M1176.31,1014.61c35.82,0,69.5,17,94.84,47.93s39.32,72.09,39.32,115.86-14,84.91-39.32,115.85-59,47.93-94.84,47.93-69.5-17-94.84-47.93-39.32-72.09-39.32-115.85,14-84.92,39.32-115.86,59-47.93,94.84-47.93m0-.5c-74.37,0-134.66,73.55-134.66,164.29s60.29,164.28,134.66,164.28S1311,1269.13,1311,1178.4s-60.29-164.29-134.66-164.29Z"/><path class="cls-3" d="M1243.59,1510.58c-38.17,0-75.11-16.16-104-45.52-29.08-29.52-47.41-69.81-51.61-113.44-9.17-95.37,51.58-179.51,135.42-187.57,4.32-.42,8.71-.63,13-.63,38.17,0,75.11,16.16,104,45.52,29.08,29.52,47.41,69.81,51.61,113.44,9.17,95.37-51.58,179.51-135.42,187.57C1252.31,1510.37,1247.92,1510.58,1243.59,1510.58Z"/><path d="M1236.41,1163.67c38.1,0,75,16.14,103.85,45.44,29,29.49,47.35,69.72,51.54,113.29,4.44,46.15-7.19,91-32.74,126.42s-61.92,57-102.45,60.88c-4.32.42-8.7.63-13,.63-38.1,0-75-16.14-103.85-45.44-29-29.49-47.35-69.72-51.54-113.29-4.44-46.15,7.19-91,32.74-126.42s61.92-57,102.45-60.88c4.32-.42,8.7-.63,13-.63h0m0-.5q-6.5,0-13.06.63c-84.12,8.09-144.85,92.19-135.65,187.84,8.72,90.68,77.14,159.19,155.89,159.19q6.5,0,13.06-.63c84.12-8.09,144.85-92.19,135.65-187.84-8.72-90.68-77.14-159.19-155.89-159.19Z"/><path class="cls-3" d="M1541.59,1511.58c-38.17,0-75.11-16.16-104-45.52-29.08-29.52-47.41-69.81-51.61-113.44-9.17-95.37,51.58-179.51,135.42-187.57,4.32-.42,8.71-.63,13-.63,38.17,0,75.11,16.16,104,45.52,29.08,29.52,47.41,69.81,51.61,113.44,9.17,95.37-51.58,179.51-135.42,187.57C1550.31,1511.37,1545.92,1511.58,1541.59,1511.58Z"/><path d="M1534.41,1164.67c38.1,0,75,16.14,103.85,45.44,29,29.49,47.35,69.72,51.54,113.29,4.44,46.15-7.19,91-32.74,126.42s-61.92,57-102.45,60.88c-4.32.42-8.7.63-13,.63-38.1,0-75-16.14-103.85-45.44-29-29.49-47.35-69.72-51.54-113.29-4.44-46.15,7.19-91,32.74-126.42s61.92-57,102.45-60.88c4.32-.42,8.7-.63,13-.63h0m0-.5q-6.5,0-13.06.63c-84.12,8.09-144.85,92.19-135.65,187.84,8.72,90.68,77.14,159.19,155.89,159.19q6.5,0,13.06-.63c84.12-8.09,144.85-92.19,135.65-187.84-8.72-90.68-77.14-159.19-155.89-159.19Z"/><path class="cls-3" d="M1951.1,1397.14c-14.11,0-29.5-.78-47.08-2.39-8.14-.74-16.22-1.1-24.72-1.1-12.53,0-23.46.79-33.11,1.49-7.4.54-13.79,1-19.44,1h0c-11.55,0-18.1-2-22.62-7-7.51-8.22-9.32-25.34-6.24-59.07a201.36,201.36,0,0,1,55.83-121.55c31.15-32.1,71-51.74,112.31-55.3,4.07-.35,8-.53,11.68-.53,38,0,65.55,18.69,105.1,71.43,13.78,18.38,28.57,63.92,20,86.76C2080.62,1369.74,2032.43,1397.14,1951.1,1397.14Z"/><path d="M1977.7,1153c19.28,0,35,4.72,50.84,15.29,16.41,10.94,33.59,28.74,54.06,56,6.71,8.94,13.82,25,18.13,41,5.1,18.92,5.75,35.1,1.8,45.57-6.23,16.55-14.72,30.83-25.24,42.44a116.76,116.76,0,0,1-35.27,26.35c-23.68,11.63-53.41,17.28-90.92,17.28-14.1,0-29.49-.78-47-2.39-8.15-.74-16.24-1.1-24.75-1.1-12.54,0-23.48.79-33.12,1.49-7.4.54-13.79,1-19.43,1-11.48,0-18-2-22.45-6.89-7.45-8.17-9.24-25.22-6.17-58.88a201.14,201.14,0,0,1,55.75-121.4c31.12-32.06,70.95-51.67,112.16-55.22,4.07-.35,8-.53,11.66-.53h0m0-.5c-3.8,0-7.69.18-11.7.53-84.19,7.26-159.62,81.38-168.37,177.08-5.18,56.73,3.59,66.31,29.12,66.31,13,0,30.42-2.49,52.55-2.49,7.66,0,15.89.3,24.7,1.1,15.86,1.45,31.66,2.39,47.1,2.39,66.46,0,125.93-17.41,151.9-86.39,8.91-23.66-7-69.69-20-87-40.78-54.37-68.63-71.53-105.3-71.53Z"/><path class="cls-1" d="M1742.64,1590H850.29a42.45,42.45,0,0,1-38.62-24.83l-76.82-168.31a1.31,1.31,0,0,1,1.2-1.86H1903.94a1.32,1.32,0,0,1,1.19,1.87l-59.53,127.56A113.63,113.63,0,0,1,1742.64,1590Z"/></g></g></svg>