<svg xmlns="http://www.w3.org/2000/svg" viewBox="0 0 379.73 206.87"><defs><style>.cls-1{fill:#dbdba5;}.cls-2{fill:#d1cf8f;}.cls-3{fill:#cecca7;}.cls-4{fill:#e8e695;}.cls-5{fill:#ddd87f;}.cls-6{fill:#d3cc75;}.cls-7{fill:#e58d76;}.cls-8{fill:#ed9c80;}</style></defs><title>Игровая</title><g id="стол"><path class="cls-1" d="M260,142l-5.27-15.35c-1.46-4.28-4.71-8.45-9.6-12.34l-11.43-9.1c0-1.47,2.4-1.88,6.07-1.81h0c3.67.07,7.2,1,7.16,2.45L258,114.55c4.8,3.76,8,7.79,9.53,11.93l5.77,15.76C273.29,143.71,260,143.45,260,142Z"/><path class="cls-2" d="M265.25,142.35l-2.79-11.88a22.11,22.11,0,0,0-5.2-9.52l-6.22-7c0-1.13,1.34-1.46,3.35-1.42h0c2,0,3.95.73,3.92,1.86l6,6.71a21.81,21.81,0,0,1,5.16,9.21l3.06,12.19C272.54,143.63,265.21,143.48,265.25,142.35Z"/><path class="cls-2" d="M289.07,134.51l-3.71-11.58a21,21,0,0,0-6.79-9.29l-8.1-6.86c0-1.1,1.71-1.42,4.31-1.37h0c2.6,0,5.1.74,5.07,1.84l7.87,6.57a21,21,0,0,1,6.74,9l4.07,11.88C298.5,135.8,289,135.61,289.07,134.51Z"/><path class="cls-2" d="M243.78,134.32l3.78-11.43a21.58,21.58,0,0,1,6.23-9l7.21-6.56c0-1.1-1.37-1.48-3.56-1.52h0c-2.2,0-4.34.55-4.38,1.66l-7,6.27a21.42,21.42,0,0,0-6.18,8.74l-4.09,11.72C235.77,135.27,243.75,135.42,243.78,134.32Z"/><path class="cls-1" d="M221.32,140.72l5.89-15.14c1.64-4.21,5-8.25,9.82-12L248.4,105c0-1.46-2.17-2-5.65-2h0c-3.48-.07-6.88.7-6.93,2.17l-11,8.28c-4.76,3.58-8.05,7.48-9.73,11.55l-6.39,15.53C208.62,141.94,221.27,142.19,221.32,140.72Z"/><path class="cls-2" d="M221.32,140.72l4.26-12.07a24.25,24.25,0,0,1,5.3-9.65l6.1-7c0-1.18-1.14-1.57-3-1.6h0c-1.85,0-3.65.6-3.69,1.78l-5.92,6.7a24,24,0,0,0-5.26,9.32l-3.51,12.49C215.58,141.87,221.28,141.9,221.32,140.72Z"/><path class="cls-2" d="M229.58,118.74H220c-1.51,0,1-1,1-2.22h0a2.54,2.54,0,0,1,2.76-2.23h5.89a2.54,2.54,0,0,1,2.76,2.23h0A2.54,2.54,0,0,1,229.58,118.74Z"/><rect class="cls-2" x="248.4" y="114.81" width="13.84" height="3.93" rx="0.68" ry="0.68"/><path class="cls-1" d="M283.18,102.88h0c-2.29,0-4.17-1-4.19-2.35l3.26-9a17.83,17.83,0,0,0-.15-12.84l-3.49-8.92c0-1.31,1.84-2.39,4.13-2.41h0c2.29,0,4.17,1,4.19,2.34l2.38,8.18a26.4,26.4,0,0,1,.17,14.35l-2.18,8.22C287.32,101.77,285.46,102.86,283.18,102.88Z"/><path class="cls-2" d="M286.9,106.38h0a1.91,1.91,0,0,1-.64-.17c-1.51-.71-2.22-2.87-1.68-4.8l2.32-8.34a4.28,4.28,0,0,0,.12-.54c.83-5,1.31-13.25.08-18.47l-.79-7.37c.05-1.57.91-2.83,1.92-2.81h0c1,0,1.8,1.32,1.75,2.88l.41,8.58a97.84,97.84,0,0,1-.2,18c0,.27-2.28,7.59-2.35,7.85l-.47,1.71a4.85,4.85,0,0,0-.09,2.45C287.43,106,287.52,106.39,286.9,106.38Z"/><path class="cls-1" d="M263.12,109.09h0c-2,.18-3.89-1-4.1-2.55l1.57-11.07A29.08,29.08,0,0,0,258.51,80l-4.46-10.55c-.21-1.58,1.29-3,3.33-3.2h0c2.05-.18,3.89,1,4.1,2.55l3.36,9.72a43.52,43.52,0,0,1,2.32,17.33l-.71,10.08C266.66,107.47,265.16,108.91,263.12,109.09Z"/><path class="cls-2" d="M266.67,108.76h0c-.89.08-1.8-1.15-2-2.73l.11-5.48c1-5.43-1-22-3.87-27l-1.21-4.66c-.21-1.58.35-2.94,1.25-3h0c.89-.08,1.8,1.15,2,2.73l2.22,9.82a98.71,98.71,0,0,1,2.31,17.33l.44,10C268.13,107.33,267.57,108.69,266.67,108.76Z"/><path class="cls-1" d="M283.25,117.42h-59.1c-5.78,0-15.49-3.64-15.49-8.1h0c0-4.45,4.74-8.1,10.52-8.1h68.66c5.78,0,10.51,3.65,10.51,8.1h0C298.35,113.78,289,117.42,283.25,117.42Z"/><path class="cls-2" d="M290.59,101.24l-19.82.13c-1.38,0,2.62,4.2,2.78,6.27.19,2.39.23,1.66-.77,4.52s-2.59,5.17-.62,5.15l15.34,0a5.11,5.11,0,0,0,1.35-.18c3.11-.87,5-.91,8.24-4.6a5.46,5.46,0,0,0,1-2.38h0a6,6,0,0,0,.16-2C297.86,103.27,294.86,101.21,290.59,101.24Z"/><path class="cls-3" d="M247.78,103.33l-27.72,2.08c-1.39,0-9.1,0-9.1-1.12a13,13,0,0,1,4.12-2.43,16.34,16.34,0,0,1,5-.53l33.45-.09C254.9,101.24,249.17,103.33,247.78,103.33Z"/><rect class="cls-1" x="235.8" y="48.39" width="71.35" height="32.24" rx="5.55" ry="5.55"/><path class="cls-2" d="M307.15,65.81c-1.22,9.44-12.8,15.39-17.47,15.39s.56-5.91.56-15.39-4.66-17.18,0-17.18S308.43,55.82,307.15,65.81Z"/><path class="cls-2" d="M297.53,78.3c0,.51-9.54,2-24.37,2.18-8,.09-15.61.38-20.46-.16-5.2-.58-7.41-2-7.58-2.2-.58-.72,2.33-.21,7.54.16s12.7.57,20.5.38C288,78.31,297.53,77.8,297.53,78.3Z"/><path class="cls-1" d="M113.92,172.2l3.92-16.2c1.09-4.5,3.8-9,8-13.29l9.84-10c-.12-1.51-2.28-1.82-5.59-1.55h0c-3.32.27-6.46,1.4-6.34,2.92l-9.57,9.62c-4.14,4.15-6.83,8.5-8,12.87l-4.35,16.64C102,174.69,114,173.71,113.92,172.2Z"/><path class="cls-2" d="M109.19,172.85l1.87-12.46a24.28,24.28,0,0,1,4.17-10.14l5.24-7.59c-.09-1.17-1.29-1.44-3.11-1.3h0c-1.82.15-3.53,1-3.44,2.14l-5.1,7.28a23.78,23.78,0,0,0-4.15,9.81l-2.1,12.8C102.66,174.56,109.28,174,109.19,172.85Z"/><path class="cls-2" d="M87.2,166l2.72-12.2a22.14,22.14,0,0,1,5.64-10l6.94-7.53c-.09-1.15-1.62-1.38-4-1.19h0c-2.35.19-4.58,1-4.49,2.17l-6.75,7.22a22,22,0,0,0-5.61,9.67l-3,12.54C78.75,167.82,87.29,167.13,87.2,166Z"/><path class="cls-2" d="M128.16,163.4l-4-11.65a22.68,22.68,0,0,0-6.14-9l-6.88-6.41c-.09-1.15,1.15-1.61,3.14-1.77h0c2-.16,4,.34,4,1.49l6.68,6.13a22.34,22.34,0,0,1,6.07,8.73l4.34,11.93C135.46,164,128.25,164.54,128.16,163.4Z"/><path class="cls-1" d="M148.84,168.85l-6.17-15.38c-1.71-4.28-4.94-8.29-9.54-11.87l-10.76-8.38c-.12-1.51,1.86-2.15,5-2.4h0c3.15-.26,6.26.37,6.38,1.88l10.45,8a29,29,0,0,1,9.44,11.46l6.63,15.76C160.39,169.44,149,170.36,148.84,168.85Z"/><path class="cls-2" d="M148.84,168.85l-4.52-12.29a26.18,26.18,0,0,0-5.33-9.72l-5.9-6.93c-.1-1.22.94-1.69,2.61-1.82h0c1.66-.14,3.33.43,3.43,1.65l5.73,6.63a26.09,26.09,0,0,1,5.27,9.38L154,168.51C154.09,169.73,148.94,170.06,148.84,168.85Z"/><path class="cls-2" d="M140.15,146.51l8.71-.51c1.37-.08-.93-1-1-2.26h0a2.41,2.41,0,0,0-2.62-2.16l-5.34.31a2.43,2.43,0,0,0-2.37,2.45h0A2.41,2.41,0,0,0,140.15,146.51Z"/><path class="cls-2" d="M112.32,148.13l9.09-.53a1.77,1.77,0,0,0,1.62-1.9l0-.48a1.75,1.75,0,0,0-1.81-1.69l-9.09.53a1.76,1.76,0,0,0-1.62,1.89l0,.48A1.75,1.75,0,0,0,112.32,148.13Z"/><path class="cls-1" d="M90.79,132.89h0c2.07-.1,3.72-1.29,3.66-2.65L91,121.11a21,21,0,0,1-.57-13.32l2.66-9.43C93,97,91.3,96,89.23,96.08h0c-2.07.1-3.71,1.29-3.66,2.65l-1.7,8.6a31.35,31.35,0,0,0,.63,14.88l2.43,8.4C87,132,88.72,133,90.79,132.89Z"/><path class="cls-2" d="M87.62,136.72h0a1.41,1.41,0,0,0,.57-.22c1.33-.8,1.85-3.08,1.26-5.05l-2.57-8.52c0-.18-.1-.37-.14-.56-1-5.1-1.9-13.67-1.08-19.13L86,95.55c-.13-1.62-1-2.88-1.9-2.81h0c-.91.07-1.55,1.46-1.42,3.08l.1,8.91a116.68,116.68,0,0,0,1.17,18.68c0,.28,2.48,7.75,2.57,8l.51,1.75a5.72,5.72,0,0,1,.22,2.53C87.12,136.38,87.06,136.76,87.62,136.72Z"/><path class="cls-1" d="M109.28,138.27h0a3.31,3.31,0,0,0,3.57-2.86l-2-11.39a34.33,34.33,0,0,1,1-16.19l3.46-11.17a3.13,3.13,0,0,0-3.19-3.13h0a3.31,3.31,0,0,0-3.57,2.85L106,106.64a51.55,51.55,0,0,0-1.15,18.09l1.2,10.4A3.14,3.14,0,0,0,109.28,138.27Z"/><path class="cls-2" d="M106.05,138.12h0c.81,0,1.56-1.29,1.67-2.93l-.4-5.69c-1.19-5.57-.34-22.9,2-28.17l.84-4.89c.1-1.65-.48-3-1.29-3.06h0c-.82,0-1.57,1.28-1.67,2.93l-1.47,10.3a116.6,116.6,0,0,0-1.14,18.09l.16,10.36C104.65,136.71,105.23,138.09,106.05,138.12Z"/><path class="cls-1" d="M91.53,148l10-.58,35.63-2.09,7.79-.45c5.23-.31,13.81-4.6,13.57-9.22h0c-.25-4.61-4.73-8.14-10-7.84l-62.11,3.63c-5.24.31-9.32,4.33-9.07,9h0C77.66,145,86.3,148.28,91.53,148Z"/><path class="cls-2" d="M84,131.58l17.93-.91c1.25-.06-2.13,4.5-2.17,6.65,0,2.48-.11,1.73.95,4.64s2.63,5.22.85,5.31l-13.88.85a4,4,0,0,1-1.24-.12c-2.85-.74-4.6-.67-7.7-4.33a6.09,6.09,0,0,1-1.07-2.41h0a7,7,0,0,1-.26-2C77.53,134.08,80.13,131.78,84,131.58Z"/><path class="cls-3" d="M122.84,131.49l25.19.69c1.26-.07,8.24-.47,8.17-1.64a11.69,11.69,0,0,0-3.86-2.3,12.93,12.93,0,0,0-4.53-.29l-30.27,1.68C116.29,129.7,121.59,131.56,122.84,131.49Z"/><path class="cls-1" d="M81.94,110.29l36.42-2.13c7.74-.45,13.71-7.46,13.28-15.56l-.21-3.94c-.43-8.11-7.11-14.37-14.84-13.92L80.16,76.87c-7.73.45-13.7,7.45-13.27,15.56l.21,3.94C67.53,104.47,74.21,110.74,81.94,110.29Z"/><path class="cls-2" d="M67.06,95.74c1.62,9.72,12.44,15.28,16.66,15s-.84-6.09-1.36-15.93,3.27-18-1-17.8S65.35,85.45,67.06,95.74Z"/><path class="cls-2" d="M76.46,108.18c0,.52,8.73,1.56,22.16,1,7.28-.33,14.14-.44,18.5-1.25,4.68-.87,6.59-2.44,6.74-2.68.49-.78-2.12-.09-6.81.56a184.45,184.45,0,0,1-18.53,1.49C85.09,107.68,76.43,107.66,76.46,108.18Z"/><g id="ножка"><path class="cls-4" d="M184.42,176.17h0c-3.39,0-4.14-2-4.14-4.85l-2-35.32c0-2.83,2.78-5.14,6.17-5.14h0c3.4,0,6.18,2.31,6.18,5.14l-1.95,35C188.65,173.8,187.82,176.17,184.42,176.17Z"/><path class="cls-5" d="M179,149.35l-.74-14.51c0-2.89,2.78-5.27,6.17-5.27h0c3.4,0,6.18,2.38,6.18,5.27l-.71,13.89C189.89,151.63,179.75,151,179,149.35Z"/><path class="cls-6" d="M186,175.93h0c-1.91,0-1.6.54-1.6-1.05V131.75c0-1.59-1.41-2.16.5-2.16l3-.73c1.56.12,2.84,2.52,2.74,3.15l-.09.87-1.91,38.69C188.64,173.16,187.93,175.93,186,175.93Z"/></g><g id="ножка-2" data-name="ножка"><path class="cls-4" d="M257.61,176.17h0c-3.43,0-4.2-2.25-4.2-5.4l-2-39.34a6,6,0,0,1,6.25-5.72h0a6,6,0,0,1,6.25,5.72l-2,39C261.89,173.53,261.05,176.17,257.61,176.17Z"/><path class="cls-5" d="M252.11,146.3l-.75-16.15a6.09,6.09,0,0,1,6.25-5.87h0a6.08,6.08,0,0,1,6.25,5.87l-.71,15.46C263.15,148.84,252.88,148.13,252.11,146.3Z"/><path class="cls-6" d="M259.23,175.9h0c-1.94,0-1.62.6-1.62-1.17v-48c0-1.77-1.43-2.4.5-2.4l3-.81c1.58.13,2.88,2.79,2.78,3.5l-.1,1L261.88,171C261.88,172.81,261.16,175.9,259.23,175.9Z"/></g><g id="ножка-3" data-name="ножка"><path class="cls-4" d="M276.77,162.35h0c-3.34,0-4.08-1.87-4.08-4.49l-2-32.75c0-2.62,2.73-4.76,6.07-4.76h0c3.34,0,6.07,2.14,6.07,4.76l-1.92,32.43C280.92,160.16,280.11,162.35,276.77,162.35Z"/><path class="cls-5" d="M271.42,137.49,270.7,124c0-2.69,2.73-4.88,6.07-4.88h0c3.34,0,6.07,2.19,6.07,4.88l-.7,12.87C282.14,139.6,272.17,139,271.42,137.49Z"/><path class="cls-6" d="M278.34,162.13h0c-1.88,0-1.57.5-1.57-1v-40c0-1.48-1.4-2,.48-2l2.93-.67c1.54.11,2.8,2.33,2.7,2.92l-.09.8-1.88,35.87C280.91,159.56,280.21,162.13,278.34,162.13Z"/></g><g id="ножка-4" data-name="ножка"><path class="cls-4" d="M169.48,162.88h0c-3.31,0-4-1.59-4-3.81l-2-27.73c0-2.22,2.71-4,6-4h0c3.31,0,6,1.82,6,4L173.6,158.8C173.6,161,172.79,162.88,169.48,162.88Z"/><path class="cls-5" d="M164.18,141.82l-.72-11.39c0-2.28,2.71-4.14,6-4.14h0c3.31,0,6,1.86,6,4.14l-.68,10.9C174.81,143.61,164.92,143.11,164.18,141.82Z"/><path class="cls-6" d="M171,162.69h0c-1.86,0-1.55.43-1.55-.82V128c0-1.24-1.39-1.69.48-1.69l2.9-.58a3.34,3.34,0,0,1,2.68,2.48l-.09.67-1.87,30.39C173.58,160.52,172.89,162.69,171,162.69Z"/></g><g id="вверх_стола" data-name="вверх стола"><path class="cls-7" d="M297.08,112c0,16.22-32.52,29.65-73.14,29.65s-72.7-13.43-72.7-29.65,31.67-26.37,72.29-26.37S297.08,95.8,297.08,112Z"/><ellipse class="cls-8" cx="223.94" cy="112.03" rx="70.52" ry="25.1"/></g></g></svg>