<svg xmlns="http://www.w3.org/2000/svg" viewBox="0 0 146 246"><defs><style>.cls-1{fill:#8abd7f;}.cls-2{fill:#b5a77c;}.cls-3{fill:#909fb7;}.cls-4{fill:#a5db92;}.cls-5{fill:#fff;}</style></defs><title>Игровая</title><g id="игрушки"><ellipse class="cls-1" cx="76.14" cy="197.72" rx="53.51" ry="14.3"/><rect class="cls-2" x="69.66" y="97.64" width="14.59" height="99.33" rx="1.21" ry="1.21"/><ellipse class="cls-3" cx="79.76" cy="114.69" rx="63.24" ry="58.69"/><path class="cls-4" d="M92.36,91.62c.92-3.92,15.71-6.57,27.56-1.5,6.51,2.78,15.91,9.5,16.22,18.06.3,8.38-8.4,10.68-8.11,19.56.29,9.23,1.82,9.6,0,12-2.09,2.82-7.5,1.87-14.59-1.5-9-4.26-23.67-11.24-22.7-18.06.93-6.59,15.66-7.2,16.21-13.55C107.53,99.94,91.34,95.93,92.36,91.62Z"/><path class="cls-4" d="M58.59,88.6C52,86.32,38,83.4,34.27,88.28c-4.78,6.28,12.73,19.28,7.35,28.09-4.33,7.1-18.6,4.82-20.58,10-1.67,4.33,9.61,15.1,19.25,13.8,10.24-1.39,18-16.33,19.24-28,.74-7.11,5.65-4.94,9.21-8.61,2.49-2.58-3.44-8.18-1.95-9.42.58-.48,1.67,0,1.77-.22C68.8,93.32,63.59,90.35,58.59,88.6Z"/><path class="cls-5" d="M117.06,68c7,11-16.1,3.79-37.3,0C62.51,65,41.27,69.74,45.71,65a14.64,14.64,0,0,1,4.87-3,39.33,39.33,0,0,1,8.11-3c5.64-1.31,12.55-3,21.07-3,12.23,0,24.06,3.45,31.14,7.23C113.94,64.85,116.1,66.54,117.06,68Z"/><path class="cls-5" d="M119.92,156.34c7-11.24-21,5.17-42.16,9C63.21,168,39.64,156,37.23,157.84c-.45.35,5.79,3.61,6.48,4.36a14.57,14.57,0,0,0,4.87,3.06,38.57,38.57,0,0,0,8.11,3.06c5.64,1.34,12.55,3.07,21.07,3.07A72.45,72.45,0,0,0,104,166.31,48.65,48.65,0,0,0,108.9,164C111.94,162.38,119,157.87,119.92,156.34Z"/><path class="cls-4" d="M51.82,135.27c2.06-1,4.77-.56,4.87,0s-2,1.22-3.25,1.5-3,.48-3.24,0S51,135.66,51.82,135.27Z"/><path class="cls-4" d="M94,130.75c1.49.29,3.35,1.06,3.24,1.51s-1.86.59-3.24,0c-.94-.4-1.78-1.2-1.62-1.51S93.49,130.66,94,130.75Z"/><path class="cls-4" d="M98.84,133.76c-.87.81.64,4.13,3.25,6,2.31,1.68,5.8,2.43,6.48,1.51s-2-4.23-4.86-6C103.46,135.12,99.79,132.89,98.84,133.76Z"/><path class="cls-4" d="M137.76,115.7c-1.55-.62-8.34,6.55-8.11,15,0,1.62.41,5.9,1.62,6C134,137,140.1,116.65,137.76,115.7Z"/><path class="cls-4" d="M42.09,78.08c.76-1,15,6.5,14.6,7.52-.1.22-.86.12-1.63,0C48,84.57,41.54,78.82,42.09,78.08Z"/><path class="cls-4" d="M74.52,132.26c-10,3.42-15.62,16.07-11.35,24.08.73,1.36,2.23,4.18,4.87,4.51,8.29,1.06,21.78-23.17,16.21-28.59C81.72,129.8,75.86,131.8,74.52,132.26Z"/><path class="cls-4" d="M65,70.79c6.45-1.45,18.57,5,23.32,12,.81,1.2,2.48,3.67,1.76,4.89-2.26,3.84-26.51-7.51-28.72-13.28C60.4,71.83,64.18,71,65,70.79Z"/></g></svg>