<svg xmlns="http://www.w3.org/2000/svg" viewBox="0 0 2154.75 1236"><defs><style>.cls-1{fill:#d4e8d4;}.cls-2{fill:#ccc5c0;}.cls-27,.cls-28,.cls-3,.cls-5{fill:none;}.cls-3{stroke:#a08c7d;stroke-width:0.5px;}.cls-25,.cls-27,.cls-28,.cls-29,.cls-3,.cls-30,.cls-31,.cls-32,.cls-5{stroke-miterlimit:10;}.cls-4{fill:#e2e8e2;}.cls-5{stroke:#c1e5c1;}.cls-6{fill:#cce2cc;}.cls-7{fill:#cde5e6;}.cls-8{fill:#ededbd;}.cls-9{fill:#d9d8ad;}.cls-10{fill:#e6d7c6;}.cls-11{fill:#e2d0c1;}.cls-12{fill:#831c27;}.cls-13{fill:#f0e1be;}.cls-14{fill:#a69684;}.cls-15{fill:#dff6f8;}.cls-16{fill:#d5c4af;}.cls-17{fill:#df8fe5;}.cls-18{fill:#efefbd;}.cls-19{fill:#dbdaad;}.cls-20,.cls-30,.cls-31,.cls-32{fill:#fff;}.cls-21{fill:#a3b9e5;}.cls-22{fill:#b86969;}.cls-23{fill:#f4e8a3;}.cls-24{fill:#e17878;}.cls-25{fill:#cbeaef;stroke:#aa8768;stroke-width:5px;}.cls-26{fill:#ebf1f2;}.cls-27{stroke:#b29377;}.cls-27,.cls-28{stroke-width:2px;}.cls-28{stroke:#937763;}.cls-29{fill:#ebebff;stroke:#f1f9e4;}.cls-29,.cls-30,.cls-31,.cls-32{stroke-width:6px;}.cls-30{stroke:#f2f0bd;}.cls-31{stroke:#ecdbcc;}.cls-32{stroke:#ebffd2;}.cls-33{fill:#aac4a6;}.cls-34{fill:#a9a8c1;}.cls-35{fill:#d7dcf2;}.cls-36{fill:#c5e4ed;}.cls-37{fill:#f4d7e8;}.cls-38{fill:#efc5cf;}</style></defs><title>spalnya</title><g id="окна"><rect class="cls-1" x="230.72" y="133.21" width="1643" height="647.06"/><g id="пол"><polygon class="cls-2" points="2007.27 1014.21 105.27 1014.21 230.72 780.27 1873.73 780.27 2007.27 1014.21"/><line class="cls-3" x1="165.97" y1="907.19" x2="1942.52" y2="907.19"/><line class="cls-3" x1="194.3" y1="852.44" x2="1922.29" y2="852.44"/><line class="cls-3" x1="129.55" y1="971.9" x2="1982.99" y2="971.9"/><line class="cls-3" x1="218.58" y1="802.67" x2="1889.91" y2="802.67"/></g><polygon class="cls-4" points="230.72 780.27 105.27 1014.21 105.27 133.21 230.72 133.21 230.72 780.27"/><polygon class="cls-4" points="1873.73 780.27 2007.27 1014.21 2007.27 133.21 1873.73 133.21 1873.73 780.27"/><line class="cls-5" x1="224.65" y1="133.21" x2="232.75" y2="772.8"/><line class="cls-5" x1="1871.7" y1="138.18" x2="1871.7" y2="782.76"/><rect class="cls-6" x="687.13" y="136.6" width="747.66" height="484.55"/><polygon class="cls-2" points="1434.79 621.15 677.75 624.53 230.4 780.4 1863.37 783.79 1434.79 621.15"/><line class="cls-3" x1="277.33" y1="765.16" x2="1816.45" y2="765.16"/><line class="cls-3" x1="374.3" y1="731.27" x2="1725.72" y2="731.27"/><line class="cls-3" x1="461.9" y1="700.77" x2="1647.52" y2="700.77"/><line class="cls-3" x1="533.85" y1="673.67" x2="1575.57" y2="673.67"/><line class="cls-3" x1="593.28" y1="653.34" x2="1525.51" y2="653.34"/><line class="cls-3" x1="646.46" y1="636.39" x2="1475.46" y2="636.39"/><path class="cls-7" d="M786.48,682.36h36.7c8.6,0,15.63-7.78,15.82-17.51l.67-34.87c.11-5.49,4.32-8.07,9.05-11.27l10.78-3.8H793.21c-11,0-20,8.46-20,18.91v33.55C773.23,675.65,779.16,682.36,786.48,682.36Z"/><rect class="cls-8" x="733.72" y="545.94" width="13.83" height="153.69" transform="translate(1481.27 1245.56) rotate(180)"/><rect class="cls-9" x="732.63" y="545.94" width="6.91" height="153.69" transform="translate(1472.17 1245.56) rotate(180)"/><rect class="cls-8" x="633.95" y="545.94" width="13.83" height="153.69" transform="translate(1281.74 1245.56) rotate(180)"/><rect class="cls-9" x="632.86" y="545.94" width="6.91" height="153.69" transform="translate(1272.64 1245.56) rotate(180)"/><path class="cls-8" d="M647.78,556l28.76-4.23a116.94,116.94,0,0,1,34.24,0L739.54,556v23.51H647.78Z"/><polygon class="cls-8" points="647.78 599.27 739.54 599.27 739.54 622.78 693.66 622.78 647.78 622.78 647.78 599.27"/><rect class="cls-9" x="647.78" y="619.36" width="91.76" height="3.42" transform="translate(1387.33 1242.14) rotate(180)"/><ellipse class="cls-8" cx="740.64" cy="532.72" rx="4.98" ry="13.22"/><path class="cls-9" d="M735.66,532.72c0,6.35,2.16,11.57,3.11,11.57s-1.32-5.15-1.32-11.5,2.28-11.49,1.32-11.49S735.66,526.37,735.66,532.72Z"/><ellipse class="cls-8" cx="739.54" cy="532.72" rx="4.98" ry="13.22"/><path class="cls-9" d="M734.57,532.72c0,6.35,2.15,11.57,3.11,11.57s-1.32-5.15-1.32-11.5,2.27-11.49,1.32-11.49S734.57,526.37,734.57,532.72Z"/><ellipse class="cls-8" cx="639.78" cy="532.79" rx="4.98" ry="13.22"/><path class="cls-9" d="M634.8,532.79c0,6.35,2.16,11.58,3.11,11.58s-1.32-5.15-1.32-11.5,2.28-11.5,1.32-11.5S634.8,526.44,634.8,532.79Z"/><path class="cls-10" d="M647.78,616.35H874.46a0,0,0,0,1,0,0v17.11a7.16,7.16,0,0,1-7.16,7.16H647.78a0,0,0,0,1,0,0V616.35A0,0,0,0,1,647.78,616.35Z" transform="translate(1522.24 1256.98) rotate(180)"/><rect class="cls-9" x="639.78" y="640.63" width="134.92" height="23.47" transform="translate(1414.47 1304.72) rotate(180)"/><path class="cls-10" d="M657.39,590.7h63.76c2.44,0,12,1.31,16,6.3l10.39,14.16c0,7.59-8.73,7.15-8.73,7.15H685.5a34.53,34.53,0,0,1-4.25.42c-1,0-9.22.29-15.72-2.83-10.58-5.08-14.2-17.89-14.72-19.85C650.81,593.11,653.77,590.7,657.39,590.7Z"/><path class="cls-11" d="M674.66,591c-7.09,0-13-.7-17.27-.32,0,0-4.7,0-5,1.91-1.67,9.43,0,1.44-.35,4.85-.22,2.45,3.66,9.35,6.1,12.12,3,3.36,4.29,4.8,6,5.56,3.75,1.7,3.3,2.52,7.18,3a91.55,91.55,0,0,0,15.87.16"/><path class="cls-12" d="M707,615.75c0,17,33.78,11,58.59,11s44.11,7.35,44.11-9.65-12.46-29.64-37.27-29.64S707,598.75,707,615.75Z"/><path class="cls-11" d="M666.74,616.51a24.18,24.18,0,0,0-10,2.58c-8.31,4.92-9.27,15-9.34,15.89a21.1,21.1,0,0,0,.33,5.65"/><path class="cls-11" d="M647.39,640.63h10.85v-8.58a21.24,21.24,0,0,1,1-6.43v0a.5.5,0,0,0-.71-.61l-5.09,3a6.2,6.2,0,0,0-6.08,6.3Z"/><ellipse class="cls-13" cx="716.25" cy="602.76" rx="21.88" ry="26.84" transform="translate(-162.39 925.74) rotate(-60.27)"/><path class="cls-14" d="M730.9,575.13c3.15,3,3.58,6.72,4,8.57.56,2.79-1.51,8.63-5.84,10.44-5,2.08-1.6,2.43-2.07,4-.56,1.84.19,11.15,1.32,16.08.81,3.51-1.95,4-4.52,8.14-3.9,6.24-5.42,5.89-12.23,6.68-5.33.62-11.3-6.47-16.57-10.65-4.3-3.4-6.56-1.57-8.09-6.68-1.2-4-.13-2.25.94-9.19,1.32-8.56.54-8.16,2.64-12.53s-1.55-9.82,13.55-14.62c10.25-3.26,13.74-3.48,16.94-.62C722.89,576.47,727.62,572,730.9,575.13Z"/><path class="cls-15" d="M713,672.83h55.41c7.66,0,14.56-4.07,17.44-10.29l16.57-35.82c16.49-10.77,41.6,1.69,47.31-1.64l-7-15.38a40.53,40.53,0,0,0-18.63-19l-2.12-1.09-19-5.26a31.13,31.13,0,0,0-8.83-.57l-16.4.14-14.83,2.28a21.93,21.93,0,0,1-2.81.07c-16.36-.87-58.15,25.14-58.15,35.85v41C702,668.51,706.89,672.83,713,672.83Z"/><rect class="cls-8" x="875.55" y="609.28" width="13.83" height="90.34" transform="translate(1764.93 1308.9) rotate(180)"/><rect class="cls-9" x="874.46" y="609.28" width="6.91" height="90.34" transform="translate(1755.83 1308.9) rotate(180)"/><rect class="cls-8" x="775.78" y="609.28" width="13.83" height="90.34" transform="translate(1565.4 1308.9) rotate(180)"/><rect class="cls-9" x="774.69" y="609.28" width="6.91" height="90.34" transform="translate(1556.3 1308.9) rotate(180)"/><path class="cls-8" d="M789.61,615.2l28.76-2.48a197.74,197.74,0,0,1,34.24,0l28.76,2.48V629H789.61Z"/><rect class="cls-9" x="789.61" y="627.02" width="91.76" height="2.01" transform="translate(1670.99 1256.04) rotate(180)"/><polygon class="cls-8" points="789.61 640.63 881.38 640.63 881.38 664.09 835.49 664.09 789.61 664.09 789.61 640.63"/><rect class="cls-9" x="789.61" y="660.68" width="91.76" height="3.41" transform="translate(1670.99 1324.78) rotate(180)"/><ellipse class="cls-8" cx="882.47" cy="601.51" rx="4.98" ry="7.77"/><path class="cls-9" d="M877.49,601.51c0,3.73,2.16,6.8,3.11,6.8s-1.32-3-1.32-6.76,2.28-6.76,1.32-6.76S877.49,597.77,877.49,601.51Z"/><ellipse class="cls-8" cx="881.37" cy="601.51" rx="4.98" ry="7.77"/><path class="cls-9" d="M876.4,601.51c0,3.73,2.15,6.8,3.11,6.8s-1.32-3-1.32-6.76,2.27-6.76,1.32-6.76S876.4,597.77,876.4,601.51Z"/><ellipse class="cls-8" cx="781.61" cy="601.55" rx="4.98" ry="7.77"/><path class="cls-9" d="M776.63,601.55c0,3.73,2.16,6.8,3.11,6.8s-1.32-3-1.32-6.75,2.27-6.76,1.32-6.76S776.63,597.82,776.63,601.55Z"/><path class="cls-16" d="M706.25,561.14l18.82,4.6"/><path class="cls-17" d="M1302.44,659.39l-73.89.9-1.6-43.11c-.16-4.52-5-6.59-10.31-9.15l-12.21-3,74.86-.91c12.46-.15,22.64,6.69,22.73,15.29Z"/><polygon class="cls-18" points="1338.93 673.34 1323.31 673.53 1321.97 544.47 1337.59 544.27 1338.93 673.34"/><polygon class="cls-19" points="1340.16 673.32 1332.36 673.42 1331.01 544.36 1338.82 544.26 1340.16 673.32"/><polygon class="cls-18" points="1451.6 671.96 1435.98 672.15 1434.64 543.09 1450.26 542.9 1451.6 671.96"/><polygon class="cls-19" points="1452.84 671.94 1445.03 672.04 1443.68 542.98 1451.49 542.88 1452.84 671.94"/><path class="cls-18" d="M1434.73,551.55l-32.52-3.15a177.94,177.94,0,0,0-38.67.47l-32.44,4,.21,19.75,51.81-.64,51.81-.63Z"/><polygon class="cls-19" points="1434.93 571.3 1331.31 572.57 1331.28 569.7 1434.9 568.43 1434.93 571.3"/><polygon class="cls-18" points="1435.11 587.87 1331.48 589.14 1331.68 608.89 1383.5 608.25 1435.31 607.62 1435.11 587.87"/><polygon class="cls-19" points="1435.31 607.62 1331.68 608.89 1331.65 606.02 1435.28 604.75 1435.31 607.62"/><ellipse class="cls-18" cx="1329.66" cy="533.27" rx="5.62" ry="11.1" transform="translate(-5.16 13.05) rotate(-0.56)"/><path class="cls-19" d="M1335.29,533.2c0,5.33-2.34,9.75-3.42,9.76s1.44-4.34,1.39-9.67-2.67-9.63-1.59-9.64S1335.23,527.87,1335.29,533.2Z"/><ellipse class="cls-18" cx="1330.9" cy="533.25" rx="5.62" ry="11.1" transform="matrix(1, -0.01, 0.01, 1, -5.16, 13.06)"/><path class="cls-19" d="M1336.52,533.18c0,5.34-2.34,9.75-3.42,9.76s1.45-4.34,1.39-9.67-2.66-9.62-1.59-9.63S1336.46,527.85,1336.52,533.18Z"/><ellipse class="cls-18" cx="1443.57" cy="531.94" rx="5.62" ry="11.1" transform="translate(-5.14 14.16) rotate(-0.56)"/><path class="cls-19" d="M1449.19,531.87c.06,5.33-2.34,9.75-3.41,9.76s1.44-4.34,1.38-9.67-2.66-9.62-1.59-9.64S1449.13,526.54,1449.19,531.87Z"/><path class="cls-20" d="M1179.27,605.35l237.17-2.9c10.39-.13,18.91,8.9,19,20.16h0l-256,3.13Z"/><polygon class="cls-18" points="1178.76 675.29 1163.14 675.48 1162.35 599.62 1177.97 599.42 1178.76 675.29"/><polygon class="cls-19" points="1179.99 675.28 1172.18 675.37 1171.39 599.5 1179.2 599.41 1179.99 675.28"/><polygon class="cls-18" points="1291.43 673.92 1275.81 674.11 1275.02 598.24 1290.64 598.05 1291.43 673.92"/><polygon class="cls-19" points="1292.66 673.9 1284.86 674 1284.07 598.13 1291.87 598.03 1292.66 673.9"/><path class="cls-18" d="M1275.08,603.21l-32.51-1.69a300.46,300.46,0,0,0-38.66.48l-32.46,2.48.12,11.61,51.81-.64,51.82-.63Z"/><polygon class="cls-19" points="1275.2 614.82 1171.57 616.09 1171.55 614.4 1275.18 613.13 1275.2 614.82"/><polygon class="cls-18" points="1275.3 624.56 1171.67 625.83 1171.88 645.54 1223.69 644.9 1275.5 644.27 1275.3 624.56"/><polygon class="cls-19" points="1275.5 644.27 1171.88 645.54 1171.85 642.67 1275.47 641.41 1275.5 644.27"/><ellipse class="cls-18" cx="1170.09" cy="592.99" rx="5.62" ry="6.53" transform="translate(-3.08 6.12) rotate(-0.3)"/><path class="cls-19" d="M1175.72,592.92c0,3.14-2.38,5.75-3.46,5.76s1.46-2.56,1.43-5.69-2.63-5.65-1.55-5.66S1175.68,589.79,1175.72,592.92Z"/><ellipse class="cls-18" cx="1171.33" cy="592.98" rx="5.62" ry="6.53" transform="translate(-3.08 6.12) rotate(-0.3)"/><path class="cls-19" d="M1177,592.91c0,3.13-2.38,5.74-3.46,5.75s1.46-2.55,1.43-5.69-2.62-5.64-1.54-5.66S1176.92,589.77,1177,592.91Z"/><ellipse class="cls-18" cx="1284" cy="591.64" rx="5.62" ry="6.53" transform="matrix(1, -0.01, 0.01, 1, -3.07, 6.71)"/><path class="cls-19" d="M1289.62,591.57c0,3.13-2.38,5.74-3.46,5.76s1.46-2.56,1.43-5.7S1285,586,1286.05,586,1289.59,588.44,1289.62,591.57Z"/><polygon class="cls-19" points="1444.72 642.2 1292.35 644.07 1292.15 624.36 1444.51 622.5 1444.72 642.2"/><path class="cls-20" d="M1424.19,580.81l-72,.88c-2.76,0-13.5,1.27-18,5.51l-11.61,12c.07,6.38,9.92,5.88,9.92,5.88l60.22-.72c1.15.12,2.81.26,4.8.29,1.19,0,10.42.12,17.73-2.59,11.91-4.42,15.87-15.23,16.45-16.88C1431.63,582.74,1428.27,580.76,1424.19,580.81Z"/><path class="cls-20" d="M1404.68,581.32c8-.09,14.73-.77,19.51-.51,0,0,5.3,0,5.69,1.54,2,7.89,0,1.2.43,4.06.28,2.06-4,7.91-6.78,10.27-3.31,2.86-4.8,4.09-6.69,4.75-4.21,1.48-3.7,2.16-8.08,2.64a140.77,140.77,0,0,1-17.92.35"/><path class="cls-17" d="M1395,660.08l-68.39.84-1.52-44.53c-.16-4.67-4.59-6.82-9.55-9.47l-11.31-3.1,69.28-.84c11.54-.14,21,6.94,21.06,15.82Z"/><path class="cls-20" d="M1413.84,602.62a34.56,34.56,0,0,1,11.26,2,17.24,17.24,0,0,1,10.7,13.21,13.2,13.2,0,0,1-.33,4.75"/><path class="cls-20" d="M1435.92,622.6l-12.26.15-.08-7.21a13.79,13.79,0,0,0-1.2-5.38v0c-.16-.38.35-.71.8-.52l5.76,2.48c3.78,0,6.9,2.3,6.93,5.21Z"/><path class="cls-21" d="M637.83,721.11l67.23-.82.42-59.55c0-6.24,4.35-9.24,9.16-12.92l11-4.46-68.11.83c-11.34.14-20.44,9.87-20.31,21.74Z"/><polygon class="cls-18" points="604.97 741.37 619.18 741.2 617.32 563.04 603.11 563.22 604.97 741.37"/><polygon class="cls-19" points="603.85 741.39 610.95 741.3 609.1 563.14 601.99 563.23 603.85 741.39"/><polygon class="cls-18" points="502.45 742.63 516.66 742.45 514.81 564.29 500.6 564.47 502.45 742.63"/><polygon class="cls-19" points="501.33 742.64 508.44 742.55 506.58 564.4 499.48 564.48 501.33 742.64"/><path class="cls-18" d="M514.93,576l29.5-5.26a106.8,106.8,0,0,1,35.18-.43l29.61,4.54.28,27.25-47.14.58-47.14.58Z"/><polygon class="cls-19" points="515.22 603.24 609.5 602.09 609.46 598.12 515.17 599.28 515.22 603.24"/><polygon class="cls-18" points="515.45 626.12 609.74 624.96 610.02 652.22 562.88 652.8 515.74 653.37 515.45 626.12"/><polygon class="cls-19" points="515.74 653.37 610.02 652.22 609.98 648.26 515.7 649.41 515.74 653.37"/><ellipse class="cls-18" cx="610.06" cy="547.8" rx="5.12" ry="15.33" transform="translate(-5.55 6.24) rotate(-0.58)"/><path class="cls-19" d="M604.94,547.87c.08,7.36,2.36,13.38,3.34,13.37s-1.41-6-1.49-13.31S609,534.58,608,534.59,604.87,540.51,604.94,547.87Z"/><ellipse class="cls-18" cx="608.94" cy="547.82" rx="5.12" ry="15.33" transform="translate(-5.55 6.23) rotate(-0.58)"/><path class="cls-19" d="M603.82,547.88c.08,7.36,2.36,13.39,3.34,13.38s-1.42-6-1.49-13.32,2.19-13.35,1.21-13.34S603.74,540.52,603.82,547.88Z"/><ellipse class="cls-18" cx="506.42" cy="549.16" rx="5.12" ry="15.33" transform="translate(-5.57 5.19) rotate(-0.58)"/><path class="cls-19" d="M501.31,549.22c.07,7.36,2.36,13.39,3.34,13.38s-1.42-6-1.49-13.31,2.19-13.36,1.21-13.35S501.23,541.86,501.31,549.22Z"/><path class="cls-20" d="M748.57,643.08l-211.23,2.58c-12,.15-21.57,10.78-21.44,23.74l.05,4.66,232.92-2.84Z"/><polygon class="cls-18" points="750.7 739.59 764.91 739.42 763.82 634.69 749.61 634.86 750.7 739.59"/><polygon class="cls-19" points="749.58 739.61 756.68 739.52 755.59 634.79 748.49 634.88 749.58 739.61"/><polygon class="cls-18" points="648.19 740.85 662.4 740.67 661.31 635.94 647.1 636.11 648.19 740.85"/><polygon class="cls-19" points="647.07 740.86 654.17 740.77 653.08 636.04 645.97 636.13 647.07 740.86"/><path class="cls-18" d="M661.38,642.81l29.52-3.24a180.6,180.6,0,0,1,35.18-.43l29.58,2.52.17,16-47.14.58-47.15.57Z"/><polygon class="cls-19" points="661.54 658.83 755.83 657.68 755.81 655.35 661.52 656.5 661.54 658.83"/><polygon class="cls-18" points="661.68 672.28 755.97 671.13 756.25 698.33 709.11 698.91 661.97 699.49 661.68 672.28"/><polygon class="cls-19" points="661.97 699.49 756.25 698.33 756.21 694.38 661.93 695.53 661.97 699.49"/><ellipse class="cls-18" cx="756.62" cy="625.77" rx="5.12" ry="9.01" transform="translate(-5.95 7.26) rotate(-0.55)"/><path class="cls-19" d="M751.5,625.83c0,4.32,2.3,7.86,3.29,7.84s-1.39-3.49-1.44-7.81,2.25-7.87,1.27-7.85S751.46,621.5,751.5,625.83Z"/><ellipse class="cls-18" cx="755.5" cy="625.78" rx="5.12" ry="9.01" transform="translate(-5.95 7.25) rotate(-0.55)"/><path class="cls-19" d="M750.38,625.84c0,4.33,2.3,7.86,3.28,7.85s-1.38-3.49-1.43-7.82,2.25-7.86,1.27-7.85S750.34,621.51,750.38,625.84Z"/><ellipse class="cls-18" cx="652.99" cy="627.08" rx="5.12" ry="9.01" transform="translate(-5.96 6.27) rotate(-0.55)"/><path class="cls-19" d="M647.87,627.15c0,4.32,2.3,7.86,3.28,7.84s-1.39-3.49-1.43-7.81,2.25-7.87,1.27-7.86S647.83,622.82,647.87,627.15Z"/><polygon class="cls-19" points="508.01 701.37 646.64 699.67 646.35 672.47 507.73 674.16 508.01 701.37"/><path class="cls-20" d="M525.22,616.06l65.51-.8c2.51,0,12.31,1.37,16.53,7.1l10.85,16.29c.09,8.8-8.88,8.4-8.88,8.4l-54.79.68a32.9,32.9,0,0,1-4.36.54c-1.08.06-9.48.46-16.19-3.08-10.94-5.76-14.8-20.57-15.36-22.83A6.53,6.53,0,0,1,525.22,616.06Z"/><path class="cls-20" d="M543,616.22c-7.28.1-13.41-.65-17.75-.16,0,0-4.82.12-5.14,2.28-1.6,11,0,1.67-.3,5.63-.2,2.84,3.87,10.79,6.41,14,3.08,3.85,4.47,5.5,6.2,6.36,3.87,1.92,3.42,2.89,7.41,3.42a84.09,84.09,0,0,0,16.31,0"/><path class="cls-21" d="M553.67,724.65l62.22-.76.32-61.5c0-6.44,4-9.53,8.46-13.33l10.21-4.59-63,.77c-10.5.13-18.9,10.17-18.78,22.42Z"/><path class="cls-20" d="M535.14,645.87A22.59,22.59,0,0,0,525,649c-8.48,5.8-9.35,17.54-9.41,18.54a27.24,27.24,0,0,0,.41,6.53"/><path class="cls-20" d="M515.54,674.07l11.16-.14-.1-9.95a27.52,27.52,0,0,1,1-7.46v0c.14-.51-.34-1-.74-.69l-5.18,3.6c-3.44,0-6.22,3.36-6.18,7.37Z"/><path class="cls-22" d="M512.33,734h50.16c11.76,0,21.37-8.46,21.63-19.06L585,677c.14-6,5.91-8.79,12.36-12.26l14.74-4.14H521.53c-15.08,0-27.31,9.21-27.31,20.57v36.52C494.22,726.7,502.33,734,512.33,734Z"/><rect class="cls-8" x="440.22" y="585.54" width="18.9" height="167.24" transform="translate(899.34 1338.32) rotate(180)"/><rect class="cls-9" x="438.72" y="585.54" width="9.45" height="167.24" transform="translate(886.9 1338.32) rotate(180)"/><rect class="cls-8" x="303.85" y="585.54" width="18.9" height="185.55" transform="translate(626.59 1356.62) rotate(180)"/><rect class="cls-9" x="302.35" y="585.54" width="9.45" height="185.55" transform="translate(614.16 1356.62) rotate(180)"/><path class="cls-8" d="M322.75,596.51l39.31-4.6a200.16,200.16,0,0,1,46.8,0l39.32,4.6V622.1H322.75Z"/><polygon class="cls-8" points="322.75 643.57 448.18 643.57 448.18 669.16 385.46 669.16 322.75 669.16 322.75 643.57"/><rect class="cls-9" x="322.75" y="665.44" width="125.43" height="3.72" transform="translate(770.92 1334.61) rotate(180)"/><ellipse class="cls-8" cx="449.67" cy="571.15" rx="6.81" ry="14.39"/><path class="cls-9" d="M442.86,571.15c0,6.91,2.95,12.6,4.26,12.6s-1.8-5.61-1.8-12.51,3.1-12.52,1.8-12.52S442.86,564.24,442.86,571.15Z"/><ellipse class="cls-8" cx="448.18" cy="571.15" rx="6.81" ry="14.39"/><path class="cls-9" d="M441.37,571.15c0,6.91,2.95,12.6,4.26,12.6s-1.8-5.61-1.8-12.51,3.1-12.52,1.8-12.52S441.37,564.24,441.37,571.15Z"/><ellipse class="cls-8" cx="311.8" cy="571.24" rx="6.81" ry="14.39"/><path class="cls-9" d="M305,571.24c0,6.9,2.95,12.59,4.25,12.59s-1.79-5.6-1.79-12.51,3.1-12.51,1.79-12.51S305,564.33,305,571.24Z"/><path class="cls-20" d="M322.75,662.17H632.59a0,0,0,0,1,0,0v18.62a7.8,7.8,0,0,1-7.8,7.8h-302a0,0,0,0,1,0,0V662.17A0,0,0,0,1,322.75,662.17Z" transform="translate(955.34 1350.75) rotate(180)"/><rect class="cls-9" x="311.8" y="688.58" width="184.41" height="25.54" transform="translate(808.02 1402.7) rotate(180)"/><path class="cls-20" d="M335.88,634.25H423c3.34,0,16.35,1.43,21.88,6.85l14.21,15.42c0,8.26-11.93,7.78-11.93,7.78H374.3c-1.39.18-3.39.38-5.8.46-1.44,0-12.61.32-21.49-3.08-14.47-5.53-19.41-19.48-20.12-21.61C326.89,636.87,330.93,634.25,335.88,634.25Z"/><path class="cls-20" d="M359.49,634.6c-9.69,0-17.83-.77-23.61-.35,0,0-6.42.06-6.87,2.08-2.28,10.26-.05,1.56-.48,5.28-.31,2.66,5,10.17,8.34,13.19,4,3.65,5.86,5.22,8.16,6.05,5.11,1.85,4.5,2.74,9.81,3.29a156.91,156.91,0,0,0,21.69.17"/><path class="cls-12" d="M403.67,661.51c0,18.5,46.18,12,80.1,12s60.28,8,60.28-10.5-17-32.25-50.94-32.25S403.67,643,403.67,661.51Z"/><path class="cls-20" d="M348.67,662.34a39.67,39.67,0,0,0-13.61,2.81,22.42,22.42,0,0,0-12.77,17.29,18,18,0,0,0,.46,6.14"/><path class="cls-20" d="M322.21,688.58H337v-9.34a18.89,18.89,0,0,1,1.39-7l0,0c.19-.49-.44-.91-1-.66l-7,3.31c-4.57,0-8.31,3.09-8.31,6.86Z"/><ellipse class="cls-13" cx="416.34" cy="647.37" rx="24.48" ry="35.68" transform="translate(-311.24 898.47) rotate(-76.29)"/><path class="cls-23" d="M427.28,615.4c4.31,3.29,4.9,7.31,5.41,9.32.77,3-2.06,9.39-8,11.36-6.78,2.26-2.19,2.65-2.83,4.32-.76,2,.25,12.14,1.8,17.5,1.11,3.82-2.67,4.4-6.17,8.86-5.33,6.79-17.77,21.94-27.09,22.81-7.28.67-10.93,4.78-18.13.23-5.88-3.7-6.56-16.9-8.66-22.46-1.63-4.34,8-14.91,9.47-22.46,1.8-9.32-4-8.58-1.13-13.34s-2.12-10.69,18.52-15.91c14-3.55,18.79-3.79,23.16-.68C416.33,616.85,422.8,612,427.28,615.4Z"/><path class="cls-24" d="M411.85,723.63h75.74c10.48,0,19.9-4.43,23.84-11.2l22.64-39c22.55-11.72,56.87,1.84,64.67-1.78l-9.58-16.74c-5-8.67-13.92-15.94-25.47-20.67l-2.9-1.18-25.92-5.73a53.45,53.45,0,0,0-12.07-.62l-22.42.15-20.26,2.48a35.34,35.34,0,0,1-3.85.08c-22.36-.94-79.48,27.36-79.48,39v44.68C396.79,718.93,403.54,723.63,411.85,723.63Z"/><rect class="cls-8" x="634.08" y="654.47" width="18.9" height="110.4" transform="translate(1287.06 1419.34) rotate(180)"/><rect class="cls-9" x="632.59" y="654.47" width="9.45" height="110.4" transform="translate(1274.62 1419.34) rotate(180)"/><rect class="cls-8" x="497.71" y="654.47" width="18.9" height="125.93" transform="translate(1014.32 1434.87) rotate(180)"/><rect class="cls-9" x="496.22" y="654.47" width="9.45" height="125.93" transform="translate(1001.88 1434.87) rotate(180)"/><path class="cls-8" d="M516.61,660.92l39.31-2.71a341.56,341.56,0,0,1,46.8,0L642,660.92v15H516.61Z"/><rect class="cls-9" x="516.61" y="673.77" width="125.43" height="2.19" transform="translate(1158.65 1349.73) rotate(180)"/><polygon class="cls-8" points="516.61 688.58 642.04 688.58 642.04 714.12 579.33 714.12 516.61 714.12 516.61 688.58"/><rect class="cls-9" x="516.61" y="710.41" width="125.43" height="3.71" transform="translate(1158.65 1424.53) rotate(180)"/><ellipse class="cls-8" cx="643.53" cy="646.01" rx="6.81" ry="8.46"/><path class="cls-9" d="M636.73,646c0,4.06,2.95,7.4,4.25,7.4s-1.8-3.29-1.8-7.35,3.11-7.35,1.8-7.35S636.73,642,636.73,646Z"/><ellipse class="cls-8" cx="642.04" cy="646.01" rx="6.81" ry="8.46"/><path class="cls-9" d="M635.23,646c0,4.06,2.95,7.4,4.26,7.4s-1.8-3.29-1.8-7.35,3.1-7.35,1.8-7.35S635.23,642,635.23,646Z"/><ellipse class="cls-8" cx="505.67" cy="646.06" rx="6.81" ry="8.46"/><path class="cls-9" d="M498.86,646.06c0,4.06,2.95,7.4,4.26,7.4s-1.8-3.29-1.8-7.35,3.1-7.36,1.8-7.36S498.86,642,498.86,646.06Z"/><path class="cls-16" d="M402.66,602.09l25.73,5"/><path class="cls-22" d="M1413.76,693.94h-48.94c-11.47,0-20.84-7.77-21.09-17.49l-.9-34.83c-.14-5.48-5.76-8.06-12.06-11.25l-14.38-3.8h88.39c14.72,0,26.65,8.45,26.65,18.88V679C1431.43,687.24,1423.52,693.94,1413.76,693.94Z"/><rect class="cls-8" x="1465.67" y="557.69" width="18.44" height="153.49"/><rect class="cls-9" x="1476.34" y="557.69" width="9.22" height="153.49"/><rect class="cls-8" x="1598.7" y="557.69" width="18.44" height="170.29"/><rect class="cls-9" x="1609.37" y="557.69" width="9.22" height="170.29"/><path class="cls-8" d="M1598.7,567.75l-38.35-4.22a208.69,208.69,0,0,0-45.66,0l-38.35,4.22v23.49H1598.7Z"/><polygon class="cls-8" points="1598.7 610.95 1476.34 610.95 1476.34 634.43 1537.52 634.43 1598.7 634.43 1598.7 610.95"/><rect class="cls-9" x="1476.34" y="631.02" width="122.36" height="3.41"/><ellipse class="cls-8" cx="1474.89" cy="544.48" rx="6.64" ry="13.2"/><path class="cls-9" d="M1481.52,544.48c0,6.34-2.87,11.56-4.15,11.56s1.76-5.14,1.76-11.48-3-11.48-1.76-11.48S1481.52,538.14,1481.52,544.48Z"/><ellipse class="cls-8" cx="1476.34" cy="544.48" rx="6.64" ry="13.2"/><path class="cls-9" d="M1483,544.48c0,6.34-2.88,11.56-4.15,11.56s1.75-5.14,1.75-11.48-3-11.48-1.75-11.48S1483,538.14,1483,544.48Z"/><ellipse class="cls-8" cx="1609.37" cy="544.56" rx="6.64" ry="13.2"/><path class="cls-9" d="M1616,544.56c0,6.34-2.88,11.56-4.15,11.56s1.76-5.14,1.76-11.49-3-11.48-1.76-11.48S1616,538.22,1616,544.56Z"/><path class="cls-20" d="M1296.44,628h295.1a7.15,7.15,0,0,1,7.15,7.15v17.09a0,0,0,0,1,0,0H1296.44a0,0,0,0,1,0,0V628A0,0,0,0,1,1296.44,628Z"/><rect class="cls-9" x="1429.48" y="652.26" width="179.9" height="23.44"/><path class="cls-20" d="M1585.89,602.39h-85c-3.26,0-15.95,1.31-21.35,6.29l-13.85,14.15c0,7.58,11.64,7.14,11.64,7.14h71.09c1.37.16,3.32.35,5.67.42,1.4,0,12.3.29,21-2.83,14.11-5.08,18.93-17.87,19.63-19.83C1594.66,604.8,1590.71,602.39,1585.89,602.39Z"/><path class="cls-20" d="M1562.86,602.71c9.45,0,17.39-.7,23-.32,0,0,6.26.05,6.7,1.91,2.23,9.42.05,1.43.47,4.84.3,2.45-4.88,9.34-8.14,12.11-3.94,3.35-5.72,4.79-8,5.55-5,1.7-4.39,2.52-9.57,3a162.5,162.5,0,0,1-21.15.16"/><path class="cls-12" d="M1519.75,627.41c0,17-45,11-78.13,11s-58.81,7.35-58.81-9.63,16.61-29.6,49.7-29.6S1519.75,610.43,1519.75,627.41Z"/><path class="cls-20" d="M1573.41,628.17a40.47,40.47,0,0,1,13.27,2.58,20.52,20.52,0,0,1,12.46,15.87,15.54,15.54,0,0,1-.44,5.64"/><path class="cls-20" d="M1599.23,652.26h-14.48v-8.58a16.35,16.35,0,0,0-1.35-6.41l0,0c-.18-.45.43-.84.95-.61l6.78,3c4.46,0,8.12,2.83,8.12,6.29Z"/><ellipse class="cls-13" cx="1507.4" cy="614.43" rx="34.7" ry="22.54" transform="translate(-93.52 319.73) rotate(-11.75)"/><path class="cls-23" d="M1496.72,585.09c-4.2,3-4.77,6.71-5.27,8.55-.75,2.79,2,8.62,7.78,10.43,6.62,2.08,2.14,2.43,2.76,4,.75,1.85-.25,11.15-1.76,16.06-1.07,3.51,2.61,4,6,8.14,5.2,6.23,17.33,20.14,26.43,20.93,7.1.61,10.65,4.39,17.68.22,5.73-3.41,6.4-15.52,8.44-20.62,1.6-4-7.81-13.69-9.23-20.62-1.76-8.55,3.9-7.87,1.1-12.24s2.07-9.81-18.07-14.6c-13.68-3.26-18.33-3.47-22.59-.63C1507.4,586.42,1501.1,581.94,1496.72,585.09Z"/><path class="cls-24" d="M1511.77,684.42h-73.88c-10.22,0-19.42-4.07-23.25-10.28l-22.09-35.78c-22-10.75-55.48,1.7-63.09-1.63l9.34-15.36c4.84-8,13.59-14.63,24.85-19l2.83-1.08,25.29-5.26a55.7,55.7,0,0,1,11.77-.57l21.88.14,19.76,2.27a36.11,36.11,0,0,0,3.75.08c21.81-.87,77.54,25.1,77.54,35.8v41C1526.47,680.1,1519.89,684.42,1511.77,684.42Z"/><rect class="cls-8" x="1276.55" y="620.95" width="18.44" height="101.32"/><rect class="cls-9" x="1287.22" y="620.95" width="9.22" height="101.32"/><rect class="cls-8" x="1409.58" y="620.95" width="18.44" height="115.58"/><rect class="cls-9" x="1420.26" y="620.95" width="9.22" height="115.58"/><path class="cls-8" d="M1409.58,626.86l-38.35-2.48a354.78,354.78,0,0,0-45.65,0l-38.36,2.48v13.81h122.36Z"/><rect class="cls-9" x="1287.22" y="638.66" width="122.36" height="2.01"/><polygon class="cls-8" points="1409.58 652.26 1287.22 652.26 1287.22 675.69 1348.4 675.69 1409.58 675.69 1409.58 652.26"/><rect class="cls-9" x="1287.22" y="672.29" width="122.36" height="3.4"/><ellipse class="cls-8" cx="1285.77" cy="613.18" rx="6.64" ry="7.76"/><path class="cls-9" d="M1292.41,613.18c0,3.73-2.88,6.8-4.15,6.8s1.75-3,1.75-6.75-3-6.75-1.75-6.75S1292.41,609.46,1292.41,613.18Z"/><ellipse class="cls-8" cx="1287.22" cy="613.18" rx="6.64" ry="7.76"/><path class="cls-9" d="M1293.86,613.18c0,3.73-2.87,6.8-4.15,6.8s1.76-3,1.76-6.75-3-6.75-1.76-6.75S1293.86,609.46,1293.86,613.18Z"/><ellipse class="cls-8" cx="1420.26" cy="613.23" rx="6.64" ry="7.76"/><path class="cls-9" d="M1426.9,613.23c0,3.73-2.88,6.79-4.16,6.79s1.76-3,1.76-6.75-3-6.75-1.76-6.75S1426.9,609.5,1426.9,613.23Z"/><path class="cls-16" d="M1520.74,572.87l-25.1,4.59"/><path class="cls-7" d="M1541,757h-56.76c-13.31,0-24.18-9.86-24.47-22.2l-1-44.17c-.16-7-6.69-10.24-14-14.28l-16.68-4.82h102.52c17.07,0,30.91,10.72,30.91,24V738C1561.52,748.53,1552.34,757,1541,757Z"/><rect class="cls-8" x="1601.23" y="584.18" width="21.39" height="194.73"/><rect class="cls-9" x="1613.61" y="584.18" width="10.69" height="194.73"/><rect class="cls-8" x="1755.53" y="584.18" width="21.39" height="194.73"/><rect class="cls-9" x="1767.92" y="584.18" width="10.69" height="194.73"/><path class="cls-8" d="M1755.53,597l-44.48-5.36a221.21,221.21,0,0,0-53,0L1613.61,597v29.79h141.92Z"/><polygon class="cls-8" points="1755.53 651.75 1613.62 651.75 1613.62 681.54 1684.57 681.54 1755.53 681.54 1755.53 651.75"/><rect class="cls-9" x="1613.61" y="677.21" width="141.92" height="4.33"/><ellipse class="cls-8" cx="1611.93" cy="567.43" rx="7.7" ry="16.75"/><path class="cls-9" d="M1619.63,567.43c0,8-3.34,14.66-4.82,14.66s2-6.52,2-14.57-3.51-14.56-2-14.56S1619.63,559.38,1619.63,567.43Z"/><ellipse class="cls-8" cx="1613.61" cy="567.43" rx="7.7" ry="16.75"/><path class="cls-9" d="M1621.32,567.43c0,8-3.34,14.66-4.82,14.66s2-6.52,2-14.57S1615,553,1616.5,553,1621.32,559.38,1621.32,567.43Z"/><ellipse class="cls-8" cx="1767.92" cy="567.52" rx="7.7" ry="16.75"/><path class="cls-9" d="M1775.62,567.52c0,8.05-3.34,14.67-4.82,14.67s2-6.53,2-14.57-3.51-14.57-2-14.57S1775.62,559.48,1775.62,567.52Z"/><path class="cls-10" d="M1405,673.4h343.42a7.16,7.16,0,0,1,7.16,7.16v23.59a0,0,0,0,1,0,0H1405a0,0,0,0,1,0,0V673.4A0,0,0,0,1,1405,673.4Z"/><rect class="cls-9" x="1559.26" y="704.15" width="208.66" height="29.73"/><path class="cls-10" d="M1740.68,640.89h-98.61c-3.78,0-18.5,1.67-24.77,8l-16.07,18c0,9.62,13.5,9.06,13.5,9.06h82.47a64.17,64.17,0,0,0,6.57.53c1.63.06,14.27.37,24.32-3.58,16.36-6.44,22-22.68,22.76-25.16C1750.85,644,1746.27,640.89,1740.68,640.89Z"/><path class="cls-11" d="M1714,641.3c11,0,20.18-.89,26.72-.41,0,0,7.26.07,7.77,2.43,2.58,11.94.06,1.81.54,6.14.35,3.1-5.66,11.85-9.43,15.36-4.58,4.25-6.64,6.08-9.24,7-5.78,2.15-5.09,3.2-11.09,3.83a172.42,172.42,0,0,1-24.54.2"/><path class="cls-12" d="M1664,672.64c0,21.54-52.25,14-90.63,14s-68.21,9.31-68.21-12.23,19.27-37.55,57.64-37.55S1664,651.09,1664,672.64Z"/><path class="cls-11" d="M1726.21,673.6a43.53,43.53,0,0,1,15.39,3.27A26.12,26.12,0,0,1,1756.05,697a21.48,21.48,0,0,1-.52,7.15"/><path class="cls-11" d="M1756.15,704.15h-16.79V693.28a22.48,22.48,0,0,0-1.57-8.14l0,0c-.21-.56.5-1.06,1.1-.77l7.87,3.86c5.17,0,9.41,3.59,9.41,8Z"/><ellipse class="cls-13" cx="1649.64" cy="656.17" rx="40.44" ry="28.46" transform="translate(-112.99 444.03) rotate(-14.83)"/><path class="cls-14" d="M1627,621.17c-4.87,3.84-5.54,8.51-6.12,10.85-.87,3.54,2.33,10.93,9,13.23,7.67,2.63,2.48,3.08,3.2,5,.87,2.34-.29,14.14-2,20.37-1.25,4.45,3,5.12,7,10.32,6,7.9,8.38,7.47,18.92,8.47,8.24.78,17.47-8.2,25.62-13.5,6.65-4.31,10.15-2,12.52-8.46,1.85-5.06.19-2.86-1.46-11.65-2-10.84-.83-10.33-4.07-15.87s2.39-12.44-21-18.52c-15.87-4.14-21.26-4.41-26.2-.8C1639.37,622.86,1632.06,617.17,1627,621.17Z"/><path class="cls-15" d="M1654.71,745H1569c-11.86,0-22.52-5.16-27-13l-25.63-45.39c-25.51-13.65-64.34,2.15-73.17-2.07L1454.09,665c5.61-10.1,15.75-18.56,28.82-24.06l3.28-1.38,29.33-6.67a58.74,58.74,0,0,1,13.65-.72l25.38.17,22.92,2.89a42.3,42.3,0,0,0,4.36.1c25.29-1.11,89.92,31.84,89.92,45.41v52C1671.75,739.48,1664.12,745,1654.71,745Z"/><rect class="cls-8" x="1381.88" y="664.43" width="21.39" height="114.47"/><rect class="cls-9" x="1394.26" y="664.43" width="10.69" height="114.47"/><rect class="cls-8" x="1536.18" y="664.43" width="21.39" height="114.47"/><rect class="cls-9" x="1548.56" y="664.43" width="10.69" height="114.47"/><path class="cls-8" d="M1536.18,671.94l-44.48-3.15a374.44,374.44,0,0,0-53,0l-44.48,3.15v17.51h141.92Z"/><rect class="cls-9" x="1394.26" y="686.91" width="141.92" height="2.54"/><polygon class="cls-8" points="1536.18 704.15 1394.26 704.15 1394.26 733.89 1465.22 733.89 1536.18 733.89 1536.18 704.15"/><rect class="cls-9" x="1394.26" y="729.57" width="141.92" height="4.32"/><ellipse class="cls-8" cx="1392.57" cy="654.59" rx="7.7" ry="9.85"/><path class="cls-9" d="M1400.27,654.59c0,4.72-3.34,8.62-4.81,8.62s2-3.84,2-8.57-3.51-8.56-2-8.56S1400.27,649.86,1400.27,654.59Z"/><ellipse class="cls-8" cx="1394.26" cy="654.59" rx="7.7" ry="9.85"/><path class="cls-9" d="M1402,654.59c0,4.72-3.34,8.62-4.81,8.62s2-3.84,2-8.57-3.51-8.56-2-8.56S1402,649.86,1402,654.59Z"/><ellipse class="cls-8" cx="1548.56" cy="654.64" rx="7.7" ry="9.85"/><path class="cls-9" d="M1556.26,654.64c0,4.73-3.34,8.62-4.81,8.62s2-3.83,2-8.56-3.51-8.56-2-8.56S1556.26,649.91,1556.26,654.64Z"/><path class="cls-16" d="M1665.11,603.44,1636,609.26"/><rect class="cls-25" x="735.61" y="200.98" width="270.61" height="282"/><path class="cls-26" d="M876.51,249.55a30.88,30.88,0,0,0-9.59-5.7c-3.6-1.31-12.74-4.64-18.58.17-5,4.1-3.26,10.59-7.82,12.89-4.32,2.17-7.36-2.89-12.2-1.4-7.52,2.31-7.25,9.73-3.75,13.35,3.17,3.3,5.43,2.23,18,4.37,5.48.93,5.68,3,11.91,3.67,6.53.65,7.13,5.22,11.9,3.66,9.35-3.05,12.21-3.25,16.84-2.66,6.76.86,11.8-1.66,14.8-2.9,4-1.64,6.64-15.22.84-22.88C894.23,246,884.9,244.58,876.51,249.55Z"/><path class="cls-26" d="M792.46,228a38.92,38.92,0,0,1,12.18-3.34c4.36-.45,15.43-1.59,20.74,4.42,4.53,5.14.94,11,5.46,14.33,4.27,3.11,9-1.12,14,1.44,7.83,4,5.63,11.12.8,13.85-4.39,2.47-6.65.92-21.26.11-6.37-.35-7.14,1.66-14.25.83-7.47-.86-9.32,3.45-14.26.83-9.66-5.11-12.82-6-18.15-6.45-7.78-.71-12.77-4.32-15.81-6.21-4-2.51-3.54-16.32,4.9-22.44C773.55,220.5,784.35,221.28,792.46,228Z"/><path class="cls-26" d="M923.86,286.74a46.53,46.53,0,0,1,14.48-3.87c5.19-.52,18.37-1.83,24.69,5.21,5.4,6,0,6,5.34,9.82,5.1,3.64,5.06,2.22,11,5.22,9.33,4.67-.12,20.69-17.51,19.72-7.58-.42-8.49,1.92-17,.94-8.9-1-20.37,3.2-26.25.13-11.52-6-4.71-4.64-11.05-5.22-9.27-.84-18.34-18.92-8.31-26.06C907.36,286.92,914.19,278.83,923.86,286.74Z"/><path class="cls-26" d="M895.46,305.3A37.21,37.21,0,0,1,908.21,301c4.55-.63,16.09-2.25,21.48,5,4.61,6.22-.16,6.28,4.48,10.22,4.38,3.73,4.37,2.24,9.55,5.28,8.06,4.73-.52,21.73-15.71,21-6.62-.3-7.46,2.18-14.85,1.3-7.76-.91-17.88,3.73-23,.62-10-6.09-4-4.79-9.56-5.28-8.08-.72-15.65-19.54-6.74-27.22C881,305.78,887.16,297.17,895.46,305.3Z"/><line class="cls-25" x1="870.91" y1="207.94" x2="870.91" y2="479.49"/><line class="cls-27" x1="742.92" y1="343.71" x2="998.9" y2="343.71"/><line class="cls-27" x1="742.92" y1="416.82" x2="863.6" y2="416.82"/><line class="cls-27" x1="880.05" y1="416.82" x2="997.08" y2="416.82"/><line class="cls-28" x1="743.44" y1="472.05" x2="999.96" y2="475.44"/><line class="cls-28" x1="862.32" y1="204.36" x2="862.04" y2="475.38"/><rect class="cls-25" x="1117.26" y="204.36" width="270.61" height="282"/><path class="cls-26" d="M1258.16,252.94a30.76,30.76,0,0,0-9.59-5.7c-3.6-1.31-12.74-4.64-18.58.17-5,4.1-3.25,10.59-7.82,12.89-4.32,2.17-7.36-2.89-12.2-1.4-7.52,2.31-7.25,9.73-3.75,13.35,3.17,3.29,5.43,2.23,18,4.37,5.48.93,5.69,3,11.91,3.66,6.53.66,7.14,5.23,11.91,3.67,9.34-3.06,12.21-3.25,16.83-2.66,6.76.86,11.8-1.66,14.81-2.9,4-1.64,6.63-15.22.83-22.88C1275.88,249.38,1266.55,248,1258.16,252.94Z"/><path class="cls-26" d="M1174.11,231.42a39,39,0,0,1,12.18-3.34c4.36-.45,15.44-1.59,20.74,4.42,4.53,5.14.94,11.05,5.46,14.33,4.27,3.1,9-1.12,14,1.44,7.82,4,5.62,11.12.79,13.84-4.39,2.48-6.64.92-21.26.12-6.37-.35-7.13,1.65-14.25.83-7.47-.86-9.32,3.44-14.25.83-9.67-5.11-12.83-6-18.15-6.45-7.79-.71-12.78-4.32-15.82-6.21-4-2.52-3.54-16.32,4.9-22.44C1155.2,223.89,1166,224.66,1174.11,231.42Z"/><path class="cls-26" d="M1305.51,290.13a46.86,46.86,0,0,1,14.48-3.88c5.2-.51,18.37-1.83,24.7,5.22,5.4,6,0,6,5.33,9.82,5.1,3.64,5.06,2.22,11,5.22,9.33,4.67-.12,20.69-17.51,19.72-7.58-.42-8.49,1.92-17,.94-8.89-1-20.37,3.2-26.25.13-11.52-6-4.71-4.64-11-5.22C1280,321.23,1271,303.16,1281,296,1289,290.31,1295.84,282.22,1305.51,290.13Z"/><path class="cls-26" d="M1277.11,308.69a37.29,37.29,0,0,1,12.75-4.34c4.55-.63,16.1-2.25,21.49,5,4.6,6.22-.17,6.28,4.47,10.22,4.38,3.73,4.37,2.24,9.55,5.28,8.06,4.73-.52,21.73-15.71,21-6.62-.31-7.46,2.17-14.85,1.3-7.76-.92-17.87,3.73-23,.62-9.95-6.1-4-4.79-9.55-5.28-8.09-.73-15.66-19.54-6.75-27.22C1262.69,309.17,1268.82,300.56,1277.11,308.69Z"/><line class="cls-25" x1="1252.56" y1="211.33" x2="1252.56" y2="482.88"/><line class="cls-27" x1="1124.57" y1="347.1" x2="1380.56" y2="347.1"/><line class="cls-27" x1="1124.57" y1="420.21" x2="1245.25" y2="420.21"/><line class="cls-27" x1="1261.71" y1="420.21" x2="1378.73" y2="420.21"/><line class="cls-28" x1="1125.09" y1="475.44" x2="1381.61" y2="478.83"/><line class="cls-28" x1="1243.97" y1="207.75" x2="1243.69" y2="478.77"/><g id="картинка"><polygon class="cls-29" points="587.03 428 314.87 485.61 299.89 310.19 577.64 268.75 587.03 428"/><ellipse class="cls-30" cx="378.81" cy="397.26" rx="30.05" ry="34.3" transform="translate(-24.37 24.75) rotate(-3.63)"/><ellipse class="cls-31" cx="499.79" cy="372.32" rx="65.51" ry="48.67" transform="translate(-64.18 107.09) rotate(-11.5)"/><path class="cls-32" d="M479.86,364.14c-14.92,21.76-10.08,51.43-31.28,55.07S407,404.1,403.11,377.33s16.62-72.06,31.28-55.08C471.56,365.33,484,358.05,479.86,364.14Z"/></g><ellipse class="cls-29" cx="1644.39" cy="368.71" rx="71.95" ry="79.63"/><ellipse class="cls-29" cx="1744.49" cy="322.96" rx="68.82" ry="91.49"/><ellipse class="cls-29" cx="1567.75" cy="441.56" rx="57.87" ry="60.99"/><path class="cls-33" d="M923.15,594c-8.38-2.91-13.57-8.18-17-11.68-6-6.09-9.77-12.9-8.85-13.64,1.37-1.09,11.47,12.75,17.7,10.39,4-1.52,6.49-9.85,4-15.72a10.6,10.6,0,0,0-.58-1.16c-4.92-8.52-20.34-6.29-25.87-13.63-4-5.34-2.2-14.92,1.36-16.23,6.67-2.45,19.08,24.24,30,21.42,3.22-.83,5-3.92,6.13-5.84,5.73-9.87-2.65-19.45,1.36-23.37s18.45-1.06,23.15,7.14c7.79,13.62-13.73,38.45-10.9,40.25,2,1.24,9.92-12.05,19.75-11,5.64.58,11,5.79,11.57,11,.8,7.79-9.31,13.62-15,16.88C956.43,590.85,940.45,600.06,923.15,594Z"/><path class="cls-34" d="M955.83,648.25l-47.32-.45-14-56.35c0-2.86,3.54-5.2,7.85-5.2H967c4.32,0,7.85,2.34,7.85,5.2Z"/><path class="cls-35" d="M1397.25,448.33l-2.07-1.6c-21.44-16.59-45.48-28.47-70.57-37.17-51.75-17.95-86.9-82.42-86.9-144.2V194.2h159.54V392.44C1397.25,395.23,1399.83,448.33,1397.25,448.33Z"/><path class="cls-36" d="M1104.31,448.33l2-1.6c20.86-16.59,44.27-28.47,68.69-37.17,50.38-17.95,84.59-82.42,84.59-144.2V194.2h-155.3V392.44C1104.31,395.23,1101.8,448.33,1104.31,448.33Z"/><path class="cls-37" d="M1015.6,445l-2.07-1.61C992.09,426.76,968,414.88,943,406.17c-51.75-17.95-86.9-82.42-86.9-144.2V190.81H1015.6V389.05C1015.6,391.84,1018.18,445,1015.6,445Z"/><path class="cls-38" d="M725.78,445l2-1.61c20.86-16.58,44.27-28.46,68.69-37.17,50.37-17.95,84.59-82.42,84.59-144.2V190.81H725.78V389.05C725.78,391.84,723.28,445,725.78,445Z"/></g></svg>