<svg id="Слой_1" data-name="Слой 1" xmlns="http://www.w3.org/2000/svg" viewBox="0 0 1920 1080"><defs><style>.cls-1{fill:#cebbae;}.cls-2{fill:#b79477;}.cls-3{fill:#96796f;}.cls-4{fill:#d8c0ad;}</style></defs><title>Меняем </title><rect class="cls-1" x="242.88" y="229.8" width="119" height="601"/><rect class="cls-2" x="242.88" y="229.8" width="59.5" height="21"/><rect class="cls-3" x="302.38" y="229.8" width="59.5" height="31.67"/><rect class="cls-3" x="242.88" y="242.8" width="66.67" height="35"/><rect class="cls-4" x="291.55" y="253.8" width="70.33" height="24"/><rect class="cls-4" x="242.88" y="277.46" width="59.5" height="21"/><rect class="cls-2" x="302.38" y="278.46" width="59.5" height="31.67"/><rect class="cls-3" x="242.88" y="290.46" width="66.67" height="35"/><rect class="cls-4" x="291.55" y="301.46" width="70.33" height="24"/><rect class="cls-2" x="242.88" y="325.46" width="59.5" height="21"/><rect class="cls-3" x="302.38" y="325.46" width="59.5" height="31.67"/><rect class="cls-2" x="242.88" y="338.46" width="66.67" height="35"/><rect class="cls-4" x="291.55" y="349.46" width="70.33" height="24"/><rect class="cls-3" x="242.88" y="373.13" width="59.5" height="21"/><rect class="cls-2" x="302.38" y="373.13" width="59.5" height="31.67"/><rect class="cls-3" x="242.88" y="386.13" width="66.67" height="35"/><rect class="cls-4" x="291.55" y="397.13" width="70.33" height="24"/><rect class="cls-2" x="242.88" y="421.13" width="59.5" height="21"/><rect class="cls-3" x="302.38" y="421.13" width="59.5" height="31.67"/><rect class="cls-4" x="242.88" y="434.13" width="66.67" height="35"/><rect class="cls-4" x="291.55" y="445.13" width="70.33" height="24"/><rect class="cls-2" x="242.88" y="468.8" width="59.5" height="21"/><rect class="cls-3" x="302.38" y="468.8" width="59.5" height="31.67"/><rect class="cls-2" x="242.88" y="481.8" width="66.67" height="35"/><rect class="cls-3" x="291.55" y="492.8" width="70.33" height="24"/><rect class="cls-2" x="242.88" y="526.8" width="59.5" height="21"/><rect class="cls-4" x="302.38" y="526.8" width="59.5" height="31.67"/><rect class="cls-2" x="242.88" y="539.8" width="66.67" height="35"/><rect class="cls-4" x="291.55" y="550.8" width="70.33" height="24"/><rect class="cls-3" x="242.88" y="574.46" width="59.5" height="21"/><rect class="cls-2" x="302.38" y="574.46" width="59.5" height="31.67"/><rect class="cls-3" x="242.88" y="587.46" width="66.67" height="35"/><rect class="cls-4" x="291.55" y="598.46" width="70.33" height="24"/><rect class="cls-4" x="242.88" y="622.46" width="59.5" height="21"/><rect class="cls-2" x="302.38" y="622.46" width="59.5" height="31.67"/><rect class="cls-2" x="242.88" y="635.46" width="66.67" height="35"/><rect class="cls-3" x="291.55" y="646.46" width="70.33" height="24"/><rect class="cls-3" x="242.88" y="670.13" width="59.5" height="21"/><rect class="cls-4" x="302.38" y="670.13" width="59.5" height="31.67"/><rect class="cls-2" x="242.88" y="683.13" width="66.67" height="35"/><rect class="cls-4" x="291.55" y="694.13" width="70.33" height="24"/><rect class="cls-3" x="242.88" y="727.8" width="59.5" height="21"/><rect class="cls-2" x="302.38" y="727.8" width="59.5" height="31.67"/><rect class="cls-2" x="242.88" y="740.8" width="66.67" height="35"/><rect class="cls-3" x="291.55" y="751.8" width="70.33" height="24"/><rect class="cls-4" x="242.88" y="775.46" width="59.5" height="21"/><rect class="cls-4" x="302.38" y="775.46" width="59.5" height="31.67"/><rect class="cls-3" x="242.88" y="788.46" width="66.67" height="35"/><rect class="cls-2" x="291.55" y="799.46" width="70.33" height="24"/></svg>