<svg id="Слой_1" data-name="Слой 1" xmlns="http://www.w3.org/2000/svg" viewBox="0 0 370.37 819.62"><defs><style>.cls-1{fill:#d8c0ad;}.cls-2{fill:#b79477;}.cls-3{fill:#96796f;}</style></defs><title>Меняем </title><rect class="cls-1" x="105.84" y="95.17" width="119" height="601" rx="17.8" ry="17.8"/><path class="cls-2" d="M158.45,135.81c5.32,12.06,56.64,10.33,65.08-9,4.72-10.8-4-27-16.41-30.77C184.61,89.25,153.42,124.39,158.45,135.81Z"/><path class="cls-3" d="M166.45,99.7c9,11.37-30.23,57-48.58,52.26-10.2-2.65-15.46-21.29-9.58-34.84C118.48,93.63,159.65,91.09,166.45,99.7Z"/><path class="cls-3" d="M132.15,176.15c1.22,13.29,50.12,33.24,76.72,9.34,11.94-10.74,20.51-31.32,13.36-39.84C208,128.67,130.56,158.81,132.15,176.15Z"/><path class="cls-2" d="M159.29,137.63c-4.13-2.93-21.26,7.9-19.89,13.86.76,3.35,7.45,5.62,12.5,4.27C160.93,153.35,162.58,140,159.29,137.63Z"/><path class="cls-2" d="M122.67,170.56c4,3.05,21.48-7.27,20.29-13.27-.67-3.37-7.28-5.83-12.37-4.63C121.5,154.8,119.45,168.13,122.67,170.56Z"/><path class="cls-2" d="M117.1,168.7c3.11-1.32,2.24-14.76-1.77-16.06-2.26-.72-5.81,2.27-6.65,5.6C107.16,164.18,114.63,169.75,117.1,168.7Z"/><path class="cls-2" d="M160.7,199.17c.15-3-11.21-7-13.87-4.2-1.49,1.6-.45,5.58,1.94,7.45C153,205.76,160.58,201.58,160.7,199.17Z"/><path class="cls-3" d="M141.63,201.47c2.81-8.3-20.69-34.64-29.27-30.14-4.8,2.53-5.57,15.1-1.46,23.52C118.24,209.89,139.4,208.08,141.63,201.47Z"/><path class="cls-2" d="M109.79,216.1c.35-5.36,36.66-9.72,52.1-12.07,14-2.14,13.36,2.18,23.47-.82,18.31-5.44,32-28.52,35.53-25.94s-4.41,22.92.61,39.52a23.8,23.8,0,0,1-.74,16C216.24,246.07,109.11,226.71,109.79,216.1Z"/><path class="cls-3" d="M170.61,250.76c4,10.54-43.77,12.93-57.8.78-7.8-6.76-6.33-19,3-22.79C131.88,222.22,167.59,242.77,170.61,250.76Z"/><path class="cls-2" d="M156.49,282.39c5.32,12.06,56.63,10.33,65.08-9,4.72-10.8-4-27-16.41-30.77C182.64,235.83,151.45,271,156.49,282.39Z"/><path class="cls-3" d="M117.28,296c9.78,8.82,37.06,5.22,30.71-9.69-3.55-8.33-17.55-20.12-26.53-22.38C105.21,259.87,108,287.67,117.28,296Z"/><path class="cls-2" d="M118.81,303.15c3.46,0,36.45,9.62,38.59,19.29,1.94,8.77-25,22.74-22.61,29,4.25,11.35,15.06,18,13.54,20.35s-15-1.84-25.44,2a15.64,15.64,0,0,1-10.32.2C103.82,371.71,112,303.16,118.81,303.15Z"/><path class="cls-3" d="M196.19,292.22c-8.93-4.88-46,13.17-43,23.12,1.65,5.57,16.11,9.36,27,7.11C199.73,318.43,203.3,296.11,196.19,292.22Z"/><path class="cls-2" d="M174.81,363.45c13.52-2.1,52-42.94,43.65-49.23-4.66-3.52-24.66,3.34-37.41,12.8C158.26,343.94,164,365.13,174.81,363.45Z"/><path class="cls-3" d="M158.41,394.63c4.07,12.53,52.51,16.74,62-1.41,5.28-10.14-1.63-27.17-13-32.31C186.68,351.61,154.56,382.76,158.41,394.63Z"/><path class="cls-2" d="M132.17,381.9c14.39-1.62,32.48,55.79,18.75,68.85-7.63,7.27-26.24,1.9-34.65-10.25C101.7,419.45,121.26,383.14,132.17,381.9Z"/><path class="cls-3" d="M164,335.31C159,331,138.37,347,140,355.82c.92,4.95,9,8.31,15,6.32C165.92,358.57,167.91,338.76,164,335.31Z"/><path class="cls-2" d="M105.87,664.31c.34-5.36,36.66-9.72,52.1-12.07,14-2.13,13.36,2.18,23.47-.82,18.31-5.43,32-28.52,35.52-25.94,3.65,2.69-4.41,22.93.61,39.53a23.74,23.74,0,0,1-.74,16C212.32,694.28,105.18,674.92,105.87,664.31Z"/><path class="cls-2" d="M198.82,495.05c-3.95.48-40.28,14.54-41.39,24.42-1,9,31.6,19.11,29.78,25.65-3.28,11.83-14.7,19.94-12.64,22s16.8-3.88,29.3-1.49a20.45,20.45,0,0,0,11.81-1.23C225.35,560.94,206.66,494.11,198.82,495.05Z"/><path class="cls-3" d="M112.27,563.56c4.06,12.54,52.51,16.75,62-1.41,5.28-10.13-1.63-27.17-13.05-32.31C140.53,520.54,108.42,551.69,112.27,563.56Z"/><path class="cls-3" d="M164.52,441.48c9.79,8.82,37.06,5.22,30.71-9.69-3.54-8.33-17.55-20.12-26.53-22.38C152.45,405.33,155.26,433.13,164.52,441.48Z"/><path class="cls-3" d="M173.45,480.42c4,10.54-43.78,12.94-57.81.78-7.8-6.76-6.33-19,3-22.79C134.71,451.89,170.42,472.44,173.45,480.42Z"/><path class="cls-3" d="M178.51,461c.7,6.87,24,17.62,36.41,5.52,5.55-5.43,9.42-16,6-20.44C214,437.19,177.6,452.05,178.51,461Z"/><path class="cls-3" d="M176,591.73c.7,6.87,24,17.62,36.41,5.52,5.55-5.43,9.42-16,6-20.45C211.48,567.9,175.11,582.76,176,591.73Z"/><path class="cls-2" d="M119.66,530.68c12,5.55,39.72-11.38,30.17-25.54-5.34-7.92-22.27-14.91-32.1-13.29C100,494.78,108.35,525.43,119.66,530.68Z"/><path class="cls-3" d="M119.94,641.89c14.41,12.89,59.68,2,52-21.67-4.29-13.21-25.06-30.29-39.35-32.42C106.73,584,106.29,629.68,119.94,641.89Z"/><path class="cls-2" d="M202.32,310.2c4.05,3.05,21.49-7.27,20.3-13.27-.67-3.37-7.29-5.84-12.38-4.64C201.15,294.44,199.11,307.77,202.32,310.2Z"/><path class="cls-2" d="M161.92,368.48c-4.13-2.93-21.26,7.91-19.89,13.87.76,3.34,7.45,5.61,12.5,4.27C163.56,384.2,165.21,370.82,161.92,368.48Z"/><path class="cls-2" d="M224.23,345.53c.15-3-11.21-7-13.87-4.2-1.49,1.6-.45,5.58,1.94,7.45C216.57,352.12,224.11,347.94,224.23,345.53Z"/><path class="cls-2" d="M211.61,354.08c.15-3-11.21-7.05-13.87-4.19-1.49,1.59-.45,5.57,1.94,7.45C204,360.68,211.49,356.49,211.61,354.08Z"/><path class="cls-2" d="M191.53,424.22c4,3,21.48-7.27,20.29-13.27-.67-3.36-7.28-5.83-12.37-4.63C190.36,408.46,188.31,421.8,191.53,424.22Z"/><path class="cls-2" d="M217.24,421.11C213.11,418.18,196,429,197.35,435c.77,3.34,7.45,5.61,12.51,4.26C218.88,436.83,220.53,423.44,217.24,421.11Z"/><path class="cls-3" d="M213.51,602.34c-5-4.33-25.58,11.69-23.93,20.51.92,4.95,9,8.31,15,6.32C215.48,625.6,217.47,605.79,213.51,602.34Z"/><path class="cls-2" d="M158.54,260.53c-4.13-2.93-21.25,7.9-19.89,13.86.77,3.35,7.45,5.62,12.51,4.27C160.18,276.25,161.83,262.86,158.54,260.53Z"/><path class="cls-2" d="M171.36,446.75c-4.13-2.93-21.25,7.9-19.89,13.87.77,3.34,7.45,5.61,12.51,4.26C173,462.47,174.65,449.08,171.36,446.75Z"/><path class="cls-2" d="M189.58,629.35c-4.13-2.93-21.26,7.9-19.89,13.86.77,3.35,7.45,5.62,12.5,4.27C191.22,645.07,192.87,631.68,189.58,629.35Z"/><path class="cls-2" d="M156.15,600.29c4.52,5,24.36-12.31,23.11-22.19-.7-5.54-8.13-9.51-13.89-7.45C155.07,574.32,152.55,596.34,156.15,600.29Z"/><path class="cls-2" d="M182.21,493.14c7.06,3.14,37-6.82,34.85-12.85-1.23-3.38-12.74-6-21.53-4.9C179.84,477.34,176.58,490.64,182.21,493.14Z"/><path class="cls-3" d="M122.05,576c-3.35-3.34-17.28,9-16.17,15.78.62,3.81,6.06,6.4,10.17,4.86C123.39,593.92,124.73,578.67,122.05,576Z"/></svg>