<svg xmlns="http://www.w3.org/2000/svg" viewBox="0 0 1920 1080"><defs><style>.cls-1{fill:#d7dae2;}.cls-2{fill:#d3c2ba;}.cls-18,.cls-28,.cls-29,.cls-3,.cls-8,.cls-9{fill:none;}.cls-3{stroke:#a88c7d;stroke-width:0.5px;}.cls-18,.cls-28,.cls-29,.cls-3,.cls-6,.cls-8,.cls-9{stroke-miterlimit:10;}.cls-4{fill:#ced4e0;}.cls-5{fill:#bcc6dd;}.cls-6{fill:#bdeaef;stroke:#b68767;stroke-width:5px;}.cls-7{fill:#e8f0f1;}.cls-8{stroke:#bd9376;}.cls-8,.cls-9{stroke-width:2px;}.cls-9{stroke:#9d7862;}.cls-10{fill:#fdd7e8;}.cls-11{fill:#fdc5d0;}.cls-12{fill:#d9fce5;}.cls-13{fill:#d1fcc8;}.cls-14{fill:#ddd9fc;}.cls-15{fill:#c8c8fc;}.cls-16{fill:#f2ece7;}.cls-17{fill:#efe3d5;}.cls-18{stroke:#b7a08a;}.cls-19{fill:#c1c1c1;}.cls-20{fill:#999;}.cls-21{fill:#d1cfcb;}.cls-22{fill:#e5e4e3;}.cls-23{fill:#b7a08a;}.cls-24{fill:#9fc4a5;}.cls-25{fill:#aaa9c2;}.cls-26{fill:#cc9e96;}.cls-27{fill:#ccaca8;}.cls-28,.cls-29{stroke:#000;}.cls-28{stroke-width:0.75px;}.cls-29{stroke-width:0.25px;}.cls-30{fill:#b8c2d8;}.cls-31{fill:#b0bed6;}</style></defs><title>Столовая</title><g id="Слой_1" data-name="Слой 1"><rect class="cls-1" x="459.75" y="96" width="1201.59" height="488.42"/><g id="пол"><polygon class="cls-2" points="1759 761 368 761 459.75 584.42 1661.33 584.42 1759 761"/><line class="cls-3" x1="412.39" y1="680.22" x2="1711.65" y2="680.22"/><line class="cls-3" x1="433.11" y1="638.9" x2="1696.85" y2="638.9"/><line class="cls-3" x1="385.76" y1="729.06" x2="1741.24" y2="729.06"/><line class="cls-3" x1="450.87" y1="601.32" x2="1673.17" y2="601.32"/></g><polygon class="cls-4" points="459.75 584.42 368 761 368 96 459.75 96 459.75 584.42"/><polygon class="cls-4" points="1661.33 584.42 1759 761 1759 96 1661.33 96 1661.33 584.42"/><line class="cls-5" x1="455.31" y1="96" x2="461.23" y2="578.78"/></g><g id="окна"><rect class="cls-6" x="837.34" y="203.4" width="168.89" height="212.22"/><path class="cls-7" d="M925.28,240a18.83,18.83,0,0,0-6-4.29c-2.25-1-7.95-3.5-11.59.12-3.12,3.09-2,8-4.89,9.7-2.69,1.64-4.59-2.17-7.61-1.05-4.69,1.74-4.52,7.32-2.34,10.05,2,2.48,3.39,1.68,11.24,3.29,3.42.7,3.55,2.29,7.43,2.75,4.08.5,4.46,3.94,7.43,2.76,5.83-2.3,7.62-2.45,10.51-2,4.22.65,7.37-1.25,9.24-2.18,2.49-1.24,4.14-11.45.52-17.22C936.34,237.28,930.51,236.22,925.28,240Z"/><path class="cls-7" d="M872.82,223.76a21.09,21.09,0,0,1,7.6-2.51c2.73-.34,9.64-1.2,13,3.33,2.82,3.86.58,8.31,3.4,10.78s5.6-.85,8.74,1.08a6.07,6.07,0,0,1,.49,10.42c-2.74,1.86-4.14.69-13.26.09-4-.27-4.46,1.24-8.9.62-4.66-.65-5.81,2.59-8.89.63-6-3.85-8-4.49-11.33-4.86-4.86-.53-8-3.25-9.87-4.67-2.53-1.89-2.21-12.29,3.06-16.89C861,218.09,867.76,218.68,872.82,223.76Z"/><path class="cls-7" d="M954.83,268a25.28,25.28,0,0,1,9-2.92c3.24-.39,11.46-1.38,15.41,3.92,3.37,4.53,0,4.5,3.33,7.39,3.18,2.74,3.15,1.67,6.9,3.93,5.81,3.51-.08,15.57-10.94,14.84-4.73-.32-5.29,1.45-10.58.71-5.55-.77-12.71,2.41-16.38.1-7.19-4.52-2.94-3.49-6.9-3.93-5.78-.64-11.45-14.24-5.19-19.62C944.53,268.08,948.79,262,954.83,268Z"/><path class="cls-7" d="M937.11,281.91a20.52,20.52,0,0,1,7.95-3.26c2.84-.48,10.05-1.7,13.41,3.78,2.87,4.68-.1,4.72,2.79,7.69,2.74,2.81,2.73,1.69,6,4,5,3.56-.33,16.36-9.81,15.83-4.13-.24-4.66,1.63-9.27,1-4.84-.69-11.16,2.81-14.33.47-6.21-4.59-2.51-3.61-6-4-5.05-.54-9.77-14.7-4.21-20.48C928.1,282.27,931.93,275.79,937.11,281.91Z"/><line class="cls-6" x1="921.78" y1="208.64" x2="921.78" y2="413"/><line class="cls-8" x1="841.9" y1="310.82" x2="1001.66" y2="310.82"/><line class="cls-8" x1="841.9" y1="365.84" x2="917.22" y2="365.84"/><line class="cls-8" x1="927.49" y1="365.84" x2="1000.52" y2="365.84"/><line class="cls-9" x1="842.23" y1="407.4" x2="1002.32" y2="409.95"/><line class="cls-9" x1="916.42" y1="205.95" x2="916.25" y2="409.91"/><path class="cls-10" d="M1012.27,359.51l-1-1a108.49,108.49,0,0,0-32.78-23.36c-24-11.28-40.37-51.8-40.37-90.64L910,200.1l102.26-.32v124.6C1012.27,326.13,1013.46,359.51,1012.27,359.51Z"/><path class="cls-11" d="M831.08,357.91l1-1A115.41,115.41,0,0,1,867,333.17c25.6-11.45,43-52.59,43-92l26.92-41.87-105.85-3.54v126.5C831.08,324,829.81,357.91,831.08,357.91Z"/><rect class="cls-6" x="1139.47" y="202.01" width="168.89" height="213.54"/><path class="cls-7" d="M1227.41,238.8a18.85,18.85,0,0,0-6-4.32c-2.24-1-8-3.51-11.59.13-3.11,3.1-2,8-4.88,9.76s-4.59-2.19-7.62-1.06c-4.69,1.75-4.52,7.36-2.34,10.11,2,2.49,3.39,1.69,11.24,3.31,3.42.7,3.55,2.3,7.43,2.77,4.08.5,4.46,4,7.44,2.78,5.83-2.32,7.62-2.47,10.5-2,4.22.66,7.37-1.25,9.24-2.19,2.49-1.25,4.14-11.53.52-17.33C1238.47,236.1,1232.64,235,1227.41,238.8Z"/><path class="cls-7" d="M1175,222.5a21.05,21.05,0,0,1,7.6-2.53c2.73-.34,9.64-1.21,13,3.35,2.82,3.89.58,8.36,3.4,10.85,2.67,2.35,5.6-.85,8.74,1.09a6.13,6.13,0,0,1,.49,10.48c-2.74,1.87-4.14.7-13.26.09-4-.27-4.46,1.25-8.9.63-4.66-.65-5.81,2.61-8.89.63-6-3.87-8-4.52-11.33-4.89-4.86-.53-8-3.27-9.87-4.7-2.53-1.9-2.21-12.36,3.06-17C1163.15,216.8,1169.89,217.39,1175,222.5Z"/><path class="cls-7" d="M1257,267a25.25,25.25,0,0,1,9-2.94c3.24-.39,11.46-1.38,15.41,4,3.37,4.56,0,4.53,3.33,7.44,3.18,2.76,3.16,1.68,6.9,3.95,5.82,3.54-.08,15.67-10.93,14.93-4.74-.32-5.3,1.46-10.59.72-5.55-.78-12.71,2.42-16.38.1-7.19-4.55-2.94-3.52-6.9-4-5.78-.64-11.44-14.33-5.18-19.73C1246.66,267.09,1250.92,261,1257,267Z"/><path class="cls-7" d="M1239.24,281a20.67,20.67,0,0,1,8-3.28c2.84-.49,10-1.71,13.41,3.8,2.87,4.71-.1,4.76,2.79,7.74,2.74,2.82,2.73,1.7,6,4,5,3.58-.33,16.45-9.81,15.92-4.13-.23-4.66,1.64-9.27,1-4.84-.69-11.15,2.83-14.33.47-6.21-4.61-2.51-3.63-6-4-5-.55-9.77-14.8-4.21-20.61C1230.23,281.38,1234.06,274.85,1239.24,281Z"/><line class="cls-6" x1="1223.91" y1="207.29" x2="1223.91" y2="412.91"/><line class="cls-8" x1="1144.03" y1="310.1" x2="1303.8" y2="310.1"/><line class="cls-8" x1="1144.03" y1="365.46" x2="1219.35" y2="365.46"/><line class="cls-8" x1="1229.62" y1="365.46" x2="1302.65" y2="365.46"/><line class="cls-9" x1="1144.36" y1="407.28" x2="1304.46" y2="409.85"/><line class="cls-9" x1="1218.55" y1="204.58" x2="1218.38" y2="409.8"/><path class="cls-12" d="M1314.4,359.1l-1-1a108.67,108.67,0,0,0-32.79-23.9c-24-11.54-40.37-53-40.37-92.72L1212.14,196l102.26-.33V323.16C1314.4,325,1315.6,359.1,1314.4,359.1Z"/><path class="cls-13" d="M1133.21,357.48l1-1a115.73,115.73,0,0,1,34.91-23.86c25.6-11.53,43-52.92,43-92.59l26.92-42.13-105.85-3.55V321.6C1133.21,323.39,1131.94,357.48,1133.21,357.48Z"/><rect class="cls-6" x="1448.99" y="200.65" width="168.89" height="213.54"/><path class="cls-7" d="M1536.93,237.43a18.85,18.85,0,0,0-6-4.31c-2.25-1-8-3.52-11.59.12-3.11,3.11-2,8-4.88,9.76s-4.6-2.19-7.62-1.06c-4.69,1.75-4.52,7.37-2.34,10.12,2,2.49,3.39,1.68,11.24,3.3,3.42.71,3.55,2.31,7.43,2.78,4.08.49,4.46,3.95,7.43,2.77,5.84-2.31,7.62-2.46,10.51-2,4.22.65,7.37-1.26,9.24-2.2,2.49-1.24,4.14-11.52.52-17.32C1548,234.73,1542.16,233.67,1536.93,237.43Z"/><path class="cls-7" d="M1484.47,221.13a21.25,21.25,0,0,1,7.6-2.53c2.73-.34,9.64-1.2,13,3.35,2.82,3.89.58,8.37,3.4,10.85,2.67,2.35,5.6-.85,8.74,1.09a6.13,6.13,0,0,1,.49,10.49c-2.74,1.87-4.14.69-13.26.08-4-.26-4.46,1.26-8.9.63-4.66-.65-5.81,2.61-8.89.63-6-3.87-8-4.51-11.33-4.88-4.86-.54-8-3.27-9.87-4.7-2.53-1.91-2.21-12.37,3.06-17C1472.67,215.43,1479.41,216,1484.47,221.13Z"/><path class="cls-7" d="M1566.48,265.59a25.27,25.27,0,0,1,9-2.93c3.24-.39,11.46-1.39,15.41,3.95,3.37,4.55,0,4.52,3.33,7.43,3.18,2.76,3.15,1.69,6.9,4,5.82,3.53-.08,15.66-10.93,14.93-4.74-.32-5.3,1.45-10.59.71-5.55-.78-12.71,2.42-16.38.1-7.19-4.55-2.94-3.51-6.9-3.95-5.78-.65-11.45-14.33-5.19-19.74C1556.18,265.72,1560.44,259.6,1566.48,265.59Z"/><path class="cls-7" d="M1548.76,279.65a20.51,20.51,0,0,1,8-3.29c2.84-.48,10-1.71,13.41,3.81,2.87,4.71-.1,4.75,2.79,7.73,2.74,2.83,2.73,1.7,6,4,5,3.58-.33,16.46-9.81,15.92-4.13-.23-4.66,1.65-9.27,1-4.84-.7-11.16,2.82-14.33.46-6.21-4.61-2.51-3.62-6-4-5-.54-9.77-14.79-4.21-20.61C1539.75,280,1543.58,273.49,1548.76,279.65Z"/><line class="cls-6" x1="1533.43" y1="205.92" x2="1533.43" y2="411.55"/><line class="cls-8" x1="1453.55" y1="308.73" x2="1613.31" y2="308.73"/><line class="cls-8" x1="1453.55" y1="364.09" x2="1528.87" y2="364.09"/><line class="cls-8" x1="1539.14" y1="364.09" x2="1612.17" y2="364.09"/><line class="cls-9" x1="1453.88" y1="405.92" x2="1613.97" y2="408.48"/><line class="cls-9" x1="1528.07" y1="203.21" x2="1527.9" y2="408.44"/><path class="cls-14" d="M1623.92,357.73l-1-1a108.46,108.46,0,0,0-32.78-23.49c-24-11.35-40.37-52.12-40.37-91.18l-28.14-44.67,102.26-.32V322.39C1623.92,324.15,1625.11,357.73,1623.92,357.73Z"/><path class="cls-15" d="M1442.73,356.12l1-1a115.59,115.59,0,0,1,34.91-23.87c25.6-11.52,43-52.92,43-92.58l26.92-42.13L1442.73,193V320.23C1442.73,322,1441.46,356.12,1442.73,356.12Z"/></g><g id="холодильник"><g id="холодильник-2" data-name="холодильник"><path class="cls-16" d="M771.53,565.51l-52.2,36.68H611.44c-4,0-7.34-4.23-7.34-9.4V338.66c0-16.48,10.53-30,23.4-30H754.66c9.62,0,17.5,10.08,17.5,22.42Z"/><g id="Дж_виж_холодильник" data-name="Дж\виж холодильник"><path class="cls-17" d="M625.29,309.29h67.52a29.11,29.11,0,0,1,29.11,29.11V597.2a4.77,4.77,0,0,1-4.77,4.77H607.91a1.85,1.85,0,0,1-1.85-1.85V328.52A19.23,19.23,0,0,1,625.29,309.29Z"/><line class="cls-18" x1="605.1" y1="412.42" x2="722.24" y2="412.42"/><g id="ручка"><ellipse class="cls-19" cx="702.57" cy="447.86" rx="10.21" ry="5.88" transform="translate(252.19 1148.82) rotate(-89.79)"/><path class="cls-20" d="M700,476.23l.14-27.3a1,1,0,0,1,.86-1.08l2.89,0a1,1,0,0,1,.85,1.1l-.15,27.3a1,1,0,0,1-.86,1.08l-2.89,0A1,1,0,0,1,700,476.23Z"/></g><g id="ручка-2" data-name="ручка"><ellipse class="cls-19" cx="704.95" cy="374.06" rx="5.18" ry="6.53"/><path class="cls-20" d="M702.69,391.79l.08-16.66a1,1,0,0,1,.86-1.08l2.35,0a1,1,0,0,1,.84,1.1l-.08,16.66a1,1,0,0,1-.86,1.08l-2.35,0A1,1,0,0,1,702.69,391.79Z"/></g></g></g><g id="тумбока"><path class="cls-21" d="M892,585l-52.2,16.25H731.91c-4,0-7.34-1.88-7.34-4.17V484.55c0-7.3,10.53-13.27,23.4-13.27H875.12c9.63,0,17.51,4.47,17.51,9.93Z"/><path class="cls-22" d="M725,488.54H855a.91.91,0,0,1,.91.91v94.81a16.07,16.07,0,0,1-16.07,16.07H724.08a0,0,0,0,1,0,0V489.46A.91.91,0,0,1,725,488.54Z"/><line class="cls-18" x1="723.95" y1="534.37" x2="855.22" y2="534.37"/><ellipse class="cls-23" cx="753.27" cy="524.99" rx="3.72" ry="3.75"/><ellipse class="cls-23" cx="753.27" cy="542.77" rx="3.72" ry="3.75"/><ellipse class="cls-23" cx="813.37" cy="542.77" rx="3.72" ry="3.75"/><ellipse class="cls-23" cx="813.61" cy="524.99" rx="3.72" ry="3.75"/></g><g id="тумбока-2" data-name="тумбока"><path class="cls-21" d="M1024,585l-52.2,16.25H863.93c-4,0-7.34-1.88-7.34-4.17V484.55c0-7.3,10.52-13.27,23.39-13.27h127.16c9.63,0,17.51,4.47,17.51,9.93Z"/><path class="cls-22" d="M856.1,488.86H987.93a0,0,0,0,1,0,0v97.55A13.92,13.92,0,0,1,974,600.33H858.63a2.53,2.53,0,0,1-2.53-2.53V488.86A0,0,0,0,1,856.1,488.86Z"/><line class="cls-18" x1="855.96" y1="534.37" x2="987.23" y2="534.37"/><ellipse class="cls-23" cx="885.29" cy="524.99" rx="3.72" ry="3.75"/><ellipse class="cls-23" cx="945.63" cy="524.99" rx="3.72" ry="3.75"/><line class="cls-18" x1="917" y1="488.86" x2="917" y2="533.93"/><line class="cls-18" x1="987.93" y1="488.86" x2="1021.53" y2="476"/></g><g id="тумбока-3" data-name="тумбока"><path class="cls-21" d="M1156.14,585l-52.2,16.25H996.05c-4,0-7.34-1.88-7.34-4.17V484.55c0-7.3,10.53-13.27,23.4-13.27h127.16c9.62,0,17.5,4.47,17.5,9.93Z"/><path class="cls-22" d="M988.22,488.86h131.83a0,0,0,0,1,0,0v97.55a13.92,13.92,0,0,1-13.92,13.92H990.75a2.53,2.53,0,0,1-2.53-2.53V488.86A0,0,0,0,1,988.22,488.86Z"/><line class="cls-18" x1="988.09" y1="534.37" x2="1119.36" y2="534.37"/><ellipse class="cls-23" cx="1017.41" cy="524.99" rx="3.72" ry="3.75"/><ellipse class="cls-23" cx="1077.75" cy="524.99" rx="3.72" ry="3.75"/><line class="cls-18" x1="1049.13" y1="488.86" x2="1049.13" y2="533.93"/><line class="cls-18" x1="1120.05" y1="488.86" x2="1153.66" y2="476"/></g></g><g id="настеное"><path class="cls-24" d="M542.74,542.08c-5.58-2.66-9-7.49-11.33-10.69-4-5.57-6.5-11.8-5.89-12.47.91-1,7.64,11.66,11.78,9.5,2.68-1.39,4.32-9,2.65-14.38,0-.14-.18-.57-.38-1.06-3.28-7.8-13.54-5.76-17.22-12.48-2.68-4.88-1.46-13.65.9-14.84,4.44-2.25,12.7,22.18,19.94,19.6,2.14-.77,3.34-3.59,4.08-5.35,3.81-9-1.76-17.8.9-21.38s12.29-1,15.41,6.53c5.18,12.46-9.14,35.18-7.25,36.83,1.3,1.14,6.6-11,13.14-10.1,3.75.53,7.34,5.29,7.7,10.1.53,7.13-6.2,12.45-10,15.44C564.89,539.16,554.25,547.59,542.74,542.08Z"/><path class="cls-25" d="M564.48,591.68,533,591.27l-9.29-51.56a5,5,0,0,1,5.22-4.76h43a5,5,0,0,1,5.22,4.76Z"/><g id="часы"><ellipse class="cls-26" cx="538.05" cy="382.07" rx="35.48" ry="38.92"/><ellipse class="cls-27" cx="537.36" cy="382.07" rx="29.22" ry="31.29"/><line class="cls-28" x1="537.36" y1="353.84" x2="537.36" y2="359.94"/><line class="cls-28" x1="558.23" y1="379.78" x2="563.79" y2="379.78"/><line class="cls-28" x1="509.53" y1="381.31" x2="515.1" y2="381.31"/><line class="cls-28" x1="537.36" y1="405.73" x2="537.36" y2="411.83"/><line class="cls-29" x1="523.44" y1="366.05" x2="535.27" y2="380.55"/><line class="cls-28" x1="535.96" y1="381.31" x2="547.1" y2="381.31"/><ellipse cx="536.79" cy="381.51" rx="2.35" ry="2.62" transform="translate(-103.07 225.71) rotate(-21.72)"/></g><path class="cls-30" d="M482.8,294.49c6.73,3.28.66,3.32,2.53,7.19s1.9,2.42,6.23,4.53c3.57,1.74,9.14,6.61,11.71,4.21,4.2-3.91,9-6,9.23-13.37.16-5.41,3.26-1.49-.28-6.1-1.88-2.45-5.61-7.21-8.62-8.67-5.16-2.52-6.93,4.07-14.15,2C486.45,283.48,480,293.14,482.8,294.49Z"/><path class="cls-31" d="M487.66,295c5.46,2.66.56,2.62,2.11,5.69s1.56,1.93,5.08,3.64c2.89,1.41,7.43,5.32,9.48,3.46,3.36-3,7.24-4.64,7.34-10.43.07-4.26,2.61-1.13-.29-4.81-1.54-1.95-4.6-5.74-7-6.93-4.19-2-5.56,3.12-11.41,1.44C490.5,286.36,485.42,293.9,487.66,295Z"/><path class="cls-31" d="M531.72,269.4c-2.69,3.7-7.5-5.92-18.5-4.14-2.2.36-6.26-5.32-7.6-6.55-4.19-3.8-6,.08-7.16-4.49-2.07-7.88-5.28-8.84-3.55-11.22,3.15-4.33,13.39-5.86,26.22-.21,3.9,1.71,9.06,5,11.08,8.05C536.11,256.65,533.79,266.56,531.72,269.4Z"/><path class="cls-30" d="M560.4,266.75c-.84,2.16-5.29.23-7.07,1a14.58,14.58,0,0,1-10.93.63c-8.34-2.58-10.22-11.4-7.93-17.28s11.14-8,16.25-4a20.7,20.7,0,0,1,7.16,12.42C558.17,261.27,561.06,265.06,560.4,266.75Z"/><path class="cls-30" d="M543.54,292.8c-1,4.28-3,7.54-6.16,8.92-8.06,3.53-19.24,4.17-23,.72-6.87-6.33-10.09-4.92-7.44-18.52,1.66-8.52,17.86-17.64,22.62-20.27,2.85-1.58,4.36-2.94,7-2.55,4.41.66,5.33,8.56,5.47,11.61C542.33,278.63,545.35,284.75,543.54,292.8Z"/><path class="cls-30" d="M531,277c-1.5,3.84-10.37-4.4-21.61-1.11-2.24.66-8.79-4-10.72-5-6-2.91-6.42.95-9.46-3.12-5.26-7-9.1-7.45-8.13-9.92,1.76-4.49,12.25-7.44,28.3-4.09,4.87,1,11.72,3.35,15.06,5.85C530.9,264.5,532.18,274.06,531,277Z"/><ellipse class="cls-31" cx="547.53" cy="252.06" rx="2.36" ry="1.9" transform="translate(-24.65 441.61) rotate(-43.05)"/><path class="cls-31" d="M537.79,287c-1.9,4.84-5.44,7.78-7.91,6.57s-4.71-8.45-2.81-13.29a7.42,7.42,0,0,1,9.66-4.22C539.21,277.28,539.68,282.18,537.79,287Z"/><path class="cls-12" d="M520.64,178.67c5.11,5.88-.51,3.35-.11,7.72s.94,3,4.24,6.83c2.7,3.12,6.2,10,9.39,8.86,5.22-1.84,10.41-1.76,13.1-8.47,2-4.94,3.52,0,1.81-5.76-.91-3.07-2.75-9-5-11.68-3.92-4.51-7.8.84-13.79-4.1C527.76,170,518.55,176.26,520.64,178.67Z"/><path class="cls-13" d="M525,181.19c4.15,4.78-.36,2.67,0,6.17s.79,2.44,3.46,5.52c2.2,2.53,5.07,8.06,7.6,7.21,4.14-1.38,8.28-1.23,10.33-6.54,1.52-3.92,2.81,0,1.37-4.57-.76-2.47-2.3-7.27-4.16-9.4-3.18-3.66-6.2.54-11-3.5C530.53,174.41,523.26,179.23,525,181.19Z"/><path class="cls-13" d="M574.43,176.17c-3.75,2.28-4.93-8.65-15.71-11.67-2.16-.6-4-7.57-4.81-9.27-2.58-5.29-5.53-2.46-5.09-7.19.76-8.17-1.89-10.42.52-11.89,4.39-2.67,14.38.25,24.34,10.91,3,3.24,6.66,8.49,7.51,12.14C582.82,166.23,577.32,174.41,574.43,176.17Z"/><path class="cls-12" d="M601.87,185.86c-1.52,1.64-5-2-6.89-2.05a15.08,15.08,0,0,1-10.33-4,13.55,13.55,0,0,1-1.46-19.34c4.12-4.46,13-2.67,16.39,3.18a22.34,22.34,0,0,1,2.4,14.53C601.67,179.84,603.06,184.57,601.87,185.86Z"/><path class="cls-12" d="M577.41,202.82c-2.35,3.55-5.34,5.7-8.73,5.64-8.65-.14-19.21-4.28-21.5-9.06-4.21-8.76-7.67-8.82-.59-20.29,4.43-7.18,22.51-8.75,27.81-9.17,3.18-.26,5-.88,7.35.61,3.86,2.48,2,10.17,1.12,13C581.11,189.2,581.83,196.14,577.41,202.82Z"/><path class="cls-12" d="M571.2,182.92c-2.7,2.92-8.11-8.46-19.62-10.18-2.3-.34-6.77-7.45-8.24-9.13-4.54-5.23-6.25-1.84-7.69-6.89-2.47-8.74-5.88-10.75-4.15-12.63,3.15-3.41,13.87-1.69,27.57,8.2,4.17,3,9.71,8.06,11.95,11.79C575.34,171.28,573.27,180.67,571.2,182.92Z"/><ellipse class="cls-13" cx="594.96" cy="166.82" rx="2.27" ry="1.96" transform="translate(-22.38 140.46) rotate(-13.22)"/><path class="cls-13" d="M574.06,195c-3.4,3.67-7.68,4.9-9.56,2.73S563,188,566.42,184.28s8.5-2,10.38.18S577.45,191.36,574.06,195Z"/><path class="cls-10" d="M680.86,271.28c-7.07,3.27-.69,3.31-2.65,7.19s-2,2.41-6.56,4.53c-3.74,1.73-9.59,6.6-12.29,4.21-4.41-3.91-9.49-6-9.71-13.38-.16-5.41-3.42-1.48.3-6.09,2-2.46,5.9-7.21,9.06-8.68,5.42-2.51,7.28,4.07,14.87,2.05C677,260.26,683.76,269.93,680.86,271.28Z"/><path class="cls-11" d="M675.76,271.78c-5.74,2.66-.59,2.62-2.22,5.7s-1.63,1.93-5.33,3.64c-3,1.41-7.82,5.31-10,3.46-3.53-3-7.61-4.64-7.71-10.43-.07-4.27-2.75-1.14.3-4.81,1.63-2,4.83-5.75,7.4-6.94,4.4-2,5.85,3.13,12,1.45C672.77,263.15,678.11,270.69,675.76,271.78Z"/><path class="cls-11" d="M629.46,246.19c2.83,3.7,7.88-5.92,19.44-4.14,2.32.35,6.57-5.33,8-6.55,4.4-3.8,6.25.07,7.52-4.49,2.18-7.89,5.55-8.85,3.73-11.23-3.31-4.32-14.07-5.85-27.55-.21-4.1,1.72-9.52,5-11.64,8.06C624.85,233.44,627.28,243.34,629.46,246.19Z"/><path class="cls-10" d="M599.32,243.54c.89,2.16,5.56.22,7.44,1a16,16,0,0,0,11.48.64c8.76-2.58,10.74-11.4,8.33-17.28s-11.7-8-17.08-4A20.5,20.5,0,0,0,602,236.35C601.67,238.06,598.63,241.85,599.32,243.54Z"/><path class="cls-10" d="M617.05,269.59c1,4.28,3.16,7.54,6.47,8.92,8.46,3.52,20.21,4.17,24.14.72,7.22-6.33,10.6-4.92,7.82-18.53-1.75-8.52-18.77-17.63-23.77-20.26-3-1.59-4.59-2.95-7.36-2.55-4.63.66-5.6,8.56-5.74,11.61C618.32,255.42,615.14,261.53,617.05,269.59Z"/><path class="cls-10" d="M630.2,253.8c1.58,3.85,10.9-4.39,22.7-1.1,2.36.65,9.25-4,11.27-5,6.29-2.92,6.74,1,9.94-3.12,5.52-7,9.56-7.45,8.54-9.93-1.84-4.49-12.87-7.43-29.73-4.08-5.13,1-12.32,3.34-15.83,5.85C630.32,241.29,629,250.85,630.2,253.8Z"/><ellipse class="cls-11" cx="612.85" cy="228.85" rx="1.94" ry="2.43" transform="translate(63.61 584.22) rotate(-53.38)"/><path class="cls-11" d="M623.09,263.81c2,4.84,5.71,7.78,8.31,6.57s4.94-8.45,3-13.29a7.94,7.94,0,0,0-10.15-4.23C621.6,254.07,621.1,259,623.09,263.81Z"/></g></svg>