<svg xmlns="http://www.w3.org/2000/svg" viewBox="0 0 1154.68 866.4"><defs><style>.cls-1{fill:#b7a08a;}.cls-2{fill:#a5907f;}.cls-3{fill:#a38f7e;}.cls-4{fill:#a7e09d;}.cls-5{fill:#9dcc93;}.cls-6{fill:#85b9d3;}.cls-7{fill:#9ed0db;}.cls-8{fill:#ddac9e;}.cls-9{fill:#d69585;}</style></defs><title>Столовая</title><g id="Столы"><g id="СтолСтул2"><path class="cls-1" d="M341.79,595.26,355,529.1c3.69-18.41,12.83-36.76,27.06-54.3l33.26-41c-.41-6.19-7.71-7.42-18.91-6.33h0c-11.2,1.1-21.82,5.72-21.41,11.91l-32.35,39.31c-14,17-23.06,34.73-26.92,52.57l-14.7,68C301.47,605.43,342.19,601.45,341.79,595.26Z"/><path class="cls-2" d="M325.8,597.94,332.12,547a111.09,111.09,0,0,1,14.1-41.42l17.71-31c-.32-4.8-4.36-5.92-10.51-5.32h0c-6.15.61-11.93,3.95-11.61,8.75l-17.24,29.7a109.11,109.11,0,0,0-14,40.09l-7.1,52.29C303.75,604.92,326.11,602.74,325.8,597.94Z"/><path class="cls-2" d="M251.51,569.88l9.21-49.82c2.56-13.86,9-27.66,19-40.82l23.47-30.77c-.3-4.67-5.49-5.63-13.43-4.86h0c-7.94.78-15.45,4.22-15.15,8.89L251.81,482c-9.85,12.72-16.25,26.08-18.94,39.51l-10.22,51.2C223,577.37,251.82,574.55,251.51,569.88Z"/><path class="cls-2" d="M389.91,559.3l-13.66-47.58A95.27,95.27,0,0,0,355.5,474.8l-23.23-26.21c-.31-4.67,3.89-6.55,10.59-7.2h0c6.7-.66,13.37,1.39,13.68,6.06l22.55,25.05a93.77,93.77,0,0,1,20.51,35.65l14.68,48.77C414.58,561.59,390.21,564,389.91,559.3Z"/><path class="cls-1" d="M459.77,581.57l-20.83-62.83c-5.79-17.48-16.69-33.87-32.24-48.5L370.34,436c-.41-6.19,6.28-8.79,16.9-9.83h0c10.63-1,21.16,1.51,21.56,7.7l35.29,32.69c15.23,14.11,26,29.93,31.89,46.82l22.43,64.37C498.81,584,460.18,587.76,459.77,581.57Z"/><path class="cls-3" d="M459.77,581.57l-15.26-50.21a115.79,115.79,0,0,0-18-39.68l-19.95-28.34c-.33-5,3.18-6.88,8.82-7.43h0c5.63-.55,11.28,1.77,11.6,6.74l19.35,27.1a113.21,113.21,0,0,1,17.8,38.33l13.07,52.13C477.52,585.17,460.1,586.53,459.77,581.57Z"/><path class="cls-2" d="M430.42,490.3l29.43-2.08c4.64-.32-3.16-4-3.39-9.22h0c-.23-5.19-4.21-9.17-8.84-8.84l-18,1.27c-4.64.33-8.25,4.84-8,10h0C421.8,486.65,425.78,490.63,430.42,490.3Z"/><path class="cls-2" d="M336.39,496.94l30.72-2.17c3.18-.22,5.65-3.71,5.47-7.75l-.09-2c-.18-4-2.93-7.16-6.11-6.94l-30.72,2.17c-3.18.23-5.65,3.72-5.47,7.76l.09,2C330.46,494.05,333.21,497.17,336.39,496.94Z"/><path class="cls-1" d="M263.65,434.69h0c7-.42,12.56-5.3,12.36-10.84l-11.64-37.3a102.88,102.88,0,0,1-1.91-54.4l9-38.54c-.2-5.54-6.08-9.73-13.07-9.32h0c-7,.42-12.56,5.29-12.36,10.83l-5.75,35.15a153.7,153.7,0,0,0,2.13,60.78l8.18,34.32C250.78,430.91,256.66,435.1,263.65,434.69Z"/><path class="cls-3" d="M252.92,450.31h0a4,4,0,0,0,1.92-.87c4.5-3.3,6.26-12.6,4.26-20.66L250.43,394c-.18-.74-.34-1.5-.47-2.27-3.43-20.85-6.44-55.83-3.66-78.17l1-31.4c-.44-6.62-3.32-11.79-6.41-11.48h0c-3.08.3-5.24,6-4.8,12.59l.35,36.4c-.18,23.65.72,53,3.94,76.28.16,1.15,8.38,31.67,8.67,32.74l1.75,7.16a27.86,27.86,0,0,1,.71,10.34C251.23,448.93,251,450.5,252.92,450.31Z"/><path class="cls-1" d="M326.11,456.66h0c6.28.32,11.7-4.94,12.05-11.67l-6.84-46.56a168.37,168.37,0,0,1,3.45-66.11l11.67-45.63c.35-6.74-4.5-12.51-10.77-12.82h0c-6.28-.31-11.7,4.94-12.05,11.67l-8.46,41.9a252.69,252.69,0,0,0-3.86,73.88l4,42.52C315,450.58,319.84,456.35,326.11,456.66Z"/><path class="cls-1" d="M315.19,456.05h0c2.75.14,5.29-5.26,5.65-12l-1.36-23.22c-4-22.76-1.15-93.56,6.82-115.1l2.81-20c.35-6.74-1.61-12.36-4.36-12.5h0c-2.75-.14-5.29,5.26-5.64,12l-4.95,42.08a573.58,573.58,0,0,0-3.86,73.88l.53,42.34C310.48,450.29,312.44,455.91,315.19,456.05Z"/><path class="cls-4" d="M266.15,496.29l33.9-2.39,120.41-8.51,26.31-1.86c17.68-1.25,46.67-18.78,45.84-37.64h0c-.83-18.87-16-33.29-33.66-32L249.1,428.67c-17.68,1.25-31.47,17.71-30.64,36.58h0C219.29,484.11,248.46,497.54,266.15,496.29Z"/><path class="cls-5" d="M240.7,429.34l60.59-3.72c4.23-.26-7.21,18.36-7.33,27.14-.14,10.16-.38,7.09,3.19,19,3.52,11.72,8.89,21.34,2.87,21.7l-46.9,3.45a10.94,10.94,0,0,1-4.16-.47c-9.65-3-15.54-2.76-26-17.68-1.94-2.75-2.75-6.11-3.61-9.85h0a34.11,34.11,0,0,1-.88-8.34C218.83,439.53,227.62,430.14,240.7,429.34Z"/><path class="cls-5" d="M371.94,428.94l85.11,2.84c4.24-.3,27.81-1.94,27.6-6.69,0,0-5.61-6.43-13-9.4-5.77-2.29-13.46-1.31-15.31-1.18L354,421.36C349.79,421.66,367.69,429.24,371.94,428.94Z"/><path class="cls-4" d="M233.74,342.34l123.07-8.69c26.13-1.84,46.32-30.45,44.86-63.58L401,254c-1.45-33.13-24-58.72-50.15-56.87l-123.07,8.69c-26.13,1.84-46.32,30.45-44.86,63.58l.71,16.07C185,318.6,207.61,344.19,233.74,342.34Z"/><path class="cls-5" d="M183.48,282.9c5.47,39.71,42,62.43,56.27,61.43s-2.84-24.91-4.6-65.08,11.07-73.72-3.2-72.72S177.7,240.89,183.48,282.9Z"/><path class="cls-4" d="M215.21,333.74c.09,2.12,29.51,6.37,74.88,3.94,24.59-1.32,47.79-1.77,62.53-5.09,15.79-3.56,22.26-10,22.76-10.95,1.64-3.17-7.17-.36-23,2.3A518.19,518.19,0,0,1,289.75,330C244.37,331.7,215.12,331.62,215.21,333.74Z"/><g id="ножка"><path class="cls-1" d="M446.94,686.91h0c-12.45,0-15.21-8.74-15.21-21L424.3,513.12a22.51,22.51,0,0,1,22.64-22.24h0a22.51,22.51,0,0,1,22.65,22.24l-7.14,151.33C462.45,676.68,459.4,686.91,446.94,686.91Z"/><path class="cls-2" d="M427,570.89l-2.7-62.78a22.79,22.79,0,0,1,22.64-22.8h0a22.79,22.79,0,0,1,22.65,22.8L467,568.19C467,580.74,429.79,578,427,570.89Z"/><path class="cls-3" d="M452.79,685.87h0c-7,0-5.85,2.34-5.85-4.54V494.75c0-6.88-5.2-9.35,1.81-9.35l10.93-3.16c5.74.52,10.46,10.87,10.08,13.62l-.34,3.74L462.4,667C462.4,673.89,459.8,685.87,452.79,685.87Z"/></g><g id="ножка-2" data-name="ножка"><path class="cls-1" d="M743.61,686.91h0c-12.61,0-15.41-9.73-15.41-23.35l-7.52-170.21c0-13.62,10.32-24.76,22.93-24.76h0c12.61,0,22.93,11.14,22.93,24.76L759.31,661.9C759.31,675.52,756.22,686.91,743.61,686.91Z"/><path class="cls-2" d="M723.42,557.69l-2.74-69.91c0-14,10.32-25.39,22.93-25.39h0c12.61,0,22.93,11.42,22.93,25.39l-2.62,66.91C763.92,568.66,726.24,565.6,723.42,557.69Z"/><path class="cls-3" d="M749.54,685.75h0c-7.1,0-5.93,2.61-5.93-5V472.89c0-7.66-5.27-10.41,1.83-10.41L756.51,459c5.81.59,10.58,12.11,10.2,15.17l-.34,4.17-7.11,186.45C759.26,672.41,756.63,685.75,749.54,685.75Z"/></g><g id="ножка-3" data-name="ножка"><path class="cls-1" d="M803.57,636.21h0c-12.25,0-15-8.11-15-19.45l-7.3-141.68c0-11.33,10-20.61,22.27-20.61h0c12.26,0,22.28,9.28,22.28,20.61l-7,140.3C818.83,626.72,815.83,636.21,803.57,636.21Z"/><path class="cls-2" d="M784,528.64l-2.66-58.19c0-11.63,10-21.15,22.27-21.15h0c12.26,0,22.28,9.52,22.28,21.15l-2.54,55.7C823.31,537.77,786.69,535.22,784,528.64Z"/><path class="cls-3" d="M809.33,635.24h0c-6.89,0-5.76,2.17-5.76-4.21v-173c0-6.38-5.11-8.66,1.78-8.66l10.76-2.93c5.64.48,10.28,10.07,9.91,12.62l-.33,3.47-6.91,155.21C818.78,624.13,816.23,635.24,809.33,635.24Z"/></g><g id="ножка-4" data-name="ножка"><path class="cls-1" d="M392.12,634h0c-12.14,0-14.84-6.87-14.84-16.47l-7.24-120c0-9.6,9.94-17.46,22.08-17.46h0c12.14,0,22.08,7.86,22.08,17.46l-7,118.84C407.24,625.92,404.26,634,392.12,634Z"/><path class="cls-2" d="M372.68,542.85,370,493.55c0-9.85,9.94-17.91,22.08-17.91h0c12.14,0,22.08,8.06,22.08,17.91l-2.53,47.18C411.67,550.58,375.39,548.42,372.68,542.85Z"/><path class="cls-3" d="M397.82,633.14h0c-6.83,0-5.7,1.84-5.7-3.56V483.05c0-5.4-5.07-7.34,1.76-7.34l10.66-2.48c5.59.41,10.19,8.54,9.82,10.7l-.33,2.94-6.85,131.46C407.18,623.73,404.65,633.14,397.82,633.14Z"/></g><g id="вверх_стола" data-name="вверх стола"><path class="cls-6" d="M860.38,413.92c0,70.19-119.33,128.32-268.4,128.32S325.19,484.11,325.19,413.92,441.4,299.84,590.47,299.84,860.38,343.73,860.38,413.92Z"/><ellipse class="cls-7" cx="591.98" cy="413.92" rx="258.8" ry="108.6"/></g><path class="cls-1" d="M913.49,773.72l-13.14-66.17c-3.65-18.4-12.72-36.76-26.81-54.29l-33-41c.4-6.19,7.64-7.42,18.74-6.33h0c11.09,1.1,21.62,5.72,21.21,11.91l32.06,39.31c13.84,17,22.85,34.73,26.68,52.57l14.57,68C953.44,783.89,913.08,779.91,913.49,773.72Z"/><path class="cls-2" d="M929.33,776.39l-6.26-50.9a112.08,112.08,0,0,0-14-41.42l-17.56-31c.32-4.8,4.32-5.91,10.42-5.31h0c6.09.6,11.82,4,11.51,8.74l17.08,29.71a109.91,109.91,0,0,1,13.92,40.08l7,52.3C951.19,783.38,929,781.19,929.33,776.39Z"/><path class="cls-2" d="M1003,748.34l-9.12-49.83c-2.54-13.85-8.92-27.65-18.86-40.81l-23.26-30.77c.31-4.67,5.44-5.63,13.31-4.86h0c7.87.78,15.32,4.22,15,8.88l22.62,29.49c9.76,12.73,16.1,26.08,18.76,39.52l10.14,51.2C1031.25,755.83,1002.64,753,1003,748.34Z"/><path class="cls-2" d="M865.8,737.76l13.53-47.58a95.8,95.8,0,0,1,20.56-36.93l23-26.2c.3-4.67-3.86-6.55-10.5-7.21h0c-6.64-.65-13.25,1.4-13.55,6.07L876.52,651a94.09,94.09,0,0,0-20.33,35.65l-14.54,48.77C841.35,740.05,865.49,742.43,865.8,737.76Z"/><path class="cls-1" d="M796.56,760,817.2,697.2c5.74-17.48,16.55-33.87,31.95-48.5l36-34.2c.4-6.19-6.22-8.79-16.75-9.83h0c-10.53-1-21,1.51-21.37,7.7l-35,32.69c-15.1,14.1-25.78,29.92-31.61,46.81l-22.21,64.37C757.87,762.43,796.16,766.22,796.56,760Z"/><path class="cls-3" d="M796.56,760l15.12-50.21a116.48,116.48,0,0,1,17.85-39.68l19.77-28.35c.33-5-3.15-6.87-8.73-7.42h0c-5.58-.55-11.18,1.77-11.5,6.74l-19.18,27.1a113.79,113.79,0,0,0-17.64,38.33l-13,52.12C779,763.63,796.24,765,796.56,760Z"/><path class="cls-2" d="M825.65,668.76l-29.17-2.08c-4.59-.33,3.14-4,3.36-9.22h0c.23-5.19,4.17-9.17,8.77-8.84l17.87,1.27c4.59.33,8.16,4.84,7.94,10h0C834.19,665.11,830.25,669.09,825.65,668.76Z"/><path class="cls-2" d="M918.83,675.4l-30.44-2.17c-3.16-.23-5.6-3.71-5.42-7.75l.09-2c.17-4,2.9-7.16,6.06-6.94l30.43,2.17c3.16.23,5.6,3.71,5.43,7.75l-.09,2C924.72,672.5,922,675.62,918.83,675.4Z"/><path class="cls-1" d="M990.92,613.14h0c-6.93-.41-12.45-5.29-12.25-10.83L990.21,565a103.9,103.9,0,0,0,1.89-54.4l-8.91-38.53c.2-5.54,6-9.74,13-9.32h0c6.93.42,12.44,5.29,12.25,10.83l5.69,35.14a155.24,155.24,0,0,1-2.11,60.79l-8.11,34.31C1003.68,609.37,997.85,613.56,990.92,613.14Z"/><path class="cls-3" d="M1001.55,628.77h0a4.13,4.13,0,0,1-1.9-.87c-4.46-3.3-6.21-12.61-4.22-20.66l8.59-34.8c.18-.74.34-1.5.46-2.27,3.41-20.85,6.39-55.84,3.63-78.18l-1-31.4c.44-6.61,3.3-11.78,6.35-11.47h0c3.06.3,5.2,6,4.77,12.59l-.35,36.39c.17,23.65-.72,53-3.91,76.29-.16,1.14-8.31,31.66-8.59,32.74l-1.73,7.16a28,28,0,0,0-.71,10.33C1003.23,627.39,1003.43,629,1001.55,628.77Z"/><path class="cls-1" d="M929,635.12h0c-6.22.31-11.59-4.94-11.94-11.68l6.78-46.55a169.94,169.94,0,0,0-3.42-66.12l-11.56-45.63c-.35-6.73,4.45-12.5,10.67-12.81h0c6.22-.32,11.59,4.94,11.94,11.67l8.38,41.9a254.74,254.74,0,0,1,3.83,73.88l-4,42.52C940,629,935.24,634.8,929,635.12Z"/><path class="cls-1" d="M939.84,634.51h0c-2.73.14-5.24-5.26-5.59-12l1.34-23.21c4-22.76,1.14-93.56-6.75-115.11l-2.79-20c-.35-6.73,1.59-12.36,4.32-12.49h0c2.73-.14,5.24,5.26,5.59,12l4.91,42.07a579.14,579.14,0,0,1,3.82,73.89L944.16,622C944.51,628.75,942.57,634.37,939.84,634.51Z"/><path class="cls-8" d="M988.45,674.75l-33.6-2.4-119.33-8.5L809.45,662c-17.53-1.25-46.25-18.78-45.43-37.65h0c.82-18.86,15.83-33.28,33.35-32l208,14.82c17.52,1.25,31.19,17.71,30.37,36.57h0C1034.88,662.57,1006,676,988.45,674.75Z"/><path class="cls-9" d="M1013.66,607.79l-60-3.71c-4.19-.26,7.15,18.35,7.26,27.13.14,10.17.38,7.1-3.15,19s-8.82,21.35-2.85,21.71l46.47,3.45a11,11,0,0,0,4.13-.47c9.56-3,15.4-2.76,25.8-17.68,1.92-2.75,2.72-6.12,3.57-9.86h0a34.47,34.47,0,0,0,.88-8.33C1035.33,618,1026.63,608.6,1013.66,607.79Z"/><path class="cls-9" d="M883.61,607.4l-84.35,2.84c-4.21-.3-27.56-2-27.36-6.7,0,0,5.56-6.43,12.94-9.39,5.72-2.29,13.33-1.32,15.17-1.18l101.34,6.85C905.56,600.12,887.81,607.7,883.61,607.4Z"/><path class="cls-8" d="M1020.56,520.8l-122-8.69c-25.89-1.85-45.9-30.46-44.46-63.58l.7-16.08c1.44-33.12,23.81-58.71,49.71-56.87l122,8.69c25.89,1.85,45.9,30.46,44.46,63.58l-.7,16.08C1068.82,497.05,1046.46,522.64,1020.56,520.8Z"/><path class="cls-9" d="M1070.37,461.36c-5.42,39.71-41.62,62.43-55.76,61.42s2.81-24.91,4.55-65.07-11-73.73,3.17-72.72S1076.1,419.35,1070.37,461.36Z"/><path class="cls-9" d="M1038.92,512.2c-.09,2.12-29.24,6.37-74.2,3.93-24.37-1.31-47.37-1.76-62-5.08-15.65-3.56-22.06-10-22.55-10.95-1.63-3.17,7.1-.37,22.81,2.29a508.63,508.63,0,0,0,62,6.07C1010,510.16,1039,510.08,1038.92,512.2Z"/></g></g></svg>