<svg xmlns="http://www.w3.org/2000/svg" viewBox="0 0 648.13 694.76"><defs><style>.cls-1{fill:#d3ba97;}.cls-2{fill:#ceae86;}.cls-3{fill:#b8d6dd;}.cls-4{fill:#b5774d;}.cls-5{fill:#ba8b68;}.cls-6{fill:none;}.cls-6,.cls-7{stroke:#000;stroke-miterlimit:10;}.cls-7{fill:#8d998d;}</style></defs><title>Столовая</title><g id="тхника"><path class="cls-1" d="M444.07,528.11H100.26A12.13,12.13,0,0,1,88.13,516V266.12a15,15,0,0,1,15-15h341Z"/><path class="cls-2" d="M444.07,528.11H545.33A11.15,11.15,0,0,0,556.48,517V261.17a10,10,0,0,0-10-10H444.07Z"/><rect class="cls-3" x="106.86" y="264.99" width="312.23" height="249.28" rx="17.85" ry="17.85"/><path class="cls-4" d="M408.61,390.22c0,2.74-11.79,34.85-14.85,34.85s-14.85-31.89-14.85-34.85a68.18,68.18,0,0,1,3.45-22.32c2.72-7.66,6.82-12.53,11.4-12.53s8.45,4.61,11.18,11.9A67.55,67.55,0,0,1,408.61,390.22Z"/><ellipse class="cls-5" cx="500.27" cy="320.38" rx="31.22" ry="27.7"/><ellipse class="cls-4" cx="500.27" cy="316.92" rx="18.73" ry="17.31"/><line class="cls-6" x1="503.4" y1="299.61" x2="503.4" y2="292.68"/><line class="cls-6" x1="519.01" y1="316.92" x2="531.5" y2="316.92"/><line class="cls-6" x1="503.4" y1="334.23" x2="503.4" y2="348.08"/><line class="cls-6" x1="481.54" y1="316.92" x2="469.05" y2="316.92"/><polygon class="cls-7" points="500.48 304.56 510.38 330.77 490.58 330.77 500.48 304.56"/><ellipse class="cls-5" cx="500.27" cy="465.79" rx="31.22" ry="27.7"/><ellipse class="cls-4" cx="500.27" cy="462.33" rx="18.73" ry="17.31"/><line class="cls-6" x1="503.4" y1="451.94" x2="503.4" y2="438.09"/><line class="cls-6" x1="519.01" y1="462.33" x2="531.5" y2="462.33"/><line class="cls-6" x1="503.4" y1="479.64" x2="503.4" y2="493.49"/><line class="cls-6" x1="481.54" y1="462.33" x2="469.05" y2="462.33"/><polygon class="cls-7" points="500.48 449.97 510.38 476.18 490.58 476.18 500.48 449.97"/></g></svg>