<svg xmlns="http://www.w3.org/2000/svg" viewBox="0 0 770.8 626.57"><defs><style>.cls-1{fill:#b7a08a;}.cls-2{fill:#a5907f;}.cls-3{fill:#a38f7e;}.cls-4{fill:#9ed0db;}.cls-5{fill:#85b9d3;}.cls-6{fill:#d69585;}.cls-7{fill:#ddac9e;}.cls-8{fill:#a7e09d;}.cls-9{fill:#9dcc93;}</style></defs><title>Столовая</title><g id="Столы"><g id="СтолСтулДвиж3"><path class="cls-1" d="M324.67,431.34l12-56c3.33-15.59,11.6-31.14,24.45-46l30.05-34.75c-.37-5.24-7-6.29-17.08-5.36h0c-10.12.93-19.72,4.85-19.35,10.09l-29.23,33.3c-12.62,14.36-20.83,29.42-24.32,44.53l-13.29,57.6C288.24,440,325,436.58,324.67,431.34Z"/><path class="cls-2" d="M310.22,433.61l5.71-43.12a90.15,90.15,0,0,1,12.74-35.09l16-26.27c-.28-4.06-3.93-5-9.49-4.5h0c-5.56.51-10.78,3.35-10.5,7.41L309.11,357.2a88.74,88.74,0,0,0-12.69,34L290,435.46C290.29,439.53,310.5,437.67,310.22,433.61Z"/><path class="cls-2" d="M243.1,409.84l8.31-42.2c2.32-11.74,8.13-23.43,17.19-34.58L289.81,307c-.28-3.95-5-4.77-12.13-4.11h0c-7.18.66-14,3.57-13.69,7.53l-20.63,25c-8.9,10.78-14.68,22.09-17.11,33.47L217,412.23C217.29,416.19,243.37,413.79,243.1,409.84Z"/><path class="cls-2" d="M368.15,400.88l-12.34-40.31a79.73,79.73,0,0,0-18.75-31.28l-21-22.19c-.27-4,3.52-5.55,9.57-6.11h0c6.06-.55,12.09,1.18,12.36,5.14l20.38,21.22a78.33,78.33,0,0,1,18.53,30.2l13.26,41.31C390.44,402.82,368.42,404.84,368.15,400.88Z"/><path class="cls-1" d="M431.27,419.74l-18.82-53.22c-5.23-14.81-15.08-28.69-29.13-41.08l-32.85-29c-.37-5.25,5.67-7.45,15.27-8.33h0c9.6-.88,19.11,1.28,19.48,6.52l31.89,27.69c13.76,11.95,23.5,25.35,28.81,39.66l20.26,54.53C466.55,421.78,431.64,425,431.27,419.74Z"/><path class="cls-3" d="M431.27,419.74l-13.78-42.53a95.38,95.38,0,0,0-16.28-33.61l-18-24c-.29-4.21,2.88-5.82,8-6.29h0c5.09-.47,10.19,1.5,10.49,5.71l17.48,23a93.12,93.12,0,0,1,16.08,32.46L447,418.59C447.31,422.8,431.57,424,431.27,419.74Z"/><path class="cls-2" d="M404.75,342.43l26.59-1.76c4.19-.28-2.85-3.42-3.06-7.81h0a7.66,7.66,0,0,0-8-7.49L404,326.45a8,8,0,0,0-7.24,8.49h0A7.66,7.66,0,0,0,404.75,342.43Z"/><path class="cls-2" d="M319.79,348.05l27.75-1.83c2.88-.19,5.11-3.15,4.95-6.57l-.08-1.66c-.16-3.42-2.65-6.07-5.53-5.88L319.13,334c-2.88.19-5.1,3.15-4.94,6.57l.08,1.66C314.43,345.6,316.91,348.25,319.79,348.05Z"/><path class="cls-1" d="M254.06,295.32h0c6.32-.36,11.35-4.48,11.17-9.18l-10.52-31.6A82,82,0,0,1,253,208.46l8.12-32.65c-.18-4.69-5.49-8.24-11.81-7.89h0c-6.32.35-11.35,4.48-11.17,9.17l-5.2,29.77a122.48,122.48,0,0,0,1.93,51.5l7.4,29.06C242.43,292.12,247.75,295.67,254.06,295.32Z"/><path class="cls-3" d="M244.37,308.55h0a3.87,3.87,0,0,0,1.73-.73c4.07-2.8,5.66-10.68,3.85-17.5l-7.83-29.48q-.26-.94-.42-1.92c-3.11-17.67-5.82-47.31-3.31-66.23l.94-26.6c-.39-5.6-3-10-5.79-9.72h0c-2.78.26-4.74,5.06-4.34,10.66l.32,30.84c-.16,20,.65,44.85,3.56,64.62.15,1,7.58,26.82,7.84,27.73l1.58,6.07a22.06,22.06,0,0,1,.64,8.75C242.84,307.39,242.66,308.71,244.37,308.55Z"/><path class="cls-1" d="M310.5,313.93h0A10.49,10.49,0,0,0,321.39,304l-6.19-39.43a134,134,0,0,1,3.13-56L328.87,170a10.28,10.28,0,0,0-9.73-10.86h0A10.49,10.49,0,0,0,308.25,169l-7.64,35.49a200.7,200.7,0,0,0-3.49,62.59l3.65,36A10.27,10.27,0,0,0,310.5,313.93Z"/><path class="cls-1" d="M300.63,313.42h0c2.49.11,4.79-4.46,5.1-10.17l-1.22-19.66c-3.61-19.28-1-79.25,6.16-97.51l2.54-16.92c.32-5.71-1.45-10.47-3.94-10.59h0c-2.49-.11-4.78,4.46-5.1,10.16l-4.47,35.64A456.51,456.51,0,0,0,296.21,267l.48,35.87C296.37,308.54,298.15,313.3,300.63,313.42Z"/><path class="cls-4" d="M256.32,347.5l30.63-2,108.81-7.2,23.76-1.57c16-1.06,42.17-15.91,41.43-31.9h0a28.52,28.52,0,0,0-30.42-27.13L240.92,290.22a29.88,29.88,0,0,0-27.69,31h0C214,337.19,240.34,348.56,256.32,347.5Z"/><path class="cls-5" d="M233.33,290.79l54.74-3.15c3.83-.22-6.52,15.55-6.62,23-.13,8.62-.35,6,2.88,16.07s8,18.09,2.59,18.39L244.55,348a10.9,10.9,0,0,1-3.76-.4c-8.72-2.56-14-2.34-23.53-15-1.75-2.33-2.48-5.18-3.25-8.35h0a27.27,27.27,0,0,1-.8-7.06C213.57,299.42,221.5,291.47,233.33,290.79Z"/><path class="cls-4" d="M351.91,290.45l76.91,2.41c3.83-.26,25.13-1.65,24.94-5.67a35.11,35.11,0,0,0-11.8-8c-5.21-1.94-12.16-1.12-13.83-1L335.73,284C331.89,284.28,348.07,290.71,351.91,290.45Z"/><path class="cls-4" d="M227,217.09l111.2-7.36c23.61-1.56,41.85-25.8,40.53-53.86l-.63-13.62c-1.32-28.06-21.71-49.73-45.32-48.17l-111.21,7.36C198,103,179.76,127.24,181.08,155.3l.64,13.62C183,197,203.43,218.66,227,217.09Z"/><path class="cls-5" d="M181.62,166.74c4.95,33.64,37.95,52.89,50.84,52s-2.56-21.1-4.15-55.12,10-62.45-2.89-61.6S176.4,131.15,181.62,166.74Z"/><path class="cls-5" d="M210.29,209.81c.09,1.79,26.67,5.39,67.66,3.33,22.22-1.12,43.19-1.49,56.5-4.31,14.27-3,20.12-8.46,20.57-9.27,1.48-2.69-6.48-.31-20.8,1.94a498.59,498.59,0,0,1-56.58,5.14C236.64,208.08,210.21,208,210.29,209.81Z"/><g id="ножка"><path class="cls-1" d="M246.1,521.75h0c-11.11,0-13.58-7.19-13.58-17.24l-6.63-125.58c0-10,9.1-18.27,20.21-18.27h0c11.11,0,20.21,8.23,20.21,18.27l-6.37,124.36C259.94,513.34,257.21,521.75,246.1,521.75Z"/><path class="cls-2" d="M228.31,426.4l-2.42-51.58c0-10.3,9.1-18.73,20.21-18.73h0c11.11,0,20.21,8.43,20.21,18.73L264,424.19C264,434.5,230.79,432.24,228.31,426.4Z"/><path class="cls-3" d="M251.32,520.89h0c-6.25,0-5.22,1.92-5.22-3.73V363.84c0-5.65-4.64-7.68,1.61-7.68l9.76-2.6c5.12.43,9.33,8.93,9,11.19l-.3,3.08-6.27,137.56C259.89,511,257.57,520.89,251.32,520.89Z"/></g><g id="ножка-2" data-name="ножка"><path class="cls-1" d="M510.85,521.75h0c-11.26,0-13.75-8-13.75-19.2l-6.71-139.86a20.45,20.45,0,0,1,20.46-20.34h0a20.46,20.46,0,0,1,20.46,20.34l-6.45,138.5C524.86,512.38,522.1,521.75,510.85,521.75Z"/><path class="cls-2" d="M492.83,415.56l-2.44-57.44a20.72,20.72,0,0,1,20.46-20.87h0a20.73,20.73,0,0,1,20.46,20.87l-2.34,55C529,424.58,495.34,422.06,492.83,415.56Z"/><path class="cls-3" d="M516.14,520.79h0c-6.33,0-5.29,2.14-5.29-4.15V345.88c0-6.29-4.7-8.55,1.63-8.55l9.88-2.89c5.18.47,9.44,9.94,9.1,12.46l-.31,3.42-6.34,153.21C524.81,509.83,522.46,520.79,516.14,520.79Z"/></g><g id="ножка-3" data-name="ножка"><path class="cls-1" d="M564.36,480.08h0c-10.94,0-13.36-6.66-13.36-16l-6.52-116.42c0-9.31,8.94-16.94,19.88-16.94h0c10.94,0,19.88,7.63,19.88,16.94L578,463C578,472.28,575.3,480.08,564.36,480.08Z"/><path class="cls-2" d="M546.85,391.69l-2.37-47.82c0-9.55,8.94-17.37,19.88-17.37h0c10.94,0,19.88,7.82,19.88,17.37L582,389.64C582,399.19,549.3,397.1,546.85,391.69Z"/><path class="cls-3" d="M569.5,479.28h0c-6.15,0-5.14,1.79-5.14-3.45V333.69c0-5.24-4.57-7.12,1.58-7.12l9.6-2.41c5,.4,9.18,8.28,8.85,10.37l-.3,2.85-6.16,127.54C577.93,470.16,575.65,479.28,569.5,479.28Z"/></g><g id="ножка-4" data-name="ножка"><path class="cls-1" d="M197.18,478.23h0c-10.84,0-13.24-5.64-13.24-13.53l-6.47-98.61c0-7.9,8.87-14.35,19.71-14.35h0c10.83,0,19.7,6.45,19.7,14.35l-6.21,97.65C210.67,471.63,208,478.23,197.18,478.23Z"/><path class="cls-2" d="M179.83,403.36l-2.36-40.5c0-8.1,8.87-14.72,19.71-14.72h0c10.83,0,19.7,6.62,19.7,14.72l-2.25,38.77C214.63,409.72,182.25,408,179.83,403.36Z"/><path class="cls-3" d="M202.27,477.56h0c-6.1,0-5.09,1.51-5.09-2.93V354.23c0-4.44-4.53-6,1.56-6l9.52-2c5,.34,9.1,7,8.77,8.79l-.3,2.41-6.11,108C210.62,469.83,208.36,477.56,202.27,477.56Z"/></g><g id="вверх_стола" data-name="вверх стола"><path class="cls-6" d="M615.06,297.42c0,57.68-106.5,105.45-239.53,105.45S137.45,355.1,137.45,297.42s103.71-93.74,236.74-93.74S615.06,239.74,615.06,297.42Z"/><ellipse class="cls-7" cx="375.53" cy="297.42" rx="230.95" ry="89.24"/></g><path class="cls-1" d="M636.85,574.8l-11.72-54.37c-3.26-15.13-11.35-30.21-23.93-44.62l-29.41-33.7c.36-5.09,6.82-6.1,16.72-5.2h0c9.9.9,19.29,4.7,18.94,9.78l28.6,32.3c12.35,13.94,20.4,28.54,23.81,43.2l13,55.88C672.5,583.15,636.49,579.88,636.85,574.8Z"/><path class="cls-2" d="M651,577l-5.59-41.83a86.92,86.92,0,0,0-12.47-34l-15.66-25.48c.28-3.94,3.85-4.86,9.29-4.36h0c5.44.49,10.55,3.24,10.27,7.18l15.25,24.41a85.79,85.79,0,0,1,12.42,32.94l6.27,43C670.49,582.74,650.72,580.94,651,577Z"/><path class="cls-2" d="M716.69,553.94,708.55,513c-2.27-11.39-8-22.73-16.83-33.54L671,454.17c.27-3.83,4.85-4.62,11.87-4h0c7,.63,13.67,3.46,13.4,7.29l20.19,24.24c8.71,10.45,14.37,21.43,16.74,32.47l9.05,42.07C742,560.1,716.42,557.77,716.69,553.94Z"/><path class="cls-2" d="M594.29,545.25l12.08-39.1a77,77,0,0,1,18.35-30.34l20.55-21.54c.27-3.83-3.44-5.38-9.37-5.92h0c-5.92-.54-11.82,1.15-12.09,5l-19.95,20.58a76,76,0,0,0-18.14,29.3l-13,40.07C572.47,547.13,594,549.09,594.29,545.25Z"/><path class="cls-1" d="M532.51,563.54l18.42-51.62c5.12-14.36,14.76-27.84,28.51-39.85L611.6,444c.36-5.08-5.55-7.22-15-8.08h0c-9.39-.85-18.71,1.25-19.07,6.33l-31.21,26.86c-13.47,11.59-23,24.59-28.2,38.47l-19.83,52.9C498,565.52,532.15,568.63,532.51,563.54Z"/><path class="cls-3" d="M532.51,563.54,546,522.29a92.13,92.13,0,0,1,15.93-32.61l17.65-23.29c.29-4.08-2.82-5.65-7.8-6.1h0c-5-.45-10,1.46-10.26,5.54L544.4,488.1a90.11,90.11,0,0,0-15.74,31.49L517.1,562.43C516.81,566.51,532.22,567.63,532.51,563.54Z"/><path class="cls-2" d="M558.47,488.55l-26-1.71c-4.1-.27,2.8-3.32,3-7.58h0a7.47,7.47,0,0,1,7.82-7.26l15.94,1a7.82,7.82,0,0,1,7.09,8.25h0A7.47,7.47,0,0,1,558.47,488.55Z"/><path class="cls-2" d="M641.62,494l-27.16-1.78c-2.82-.18-5-3.05-4.84-6.37l.08-1.61c.15-3.32,2.59-5.88,5.41-5.7l27.16,1.78c2.82.19,5,3.06,4.84,6.38l-.08,1.61C646.87,491.63,644.44,494.19,641.62,494Z"/><path class="cls-1" d="M706,442.85h0c-6.18-.34-11.1-4.35-10.93-8.9l10.3-30.66a78.89,78.89,0,0,0,1.69-44.7l-8-31.67c.17-4.55,5.37-8,11.56-7.65h0c6.18.34,11.1,4.34,10.93,8.9L726.63,357a117.71,117.71,0,0,1-1.88,50l-7.24,28.19C717.34,439.74,712.14,443.19,706,442.85Z"/><path class="cls-3" d="M715.44,455.69h0a3.79,3.79,0,0,1-1.7-.72c-4-2.71-5.53-10.36-3.76-17l7.66-28.6q.25-.91.42-1.86c3-17.14,5.69-45.89,3.24-64.24l-.93-25.8c.39-5.44,2.94-9.69,5.67-9.44h0c2.72.25,4.64,4.91,4.25,10.35L730,348.32c.15,19.43-.64,43.51-3.49,62.68-.14.94-7.42,26-7.67,26.91l-1.55,5.88a21.5,21.5,0,0,0-.63,8.49C716.94,454.56,717.12,455.84,715.44,455.69Z"/><path class="cls-1" d="M650.71,460.91h0a10.24,10.24,0,0,1-10.65-9.6l6.05-38.25a128.84,128.84,0,0,0-3.06-54.33l-10.31-37.5a10,10,0,0,1,9.52-10.53h0a10.24,10.24,0,0,1,10.66,9.6l7.48,34.42a193.27,193.27,0,0,1,3.42,60.71l-3.58,34.94A10,10,0,0,1,650.71,460.91Z"/><path class="cls-1" d="M660.37,460.4h0c-2.43.12-4.68-4.32-5-9.85l1.2-19.08c3.53-18.7,1-76.88-6-94.58l-2.49-16.42c-.31-5.54,1.43-10.16,3.86-10.27h0c2.43-.11,4.68,4.32,5,9.86l4.38,34.57a438.59,438.59,0,0,1,3.41,60.71l-.47,34.8C664.54,455.67,662.8,460.29,660.37,460.4Z"/><path class="cls-8" d="M703.75,493.47l-30-2-106.49-7L544,483c-15.64-1-41.28-15.44-40.54-30.94h0a27.82,27.82,0,0,1,29.76-26.32l185.59,12.18a29.07,29.07,0,0,1,27.1,30h0C745.19,483.46,719.39,494.5,703.75,493.47Z"/><path class="cls-9" d="M726.25,438.45l-53.58-3.05c-3.75-.21,6.38,15.08,6.48,22.3.12,8.35.34,5.83-2.82,15.59s-7.86,17.53-2.54,17.83L715.27,494a10.7,10.7,0,0,0,3.68-.39c8.53-2.48,13.74-2.27,23-14.53,1.71-2.26,2.43-5,3.19-8.1h0a26.1,26.1,0,0,0,.78-6.85C745.59,446.83,737.82,439.11,726.25,438.45Z"/><path class="cls-9" d="M610.19,438.13l-75.28,2.33c-3.75-.25-24.59-1.6-24.41-5.5a34.42,34.42,0,0,1,11.55-7.72c5.1-1.88,11.9-1.08,13.54-1L626,431.9C629.78,432.14,613.94,438.38,610.19,438.13Z"/><path class="cls-8" d="M732.41,367l-108.84-7.14c-23.11-1.52-41-25-39.68-52.25l.63-13.21c1.28-27.22,21.25-48.25,44.35-46.73l108.84,7.14c23.11,1.52,41,25,39.68,52.25l-.63,13.21C775.47,347.45,755.51,368.48,732.41,367Z"/><path class="cls-9" d="M776.85,318.12c-4.83,32.64-37.14,51.31-49.76,50.48s2.51-20.47,4.07-53.47-9.79-60.59,2.83-59.76S782,283.6,776.85,318.12Z"/><path class="cls-8" d="M748.79,359.9c-.08,1.74-26.1,5.23-66.22,3.23-21.74-1.08-42.27-1.45-55.3-4.18-14-2.92-19.68-8.2-20.12-9-1.46-2.61,6.33-.3,20.35,1.88a488.75,488.75,0,0,0,55.37,5C723,358.22,748.87,358.16,748.79,359.9Z"/></g></g></svg>