<svg xmlns="http://www.w3.org/2000/svg" viewBox="0 0 862 887"><defs><style>.cls-1{fill:#b7a08a;}.cls-2{fill:#a5907f;}.cls-3{fill:#a38f7e;}.cls-4{fill:#ddac9e;}.cls-5{fill:#d69585;}.cls-6{fill:#9dcc93;}.cls-7{fill:#a7e09d;}.cls-8{fill:#9ed0db;}.cls-9{fill:#85b9d3;}</style></defs><title>Столовая</title><g id="Столы"><g id="СтолСтул1"><path class="cls-1" d="M276.41,434.09l14.35-56.67c4-15.76,13.88-31.49,29.28-46.51l36-35.13c-.44-5.3-8.34-6.36-20.46-5.42h0c-12.12.94-23.61,4.9-23.17,10.2l-35,33.67c-15.11,14.53-25,29.74-29.13,45L232.34,437.5C232.78,442.8,276.85,439.39,276.41,434.09Z"/><path class="cls-2" d="M259.11,436.38l6.84-43.6c1.9-12.13,7.06-24.12,15.26-35.47l19.16-26.56c-.34-4.11-4.71-5.07-11.37-4.55h0c-6.65.51-12.91,3.38-12.57,7.49l-18.65,25.44c-8,11-13.18,22.58-15.2,34.33l-7.68,44.8C235.24,442.37,259.45,440.49,259.11,436.38Z"/><path class="cls-2" d="M178.72,412.35l10-42.67c2.77-11.87,9.73-23.69,20.59-35l25.4-26.36c-.34-4-5.95-4.82-14.54-4.16h0c-8.59.67-16.72,3.61-16.39,7.61L179,337.07c-10.66,10.9-17.58,22.34-20.48,33.84l-11.07,43.86C147.81,418.77,179.05,416.35,178.72,412.35Z"/><path class="cls-2" d="M328.49,403.29l-14.78-40.75c-4.11-11.34-11.7-22-22.45-31.63l-25.15-22.45c-.33-4,4.21-5.6,11.46-6.17h0c7.26-.56,14.47,1.2,14.81,5.2l24.4,21.45c10.53,9.26,18,19.58,22.2,30.54l15.88,41.77C355.19,405.25,328.82,407.29,328.49,403.29Z"/><path class="cls-1" d="M404.1,422.36l-22.54-53.81c-6.27-15-18.07-29-34.9-41.54l-39.35-29.29c-.44-5.3,6.8-7.53,18.29-8.42h0c11.5-.9,22.9,1.29,23.34,6.59l38.19,28c16.48,12.08,28.15,25.63,34.51,40.1l24.27,55.13C446.35,424.43,404.54,427.67,404.1,422.36Z"/><path class="cls-3" d="M404.1,422.36l-16.52-43a91,91,0,0,0-19.49-34L346.5,321.1c-.35-4.26,3.44-5.89,9.54-6.36h0c6.1-.47,12.21,1.51,12.56,5.77l20.95,23.21a89.57,89.57,0,0,1,19.25,32.83L423,421.2C423.3,425.45,404.45,426.62,404.1,422.36Z"/><path class="cls-2" d="M372.33,344.19l31.85-1.78c5-.28-3.42-3.45-3.67-7.9h0c-.24-4.44-4.55-7.85-9.57-7.57L371.43,328c-5,.28-8.92,4.15-8.67,8.59h0C363,341.07,367.31,344.47,372.33,344.19Z"/><path class="cls-2" d="M270.58,349.88,303.81,348a6.32,6.32,0,0,0,5.93-6.64l-.1-1.68a6.31,6.31,0,0,0-6.62-5.94l-33.24,1.86a6.32,6.32,0,0,0-5.92,6.64l.1,1.68A6.31,6.31,0,0,0,270.58,349.88Z"/><path class="cls-1" d="M191.85,296.56h0c7.57-.36,13.59-4.54,13.38-9.28l-12.6-32a70.62,70.62,0,0,1-2.07-46.59l9.73-33c-.21-4.74-6.58-8.34-14.15-8h0c-7.56.36-13.58,4.53-13.37,9.28l-6.23,30.1a105.21,105.21,0,0,0,2.31,52.06l8.86,29.39C177.92,293.32,184.29,296.91,191.85,296.56Z"/><path class="cls-3" d="M180.24,309.94h0a5.09,5.09,0,0,0,2.08-.74c4.87-2.83,6.77-10.8,4.6-17.7l-9.37-29.81c-.2-.63-.37-1.28-.51-1.94-3.72-17.86-7-47.83-4-67l1.13-26.9c-.48-5.66-3.6-10.09-6.93-9.83h0c-3.34.26-5.68,5.12-5.2,10.79l.37,31.17c-.18,20.26.79,45.36,4.28,65.34.17,1,9.06,27.12,9.38,28l1.89,6.14a19.12,19.12,0,0,1,.77,8.85C178.41,308.76,178.19,310.1,180.24,309.94Z"/><path class="cls-1" d="M259.45,315.38h0c6.79.27,12.66-4.23,13-10l-7.41-39.88a115.1,115.1,0,0,1,3.74-56.63l12.63-39.08c.38-5.77-4.87-10.71-11.66-11h0c-6.79-.27-12.66,4.23-13,10L247.6,204.7A172.16,172.16,0,0,0,243.42,268l4.37,36.42C247.41,310.17,252.66,315.11,259.45,315.38Z"/><path class="cls-1" d="M247.63,314.86h0c3,.11,5.73-4.51,6.11-10.28l-1.47-19.89c-4.32-19.49-1.25-80.13,7.38-98.58l3-17.12c.39-5.76-1.74-10.58-4.72-10.7h0c-3-.12-5.72,4.51-6.1,10.27l-5.36,36a391.29,391.29,0,0,0-4.18,63.28l.58,36.27C242.53,309.92,244.65,314.74,247.63,314.86Z"/><path class="cls-4" d="M194.55,349.32l36.69-2.05L361.56,340l28.47-1.6c19.13-1.06,50.5-16.08,49.6-32.24h0c-.89-16.16-17.28-28.51-36.42-27.44L176.11,291.4c-19.14,1.07-34.06,15.17-33.17,31.33h0C143.84,338.89,175.41,350.39,194.55,349.32Z"/><path class="cls-5" d="M167,292l65.57-3.18c4.58-.22-7.8,15.72-7.93,23.24-.15,8.71-.41,6.08,3.45,16.25s9.62,18.28,3.11,18.6l-50.75,2.95a15.24,15.24,0,0,1-4.51-.4c-10.44-2.59-16.82-2.37-28.17-15.15-2.1-2.36-3-5.24-3.9-8.44h0a23.53,23.53,0,0,1-1-7.14C143.35,300.71,152.85,292.66,167,292Z"/><path class="cls-5" d="M309,291.64l92.11,2.43c4.6-.26,30.1-1.67,29.88-5.74a42.92,42.92,0,0,0-14.13-8c-6.24-2-14.56-1.13-16.57-1l-110.67,5.87C285.07,285.4,304.45,291.89,309,291.64Z"/><path class="cls-4" d="M159.48,217.46,292.67,210a51.76,51.76,0,0,0,48.55-54.46l-.77-13.77a51.71,51.71,0,0,0-54.28-48.71L153,100.52A51.76,51.76,0,0,0,104.44,155l.76,13.77A51.71,51.71,0,0,0,159.48,217.46Z"/><path class="cls-5" d="M105.09,166.55c5.92,34,45.45,53.47,60.89,52.61s-3.06-21.33-5-55.74,12-63.14-3.46-62.28S98.83,130.57,105.09,166.55Z"/><path class="cls-5" d="M139.43,210.1c.1,1.81,31.94,5.45,81,3.37,26.61-1.13,51.73-1.52,67.67-4.36,17.09-3.05,24.09-8.56,24.63-9.38,1.78-2.72-7.75-.31-24.9,2s-41.92,4.42-67.76,5.19C171,208.34,139.33,208.28,139.43,210.1Z"/><g id="ножка"><path class="cls-1" d="M241.94,533.42h0c-16,0-19.54-7.49-19.54-18l-9.55-130.9c0-10.47,13.09-19,29.09-19h0c16,0,29.09,8.57,29.09,19l-9.17,129.62C261.86,524.66,257.94,533.42,241.94,533.42Z"/><path class="cls-2" d="M216.33,434l-3.48-53.76c0-10.75,13.09-19.54,29.09-19.54h0c16,0,29.09,8.79,29.09,19.54l-3.33,51.46C267.7,442.48,219.9,440.12,216.33,434Z"/><path class="cls-3" d="M249.46,532.53h0c-9,0-7.52,2-7.52-3.89V368.83c0-5.9-6.68-8,2.32-8l14-2.71c7.37.45,13.43,9.31,12.94,11.67l-.43,3.2-9,143.4C261.79,522.27,258.45,532.53,249.46,532.53Z"/></g><g id="ножка-2" data-name="ножка"><path class="cls-1" d="M623,533.42h0c-16.2,0-19.79-8.34-19.79-20l-9.67-145.79c0-11.66,13.26-21.21,29.46-21.21h0c16.19,0,29.45,9.55,29.45,21.21L643.17,512C643.17,523.66,639.2,533.42,623,533.42Z"/><path class="cls-2" d="M597.07,422.74l-3.52-59.88c0-12,13.26-21.75,29.46-21.75h0c16.19,0,29.45,9.79,29.45,21.75l-3.37,57.31C649.09,432.14,600.69,429.52,597.07,422.74Z"/><path class="cls-3" d="M630.62,532.42h0c-9.11,0-7.61,2.24-7.61-4.32v-178c0-6.56-6.77-8.92,2.34-8.92l14.22-3c7.47.5,13.6,10.36,13.11,13l-.44,3.57-9.14,159.7C643.1,521,639.73,532.42,630.62,532.42Z"/></g><g id="ножка-3" data-name="ножка"><path class="cls-1" d="M700,490h0c-15.74,0-19.23-6.94-19.23-16.65L671.41,352c0-9.72,12.88-17.66,28.62-17.66h0c15.74,0,28.62,7.94,28.62,17.66l-9,120.16C719.63,481.87,715.77,490,700,490Z"/><path class="cls-2" d="M674.83,397.86,671.41,348c0-10,12.88-18.11,28.62-18.11h0c15.74,0,28.62,8.15,28.62,18.11l-3.27,47.71C725.38,405.68,678.35,403.5,674.83,397.86Z"/><path class="cls-3" d="M707.43,489.16h0c-8.86,0-7.4,1.86-7.4-3.6V337.4c0-5.47-6.57-7.43,2.28-7.43l13.82-2.5c7.25.41,13.21,8.62,12.73,10.81l-.43,3-8.87,132.94C719.56,479.65,716.28,489.16,707.43,489.16Z"/></g><g id="ножка-4" data-name="ножка"><path class="cls-1" d="M171.52,488.07h0c-15.6,0-19.06-5.88-19.06-14.11l-9.3-102.79c0-8.23,12.76-15,28.36-15h0c15.6,0,28.36,6.73,28.36,15L190.94,473C190.94,481.18,187.12,488.07,171.52,488.07Z"/><path class="cls-2" d="M146.55,410l-3.39-42.22c0-8.43,12.76-15.33,28.36-15.33h0c15.6,0,28.36,6.9,28.36,15.33l-3.24,40.41C196.64,416.65,150,414.8,146.55,410Z"/><path class="cls-3" d="M178.85,487.36h0c-8.78,0-7.33,1.58-7.33-3.05V358.81c0-4.63-6.52-6.29,2.26-6.29l13.69-2.12c7.19.35,13.09,7.31,12.62,9.16l-.43,2.52-8.79,112.6C190.87,479.31,187.62,487.36,178.85,487.36Z"/></g><g id="вверх_стола" data-name="вверх стола"><path class="cls-6" d="M773,299.6c0,60.11-153.28,109.91-344.76,109.91S85.56,359.71,85.56,299.6s149.27-97.72,340.74-97.72S773,239.48,773,299.6Z"/><ellipse class="cls-7" cx="428.24" cy="299.6" rx="332.42" ry="93.02"/></g><path class="cls-1" d="M473.58,650.6l-16.87-56.67c-4.69-15.77-16.34-31.49-34.44-46.51l-42.34-35.13c.52-5.3,9.82-6.36,24.07-5.42h0c14.26.94,27.77,4.9,27.26,10.2l41.17,33.66c17.77,14.53,29.35,29.75,34.27,45L525.42,654C524.9,659.31,473.06,655.9,473.58,650.6Z"/><path class="cls-2" d="M493.94,652.89l-8.05-43.6c-2.24-12.13-8.31-24.12-17.95-35.48L445.4,547.25c.4-4.11,5.54-5.06,13.37-4.55h0c7.83.52,15.19,3.38,14.79,7.49l21.93,25.44c9.47,11,15.52,22.59,17.88,34.34l9,44.79C522,658.87,493.54,657,493.94,652.89Z"/><path class="cls-2" d="M588.49,628.86l-11.71-42.68c-3.26-11.87-11.45-23.68-24.22-35l-29.88-26.35c.39-4,7-4.83,17.1-4.16h0c10.1.66,19.67,3.61,19.28,7.61l29.06,25.26c12.54,10.9,20.68,22.33,24.1,33.84l13,43.86C624.85,635.27,588.1,632.85,588.49,628.86Z"/><path class="cls-2" d="M412.33,619.8,429.71,579c4.83-11.34,13.76-22,26.41-31.62L485.7,525c.39-4-5-5.61-13.49-6.17h0c-8.53-.56-17,1.19-17.41,5.19l-28.7,21.46C413.71,554.71,404.89,565,400,576l-18.68,41.77C380.92,621.76,411.94,623.8,412.33,619.8Z"/><path class="cls-1" d="M323.39,638.87l26.52-53.81c7.37-15,21.25-29,41-41.54l46.28-29.3c.52-5.3-8-7.53-21.51-8.42h0c-13.52-.89-26.93,1.3-27.45,6.6l-44.92,28C324,552.48,310.24,566,302.76,580.49l-28.55,55.14C273.7,640.93,322.88,644.17,323.39,638.87Z"/><path class="cls-3" d="M323.39,638.87l19.43-43c4.32-12.11,12.07-23.6,22.93-34l25.39-24.28c.42-4.25-4.05-5.89-11.22-6.36h0c-7.17-.47-14.36,1.52-14.77,5.77l-24.64,23.22c-10.63,10-18.29,21.11-22.65,32.82L301.22,637.7C300.8,642,323,643.12,323.39,638.87Z"/><path class="cls-2" d="M360.76,560.7l-37.47-1.78c-5.9-.28,4-3.46,4.32-7.9h0c.29-4.45,5.36-7.85,11.26-7.57l22.95,1.09c5.9.28,10.49,4.14,10.2,8.59h0C371.73,557.57,366.66,561,360.76,560.7Z"/><path class="cls-2" d="M480.45,566.38l-39.1-1.85c-4.06-.2-7.19-3.18-7-6.64l.1-1.68c.23-3.46,3.73-6.14,7.79-5.94l39.1,1.85c4.05.2,7.19,3.19,7,6.65l-.11,1.67C488,563.9,484.5,566.58,480.45,566.38Z"/><path class="cls-1" d="M573,513.06h0c-8.9-.36-16-4.53-15.73-9.28l14.82-31.95a60.73,60.73,0,0,0,2.43-46.6l-11.44-33c.25-4.75,7.74-8.34,16.64-8h0c8.9.35,16,4.53,15.73,9.27l7.32,30.1a90,90,0,0,1-2.71,52.07l-10.42,29.39C589.43,509.83,581.94,513.42,573,513.06Z"/><path class="cls-3" d="M586.7,526.44h0a6.68,6.68,0,0,1-2.44-.74c-5.73-2.83-8-10.8-5.42-17.7l11-29.8c.23-.64.43-1.29.6-1.94,4.37-17.86,8.2-47.83,4.66-67l-1.34-26.89c.56-5.67,4.24-10.09,8.16-9.83h0c3.93.26,6.68,5.11,6.12,10.78l-.45,31.18c.22,20.25-.92,45.35-5,65.34-.2,1-10.67,27.12-11,28L589.34,514a16.37,16.37,0,0,0-.91,8.85C588.86,525.26,589.11,526.6,586.7,526.44Z"/><path class="cls-1" d="M493.53,531.88h0c-8,.27-14.89-4.23-15.34-10L486.91,482a98.66,98.66,0,0,0-4.4-56.63L467.66,386.3c-.45-5.77,5.72-10.71,13.71-11h0c8-.27,14.89,4.23,15.34,10l10.77,35.88a147.28,147.28,0,0,1,4.91,63.28l-5.15,36.43C507.69,526.67,501.52,531.61,493.53,531.88Z"/><path class="cls-1" d="M507.43,531.36h0c-3.5.12-6.73-4.5-7.18-10.27L502,501.2c5.08-19.49,1.46-80.13-8.68-98.59l-3.58-17.11c-.45-5.77,2-10.59,5.55-10.7h0c3.5-.12,6.73,4.5,7.18,10.27l6.3,36a333.42,333.42,0,0,1,4.92,63.29L513,520.66C513.44,526.43,510.94,531.24,507.43,531.36Z"/><path class="cls-8" d="M569.87,565.83l-43.16-2.06-153.28-7.28L340,554.9c-22.51-1.07-59.41-16.09-58.36-32.25h0c1.06-16.16,20.34-28.5,42.85-27.43l267.13,12.69c22.5,1.07,40.06,15.17,39,31.33h0C629.52,555.4,592.38,566.9,569.87,565.83Z"/><path class="cls-9" d="M602.26,508.48l-77.13-3.18c-5.38-.22,9.18,15.72,9.33,23.24.18,8.71.49,6.08-4.05,16.25s-11.32,18.28-3.66,18.59l59.7,3a20.55,20.55,0,0,0,5.3-.4c12.28-2.58,19.78-2.36,33.13-15.14,2.47-2.36,3.5-5.24,4.6-8.44h0a20.48,20.48,0,0,0,1.12-7.14C630.09,517.21,618.91,509.17,602.26,508.48Z"/><path class="cls-8" d="M435.2,508.14l-108.34,2.43c-5.41-.25-35.41-1.66-35.14-5.73a52.6,52.6,0,0,1,16.62-8c7.34-2,17.13-1.12,19.48-1L458,501.65C463.4,501.9,440.6,508.4,435.2,508.14Z"/><path class="cls-8" d="M611.12,434l-156.66-7.45c-33.26-1.58-59-26.08-57.11-54.46l.9-13.76c1.86-28.38,30.59-50.29,63.85-48.71L618.76,317c33.26,1.58,59,26.09,57.1,54.46l-.9,13.77C673.11,413.63,644.38,435.55,611.12,434Z"/><path class="cls-9" d="M675.09,383.06c-7,34-53.46,53.47-71.62,52.61s3.61-21.34,5.85-55.74-14.09-63.15,4.07-62.29S682.46,347.07,675.09,383.06Z"/><path class="cls-9" d="M634.7,426.6c-.11,1.82-37.56,5.46-95.31,3.37-31.3-1.13-60.84-1.51-79.6-4.36-20.1-3-28.33-8.55-29-9.38-2.09-2.71,9.13-.31,29.3,2s49.3,4.43,79.7,5.19C597.59,424.85,634.82,424.78,634.7,426.6Z"/></g></g></svg>